%TF.GenerationSoftware,KiCad,Pcbnew,7.0.9-7.0.9~ubuntu20.04.1*%
%TF.CreationDate,2023-12-17T17:56:01+01:00*%
%TF.ProjectId,PL_switch,504c5f73-7769-4746-9368-2e6b69636164,1.0*%
%TF.SameCoordinates,Original*%
%TF.FileFunction,Drillmap*%
%TF.FilePolarity,Positive*%
%FSLAX45Y45*%
G04 Gerber Fmt 4.5, Leading zero omitted, Abs format (unit mm)*
G04 Created by KiCad (PCBNEW 7.0.9-7.0.9~ubuntu20.04.1) date 2023-12-17 17:56:01*
%MOMM*%
%LPD*%
G01*
G04 APERTURE LIST*
%ADD10C,0.100000*%
%ADD11C,0.200000*%
%ADD12C,0.150000*%
%ADD13C,0.292100*%
%ADD14C,0.330200*%
G04 APERTURE END LIST*
D10*
X5905500Y-7366000D02*
X21907500Y-7366000D01*
X21907500Y-12255500D01*
X5905500Y-12255500D01*
X5905500Y-7366000D01*
D11*
D10*
X9836520Y-11089520D02*
X9876520Y-11129520D01*
X9876520Y-11089520D02*
X9836520Y-11129520D01*
X9907690Y-10096890D02*
X9947690Y-10136890D01*
X9947690Y-10096890D02*
X9907690Y-10136890D01*
X13052770Y-9465400D02*
X13092770Y-9505400D01*
X13092770Y-9465400D02*
X13052770Y-9505400D01*
X10337000Y-10350500D02*
G75*
G03*
X10337000Y-10350500I-50000J0D01*
G01*
X10337000Y-10604500D02*
G75*
G03*
X10337000Y-10604500I-50000J0D01*
G01*
X10337000Y-10858500D02*
G75*
G03*
X10337000Y-10858500I-50000J0D01*
G01*
X10337000Y-11112500D02*
G75*
G03*
X10337000Y-11112500I-50000J0D01*
G01*
X10591000Y-10350500D02*
G75*
G03*
X10591000Y-10350500I-50000J0D01*
G01*
X10591000Y-10604500D02*
G75*
G03*
X10591000Y-10604500I-50000J0D01*
G01*
X10591000Y-10858500D02*
G75*
G03*
X10591000Y-10858500I-50000J0D01*
G01*
X10591000Y-11112500D02*
G75*
G03*
X10591000Y-11112500I-50000J0D01*
G01*
D12*
X6247550Y-10554450D02*
X6247550Y-10704450D01*
X6172550Y-10629450D02*
X6322550Y-10629450D01*
X6247550Y-11304450D02*
X6247550Y-11454450D01*
X6172550Y-11379450D02*
X6322550Y-11379450D01*
X6747550Y-10554450D02*
X6747550Y-10704450D01*
X6672550Y-10629450D02*
X6822550Y-10629450D01*
X6747550Y-11304450D02*
X6747550Y-11454450D01*
X6672550Y-11379450D02*
X6822550Y-11379450D01*
X7247550Y-10554450D02*
X7247550Y-10704450D01*
X7172550Y-10629450D02*
X7322550Y-10629450D01*
X7247550Y-11304450D02*
X7247550Y-11454450D01*
X7172550Y-11379450D02*
X7322550Y-11379450D01*
X8747550Y-10554450D02*
X8747550Y-10704450D01*
X8672550Y-10629450D02*
X8822550Y-10629450D01*
X8747550Y-11304450D02*
X8747550Y-11454450D01*
X8672550Y-11379450D02*
X8822550Y-11379450D01*
X11582400Y-10554200D02*
X11582400Y-10704200D01*
X11507400Y-10629200D02*
X11657400Y-10629200D01*
X11582400Y-11304200D02*
X11582400Y-11454200D01*
X11507400Y-11379200D02*
X11657400Y-11379200D01*
X13082400Y-10554200D02*
X13082400Y-10704200D01*
X13007400Y-10629200D02*
X13157400Y-10629200D01*
X13082400Y-11304200D02*
X13082400Y-11454200D01*
X13007400Y-11379200D02*
X13157400Y-11379200D01*
X13582400Y-10554200D02*
X13582400Y-10704200D01*
X13507400Y-10629200D02*
X13657400Y-10629200D01*
X13582400Y-11304200D02*
X13582400Y-11454200D01*
X13507400Y-11379200D02*
X13657400Y-11379200D01*
X14082400Y-10554200D02*
X14082400Y-10704200D01*
X14007400Y-10629200D02*
X14157400Y-10629200D01*
X14082400Y-11304200D02*
X14082400Y-11454200D01*
X14007400Y-11379200D02*
X14157400Y-11379200D01*
X15368900Y-10554450D02*
X15368900Y-10704450D01*
X15293900Y-10629450D02*
X15443900Y-10629450D01*
X15368900Y-11304450D02*
X15368900Y-11454450D01*
X15293900Y-11379450D02*
X15443900Y-11379450D01*
X15868900Y-10554450D02*
X15868900Y-10704450D01*
X15793900Y-10629450D02*
X15943900Y-10629450D01*
X15868900Y-11304450D02*
X15868900Y-11454450D01*
X15793900Y-11379450D02*
X15943900Y-11379450D01*
X16368900Y-10554450D02*
X16368900Y-10704450D01*
X16293900Y-10629450D02*
X16443900Y-10629450D01*
X16368900Y-11304450D02*
X16368900Y-11454450D01*
X16293900Y-11379450D02*
X16443900Y-11379450D01*
X17868900Y-10554450D02*
X17868900Y-10704450D01*
X17793900Y-10629450D02*
X17943900Y-10629450D01*
X17868900Y-11304450D02*
X17868900Y-11454450D01*
X17793900Y-11379450D02*
X17943900Y-11379450D01*
X19064600Y-10554450D02*
X19064600Y-10704450D01*
X18989600Y-10629450D02*
X19139600Y-10629450D01*
X19064600Y-11304450D02*
X19064600Y-11454450D01*
X18989600Y-11379450D02*
X19139600Y-11379450D01*
X19564600Y-10554450D02*
X19564600Y-10704450D01*
X19489600Y-10629450D02*
X19639600Y-10629450D01*
X19564600Y-11304450D02*
X19564600Y-11454450D01*
X19489600Y-11379450D02*
X19639600Y-11379450D01*
X20064600Y-10554450D02*
X20064600Y-10704450D01*
X19989600Y-10629450D02*
X20139600Y-10629450D01*
X20064600Y-11304450D02*
X20064600Y-11454450D01*
X19989600Y-11379450D02*
X20139600Y-11379450D01*
X21564600Y-10554450D02*
X21564600Y-10704450D01*
X21489600Y-10629450D02*
X21639600Y-10629450D01*
X21564600Y-11304450D02*
X21564600Y-11454450D01*
X21489600Y-11379450D02*
X21639600Y-11379450D01*
D13*
X7405774Y-9013274D02*
X7405774Y-8806726D01*
X7199226Y-8806726D01*
X7199226Y-9013274D01*
X7405774Y-9013274D01*
X12904874Y-9013274D02*
X12904874Y-8806726D01*
X12698326Y-8806726D01*
X12698326Y-9013274D01*
X12904874Y-9013274D01*
X16773274Y-9013274D02*
X16773274Y-8806726D01*
X16566726Y-8806726D01*
X16566726Y-9013274D01*
X16773274Y-9013274D01*
X20503274Y-9013274D02*
X20503274Y-8806726D01*
X20296726Y-8806726D01*
X20296726Y-9013274D01*
X20503274Y-9013274D01*
D14*
X6390640Y-8163240D02*
X6555740Y-7998140D01*
X6390640Y-7833040D01*
X6225540Y-7998140D01*
X6390640Y-8163240D01*
X6390640Y-9986960D02*
X6555740Y-9821860D01*
X6390640Y-9656760D01*
X6225540Y-9821860D01*
X6390640Y-9986960D01*
X8214360Y-8163240D02*
X8379460Y-7998140D01*
X8214360Y-7833040D01*
X8049260Y-7998140D01*
X8214360Y-8163240D01*
X8214360Y-9986960D02*
X8379460Y-9821860D01*
X8214360Y-9656760D01*
X8049260Y-9821860D01*
X8214360Y-9986960D01*
X11889740Y-8163240D02*
X12054840Y-7998140D01*
X11889740Y-7833040D01*
X11724640Y-7998140D01*
X11889740Y-8163240D01*
X11889740Y-9986960D02*
X12054840Y-9821860D01*
X11889740Y-9656760D01*
X11724640Y-9821860D01*
X11889740Y-9986960D01*
X13713460Y-8163240D02*
X13878560Y-7998140D01*
X13713460Y-7833040D01*
X13548360Y-7998140D01*
X13713460Y-8163240D01*
X13713460Y-9986960D02*
X13878560Y-9821860D01*
X13713460Y-9656760D01*
X13548360Y-9821860D01*
X13713460Y-9986960D01*
X15758140Y-8163240D02*
X15923240Y-7998140D01*
X15758140Y-7833040D01*
X15593040Y-7998140D01*
X15758140Y-8163240D01*
X15758140Y-9986960D02*
X15923240Y-9821860D01*
X15758140Y-9656760D01*
X15593040Y-9821860D01*
X15758140Y-9986960D01*
X17581860Y-8163240D02*
X17746960Y-7998140D01*
X17581860Y-7833040D01*
X17416760Y-7998140D01*
X17581860Y-8163240D01*
X17581860Y-9986960D02*
X17746960Y-9821860D01*
X17581860Y-9656760D01*
X17416760Y-9821860D01*
X17581860Y-9986960D01*
X19488140Y-8163240D02*
X19653240Y-7998140D01*
X19488140Y-7833040D01*
X19323040Y-7998140D01*
X19488140Y-8163240D01*
X19488140Y-9986960D02*
X19653240Y-9821860D01*
X19488140Y-9656760D01*
X19323040Y-9821860D01*
X19488140Y-9986960D01*
X21311860Y-8163240D02*
X21476960Y-7998140D01*
X21311860Y-7833040D01*
X21146760Y-7998140D01*
X21311860Y-8163240D01*
X21311860Y-9986960D02*
X21476960Y-9821860D01*
X21311860Y-9656760D01*
X21146760Y-9821860D01*
X21311860Y-9986960D01*
D11*
X6161277Y-12571984D02*
X6161277Y-12371984D01*
X6161277Y-12371984D02*
X6208896Y-12371984D01*
X6208896Y-12371984D02*
X6237467Y-12381508D01*
X6237467Y-12381508D02*
X6256515Y-12400555D01*
X6256515Y-12400555D02*
X6266039Y-12419603D01*
X6266039Y-12419603D02*
X6275562Y-12457698D01*
X6275562Y-12457698D02*
X6275562Y-12486269D01*
X6275562Y-12486269D02*
X6266039Y-12524365D01*
X6266039Y-12524365D02*
X6256515Y-12543412D01*
X6256515Y-12543412D02*
X6237467Y-12562460D01*
X6237467Y-12562460D02*
X6208896Y-12571984D01*
X6208896Y-12571984D02*
X6161277Y-12571984D01*
X6361277Y-12571984D02*
X6361277Y-12438650D01*
X6361277Y-12476746D02*
X6370801Y-12457698D01*
X6370801Y-12457698D02*
X6380324Y-12448174D01*
X6380324Y-12448174D02*
X6399372Y-12438650D01*
X6399372Y-12438650D02*
X6418420Y-12438650D01*
X6485086Y-12571984D02*
X6485086Y-12438650D01*
X6485086Y-12371984D02*
X6475562Y-12381508D01*
X6475562Y-12381508D02*
X6485086Y-12391031D01*
X6485086Y-12391031D02*
X6494610Y-12381508D01*
X6494610Y-12381508D02*
X6485086Y-12371984D01*
X6485086Y-12371984D02*
X6485086Y-12391031D01*
X6608896Y-12571984D02*
X6589848Y-12562460D01*
X6589848Y-12562460D02*
X6580324Y-12543412D01*
X6580324Y-12543412D02*
X6580324Y-12371984D01*
X6713658Y-12571984D02*
X6694610Y-12562460D01*
X6694610Y-12562460D02*
X6685086Y-12543412D01*
X6685086Y-12543412D02*
X6685086Y-12371984D01*
X6942229Y-12571984D02*
X6942229Y-12371984D01*
X6942229Y-12371984D02*
X7008896Y-12514841D01*
X7008896Y-12514841D02*
X7075562Y-12371984D01*
X7075562Y-12371984D02*
X7075562Y-12571984D01*
X7256515Y-12571984D02*
X7256515Y-12467222D01*
X7256515Y-12467222D02*
X7246991Y-12448174D01*
X7246991Y-12448174D02*
X7227943Y-12438650D01*
X7227943Y-12438650D02*
X7189848Y-12438650D01*
X7189848Y-12438650D02*
X7170801Y-12448174D01*
X7256515Y-12562460D02*
X7237467Y-12571984D01*
X7237467Y-12571984D02*
X7189848Y-12571984D01*
X7189848Y-12571984D02*
X7170801Y-12562460D01*
X7170801Y-12562460D02*
X7161277Y-12543412D01*
X7161277Y-12543412D02*
X7161277Y-12524365D01*
X7161277Y-12524365D02*
X7170801Y-12505317D01*
X7170801Y-12505317D02*
X7189848Y-12495793D01*
X7189848Y-12495793D02*
X7237467Y-12495793D01*
X7237467Y-12495793D02*
X7256515Y-12486269D01*
X7351753Y-12438650D02*
X7351753Y-12638650D01*
X7351753Y-12448174D02*
X7370801Y-12438650D01*
X7370801Y-12438650D02*
X7408896Y-12438650D01*
X7408896Y-12438650D02*
X7427943Y-12448174D01*
X7427943Y-12448174D02*
X7437467Y-12457698D01*
X7437467Y-12457698D02*
X7446991Y-12476746D01*
X7446991Y-12476746D02*
X7446991Y-12533888D01*
X7446991Y-12533888D02*
X7437467Y-12552936D01*
X7437467Y-12552936D02*
X7427943Y-12562460D01*
X7427943Y-12562460D02*
X7408896Y-12571984D01*
X7408896Y-12571984D02*
X7370801Y-12571984D01*
X7370801Y-12571984D02*
X7351753Y-12562460D01*
X7532705Y-12552936D02*
X7542229Y-12562460D01*
X7542229Y-12562460D02*
X7532705Y-12571984D01*
X7532705Y-12571984D02*
X7523182Y-12562460D01*
X7523182Y-12562460D02*
X7532705Y-12552936D01*
X7532705Y-12552936D02*
X7532705Y-12571984D01*
X7532705Y-12448174D02*
X7542229Y-12457698D01*
X7542229Y-12457698D02*
X7532705Y-12467222D01*
X7532705Y-12467222D02*
X7523182Y-12457698D01*
X7523182Y-12457698D02*
X7532705Y-12448174D01*
X7532705Y-12448174D02*
X7532705Y-12467222D01*
D10*
X5860500Y-12880500D02*
X5900500Y-12920500D01*
X5900500Y-12880500D02*
X5860500Y-12920500D01*
D11*
X6199372Y-12791984D02*
X6218420Y-12791984D01*
X6218420Y-12791984D02*
X6237467Y-12801508D01*
X6237467Y-12801508D02*
X6246991Y-12811031D01*
X6246991Y-12811031D02*
X6256515Y-12830079D01*
X6256515Y-12830079D02*
X6266039Y-12868174D01*
X6266039Y-12868174D02*
X6266039Y-12915793D01*
X6266039Y-12915793D02*
X6256515Y-12953888D01*
X6256515Y-12953888D02*
X6246991Y-12972936D01*
X6246991Y-12972936D02*
X6237467Y-12982460D01*
X6237467Y-12982460D02*
X6218420Y-12991984D01*
X6218420Y-12991984D02*
X6199372Y-12991984D01*
X6199372Y-12991984D02*
X6180324Y-12982460D01*
X6180324Y-12982460D02*
X6170801Y-12972936D01*
X6170801Y-12972936D02*
X6161277Y-12953888D01*
X6161277Y-12953888D02*
X6151753Y-12915793D01*
X6151753Y-12915793D02*
X6151753Y-12868174D01*
X6151753Y-12868174D02*
X6161277Y-12830079D01*
X6161277Y-12830079D02*
X6170801Y-12811031D01*
X6170801Y-12811031D02*
X6180324Y-12801508D01*
X6180324Y-12801508D02*
X6199372Y-12791984D01*
X6351753Y-12972936D02*
X6361277Y-12982460D01*
X6361277Y-12982460D02*
X6351753Y-12991984D01*
X6351753Y-12991984D02*
X6342229Y-12982460D01*
X6342229Y-12982460D02*
X6351753Y-12972936D01*
X6351753Y-12972936D02*
X6351753Y-12991984D01*
X6532705Y-12858650D02*
X6532705Y-12991984D01*
X6485086Y-12782460D02*
X6437467Y-12925317D01*
X6437467Y-12925317D02*
X6561277Y-12925317D01*
X6675562Y-12791984D02*
X6694610Y-12791984D01*
X6694610Y-12791984D02*
X6713658Y-12801508D01*
X6713658Y-12801508D02*
X6723182Y-12811031D01*
X6723182Y-12811031D02*
X6732705Y-12830079D01*
X6732705Y-12830079D02*
X6742229Y-12868174D01*
X6742229Y-12868174D02*
X6742229Y-12915793D01*
X6742229Y-12915793D02*
X6732705Y-12953888D01*
X6732705Y-12953888D02*
X6723182Y-12972936D01*
X6723182Y-12972936D02*
X6713658Y-12982460D01*
X6713658Y-12982460D02*
X6694610Y-12991984D01*
X6694610Y-12991984D02*
X6675562Y-12991984D01*
X6675562Y-12991984D02*
X6656515Y-12982460D01*
X6656515Y-12982460D02*
X6646991Y-12972936D01*
X6646991Y-12972936D02*
X6637467Y-12953888D01*
X6637467Y-12953888D02*
X6627943Y-12915793D01*
X6627943Y-12915793D02*
X6627943Y-12868174D01*
X6627943Y-12868174D02*
X6637467Y-12830079D01*
X6637467Y-12830079D02*
X6646991Y-12811031D01*
X6646991Y-12811031D02*
X6656515Y-12801508D01*
X6656515Y-12801508D02*
X6675562Y-12791984D01*
X6866039Y-12791984D02*
X6885086Y-12791984D01*
X6885086Y-12791984D02*
X6904134Y-12801508D01*
X6904134Y-12801508D02*
X6913658Y-12811031D01*
X6913658Y-12811031D02*
X6923182Y-12830079D01*
X6923182Y-12830079D02*
X6932705Y-12868174D01*
X6932705Y-12868174D02*
X6932705Y-12915793D01*
X6932705Y-12915793D02*
X6923182Y-12953888D01*
X6923182Y-12953888D02*
X6913658Y-12972936D01*
X6913658Y-12972936D02*
X6904134Y-12982460D01*
X6904134Y-12982460D02*
X6885086Y-12991984D01*
X6885086Y-12991984D02*
X6866039Y-12991984D01*
X6866039Y-12991984D02*
X6846991Y-12982460D01*
X6846991Y-12982460D02*
X6837467Y-12972936D01*
X6837467Y-12972936D02*
X6827943Y-12953888D01*
X6827943Y-12953888D02*
X6818420Y-12915793D01*
X6818420Y-12915793D02*
X6818420Y-12868174D01*
X6818420Y-12868174D02*
X6827943Y-12830079D01*
X6827943Y-12830079D02*
X6837467Y-12811031D01*
X6837467Y-12811031D02*
X6846991Y-12801508D01*
X6846991Y-12801508D02*
X6866039Y-12791984D01*
X7018420Y-12991984D02*
X7018420Y-12858650D01*
X7018420Y-12877698D02*
X7027943Y-12868174D01*
X7027943Y-12868174D02*
X7046991Y-12858650D01*
X7046991Y-12858650D02*
X7075563Y-12858650D01*
X7075563Y-12858650D02*
X7094610Y-12868174D01*
X7094610Y-12868174D02*
X7104134Y-12887222D01*
X7104134Y-12887222D02*
X7104134Y-12991984D01*
X7104134Y-12887222D02*
X7113658Y-12868174D01*
X7113658Y-12868174D02*
X7132705Y-12858650D01*
X7132705Y-12858650D02*
X7161277Y-12858650D01*
X7161277Y-12858650D02*
X7180324Y-12868174D01*
X7180324Y-12868174D02*
X7189848Y-12887222D01*
X7189848Y-12887222D02*
X7189848Y-12991984D01*
X7285086Y-12991984D02*
X7285086Y-12858650D01*
X7285086Y-12877698D02*
X7294610Y-12868174D01*
X7294610Y-12868174D02*
X7313658Y-12858650D01*
X7313658Y-12858650D02*
X7342229Y-12858650D01*
X7342229Y-12858650D02*
X7361277Y-12868174D01*
X7361277Y-12868174D02*
X7370801Y-12887222D01*
X7370801Y-12887222D02*
X7370801Y-12991984D01*
X7370801Y-12887222D02*
X7380324Y-12868174D01*
X7380324Y-12868174D02*
X7399372Y-12858650D01*
X7399372Y-12858650D02*
X7427943Y-12858650D01*
X7427943Y-12858650D02*
X7446991Y-12868174D01*
X7446991Y-12868174D02*
X7456515Y-12887222D01*
X7456515Y-12887222D02*
X7456515Y-12991984D01*
X7846991Y-12782460D02*
X7675563Y-13039603D01*
X8104134Y-12791984D02*
X8123182Y-12791984D01*
X8123182Y-12791984D02*
X8142229Y-12801508D01*
X8142229Y-12801508D02*
X8151753Y-12811031D01*
X8151753Y-12811031D02*
X8161277Y-12830079D01*
X8161277Y-12830079D02*
X8170801Y-12868174D01*
X8170801Y-12868174D02*
X8170801Y-12915793D01*
X8170801Y-12915793D02*
X8161277Y-12953888D01*
X8161277Y-12953888D02*
X8151753Y-12972936D01*
X8151753Y-12972936D02*
X8142229Y-12982460D01*
X8142229Y-12982460D02*
X8123182Y-12991984D01*
X8123182Y-12991984D02*
X8104134Y-12991984D01*
X8104134Y-12991984D02*
X8085086Y-12982460D01*
X8085086Y-12982460D02*
X8075563Y-12972936D01*
X8075563Y-12972936D02*
X8066039Y-12953888D01*
X8066039Y-12953888D02*
X8056515Y-12915793D01*
X8056515Y-12915793D02*
X8056515Y-12868174D01*
X8056515Y-12868174D02*
X8066039Y-12830079D01*
X8066039Y-12830079D02*
X8075563Y-12811031D01*
X8075563Y-12811031D02*
X8085086Y-12801508D01*
X8085086Y-12801508D02*
X8104134Y-12791984D01*
X8256515Y-12972936D02*
X8266039Y-12982460D01*
X8266039Y-12982460D02*
X8256515Y-12991984D01*
X8256515Y-12991984D02*
X8246991Y-12982460D01*
X8246991Y-12982460D02*
X8256515Y-12972936D01*
X8256515Y-12972936D02*
X8256515Y-12991984D01*
X8389848Y-12791984D02*
X8408896Y-12791984D01*
X8408896Y-12791984D02*
X8427944Y-12801508D01*
X8427944Y-12801508D02*
X8437468Y-12811031D01*
X8437468Y-12811031D02*
X8446991Y-12830079D01*
X8446991Y-12830079D02*
X8456515Y-12868174D01*
X8456515Y-12868174D02*
X8456515Y-12915793D01*
X8456515Y-12915793D02*
X8446991Y-12953888D01*
X8446991Y-12953888D02*
X8437468Y-12972936D01*
X8437468Y-12972936D02*
X8427944Y-12982460D01*
X8427944Y-12982460D02*
X8408896Y-12991984D01*
X8408896Y-12991984D02*
X8389848Y-12991984D01*
X8389848Y-12991984D02*
X8370801Y-12982460D01*
X8370801Y-12982460D02*
X8361277Y-12972936D01*
X8361277Y-12972936D02*
X8351753Y-12953888D01*
X8351753Y-12953888D02*
X8342229Y-12915793D01*
X8342229Y-12915793D02*
X8342229Y-12868174D01*
X8342229Y-12868174D02*
X8351753Y-12830079D01*
X8351753Y-12830079D02*
X8361277Y-12811031D01*
X8361277Y-12811031D02*
X8370801Y-12801508D01*
X8370801Y-12801508D02*
X8389848Y-12791984D01*
X8646991Y-12991984D02*
X8532706Y-12991984D01*
X8589848Y-12991984D02*
X8589848Y-12791984D01*
X8589848Y-12791984D02*
X8570801Y-12820555D01*
X8570801Y-12820555D02*
X8551753Y-12839603D01*
X8551753Y-12839603D02*
X8532706Y-12849127D01*
X8827944Y-12791984D02*
X8732706Y-12791984D01*
X8732706Y-12791984D02*
X8723182Y-12887222D01*
X8723182Y-12887222D02*
X8732706Y-12877698D01*
X8732706Y-12877698D02*
X8751753Y-12868174D01*
X8751753Y-12868174D02*
X8799372Y-12868174D01*
X8799372Y-12868174D02*
X8818420Y-12877698D01*
X8818420Y-12877698D02*
X8827944Y-12887222D01*
X8827944Y-12887222D02*
X8837468Y-12906269D01*
X8837468Y-12906269D02*
X8837468Y-12953888D01*
X8837468Y-12953888D02*
X8827944Y-12972936D01*
X8827944Y-12972936D02*
X8818420Y-12982460D01*
X8818420Y-12982460D02*
X8799372Y-12991984D01*
X8799372Y-12991984D02*
X8751753Y-12991984D01*
X8751753Y-12991984D02*
X8732706Y-12982460D01*
X8732706Y-12982460D02*
X8723182Y-12972936D01*
X8904134Y-12791984D02*
X9037468Y-12791984D01*
X9037468Y-12791984D02*
X8951753Y-12991984D01*
X9104134Y-12791984D02*
X9104134Y-12830079D01*
X9180325Y-12791984D02*
X9180325Y-12830079D01*
X9475563Y-13068174D02*
X9466039Y-13058650D01*
X9466039Y-13058650D02*
X9446991Y-13030079D01*
X9446991Y-13030079D02*
X9437468Y-13011031D01*
X9437468Y-13011031D02*
X9427944Y-12982460D01*
X9427944Y-12982460D02*
X9418420Y-12934841D01*
X9418420Y-12934841D02*
X9418420Y-12896746D01*
X9418420Y-12896746D02*
X9427944Y-12849127D01*
X9427944Y-12849127D02*
X9437468Y-12820555D01*
X9437468Y-12820555D02*
X9446991Y-12801508D01*
X9446991Y-12801508D02*
X9466039Y-12772936D01*
X9466039Y-12772936D02*
X9475563Y-12763412D01*
X9532706Y-12791984D02*
X9656515Y-12791984D01*
X9656515Y-12791984D02*
X9589849Y-12868174D01*
X9589849Y-12868174D02*
X9618420Y-12868174D01*
X9618420Y-12868174D02*
X9637468Y-12877698D01*
X9637468Y-12877698D02*
X9646991Y-12887222D01*
X9646991Y-12887222D02*
X9656515Y-12906269D01*
X9656515Y-12906269D02*
X9656515Y-12953888D01*
X9656515Y-12953888D02*
X9646991Y-12972936D01*
X9646991Y-12972936D02*
X9637468Y-12982460D01*
X9637468Y-12982460D02*
X9618420Y-12991984D01*
X9618420Y-12991984D02*
X9561277Y-12991984D01*
X9561277Y-12991984D02*
X9542230Y-12982460D01*
X9542230Y-12982460D02*
X9532706Y-12972936D01*
X9894611Y-12991984D02*
X9894611Y-12791984D01*
X9980325Y-12991984D02*
X9980325Y-12887222D01*
X9980325Y-12887222D02*
X9970801Y-12868174D01*
X9970801Y-12868174D02*
X9951753Y-12858650D01*
X9951753Y-12858650D02*
X9923182Y-12858650D01*
X9923182Y-12858650D02*
X9904134Y-12868174D01*
X9904134Y-12868174D02*
X9894611Y-12877698D01*
X10104134Y-12991984D02*
X10085087Y-12982460D01*
X10085087Y-12982460D02*
X10075563Y-12972936D01*
X10075563Y-12972936D02*
X10066039Y-12953888D01*
X10066039Y-12953888D02*
X10066039Y-12896746D01*
X10066039Y-12896746D02*
X10075563Y-12877698D01*
X10075563Y-12877698D02*
X10085087Y-12868174D01*
X10085087Y-12868174D02*
X10104134Y-12858650D01*
X10104134Y-12858650D02*
X10132706Y-12858650D01*
X10132706Y-12858650D02*
X10151753Y-12868174D01*
X10151753Y-12868174D02*
X10161277Y-12877698D01*
X10161277Y-12877698D02*
X10170801Y-12896746D01*
X10170801Y-12896746D02*
X10170801Y-12953888D01*
X10170801Y-12953888D02*
X10161277Y-12972936D01*
X10161277Y-12972936D02*
X10151753Y-12982460D01*
X10151753Y-12982460D02*
X10132706Y-12991984D01*
X10132706Y-12991984D02*
X10104134Y-12991984D01*
X10285087Y-12991984D02*
X10266039Y-12982460D01*
X10266039Y-12982460D02*
X10256515Y-12963412D01*
X10256515Y-12963412D02*
X10256515Y-12791984D01*
X10437468Y-12982460D02*
X10418420Y-12991984D01*
X10418420Y-12991984D02*
X10380325Y-12991984D01*
X10380325Y-12991984D02*
X10361277Y-12982460D01*
X10361277Y-12982460D02*
X10351753Y-12963412D01*
X10351753Y-12963412D02*
X10351753Y-12887222D01*
X10351753Y-12887222D02*
X10361277Y-12868174D01*
X10361277Y-12868174D02*
X10380325Y-12858650D01*
X10380325Y-12858650D02*
X10418420Y-12858650D01*
X10418420Y-12858650D02*
X10437468Y-12868174D01*
X10437468Y-12868174D02*
X10446992Y-12887222D01*
X10446992Y-12887222D02*
X10446992Y-12906269D01*
X10446992Y-12906269D02*
X10351753Y-12925317D01*
X10523182Y-12982460D02*
X10542230Y-12991984D01*
X10542230Y-12991984D02*
X10580325Y-12991984D01*
X10580325Y-12991984D02*
X10599373Y-12982460D01*
X10599373Y-12982460D02*
X10608896Y-12963412D01*
X10608896Y-12963412D02*
X10608896Y-12953888D01*
X10608896Y-12953888D02*
X10599373Y-12934841D01*
X10599373Y-12934841D02*
X10580325Y-12925317D01*
X10580325Y-12925317D02*
X10551753Y-12925317D01*
X10551753Y-12925317D02*
X10532706Y-12915793D01*
X10532706Y-12915793D02*
X10523182Y-12896746D01*
X10523182Y-12896746D02*
X10523182Y-12887222D01*
X10523182Y-12887222D02*
X10532706Y-12868174D01*
X10532706Y-12868174D02*
X10551753Y-12858650D01*
X10551753Y-12858650D02*
X10580325Y-12858650D01*
X10580325Y-12858650D02*
X10599373Y-12868174D01*
X10675563Y-13068174D02*
X10685087Y-13058650D01*
X10685087Y-13058650D02*
X10704134Y-13030079D01*
X10704134Y-13030079D02*
X10713658Y-13011031D01*
X10713658Y-13011031D02*
X10723182Y-12982460D01*
X10723182Y-12982460D02*
X10732706Y-12934841D01*
X10732706Y-12934841D02*
X10732706Y-12896746D01*
X10732706Y-12896746D02*
X10723182Y-12849127D01*
X10723182Y-12849127D02*
X10713658Y-12820555D01*
X10713658Y-12820555D02*
X10704134Y-12801508D01*
X10704134Y-12801508D02*
X10685087Y-12772936D01*
X10685087Y-12772936D02*
X10675563Y-12763412D01*
D10*
X5900500Y-13164500D02*
G75*
G03*
X5900500Y-13164500I-50000J0D01*
G01*
D11*
X6266039Y-13255984D02*
X6151753Y-13255984D01*
X6208896Y-13255984D02*
X6208896Y-13055984D01*
X6208896Y-13055984D02*
X6189848Y-13084555D01*
X6189848Y-13084555D02*
X6170801Y-13103603D01*
X6170801Y-13103603D02*
X6151753Y-13113127D01*
X6351753Y-13236936D02*
X6361277Y-13246460D01*
X6361277Y-13246460D02*
X6351753Y-13255984D01*
X6351753Y-13255984D02*
X6342229Y-13246460D01*
X6342229Y-13246460D02*
X6351753Y-13236936D01*
X6351753Y-13236936D02*
X6351753Y-13255984D01*
X6485086Y-13055984D02*
X6504134Y-13055984D01*
X6504134Y-13055984D02*
X6523182Y-13065508D01*
X6523182Y-13065508D02*
X6532705Y-13075031D01*
X6532705Y-13075031D02*
X6542229Y-13094079D01*
X6542229Y-13094079D02*
X6551753Y-13132174D01*
X6551753Y-13132174D02*
X6551753Y-13179793D01*
X6551753Y-13179793D02*
X6542229Y-13217888D01*
X6542229Y-13217888D02*
X6532705Y-13236936D01*
X6532705Y-13236936D02*
X6523182Y-13246460D01*
X6523182Y-13246460D02*
X6504134Y-13255984D01*
X6504134Y-13255984D02*
X6485086Y-13255984D01*
X6485086Y-13255984D02*
X6466039Y-13246460D01*
X6466039Y-13246460D02*
X6456515Y-13236936D01*
X6456515Y-13236936D02*
X6446991Y-13217888D01*
X6446991Y-13217888D02*
X6437467Y-13179793D01*
X6437467Y-13179793D02*
X6437467Y-13132174D01*
X6437467Y-13132174D02*
X6446991Y-13094079D01*
X6446991Y-13094079D02*
X6456515Y-13075031D01*
X6456515Y-13075031D02*
X6466039Y-13065508D01*
X6466039Y-13065508D02*
X6485086Y-13055984D01*
X6675562Y-13055984D02*
X6694610Y-13055984D01*
X6694610Y-13055984D02*
X6713658Y-13065508D01*
X6713658Y-13065508D02*
X6723182Y-13075031D01*
X6723182Y-13075031D02*
X6732705Y-13094079D01*
X6732705Y-13094079D02*
X6742229Y-13132174D01*
X6742229Y-13132174D02*
X6742229Y-13179793D01*
X6742229Y-13179793D02*
X6732705Y-13217888D01*
X6732705Y-13217888D02*
X6723182Y-13236936D01*
X6723182Y-13236936D02*
X6713658Y-13246460D01*
X6713658Y-13246460D02*
X6694610Y-13255984D01*
X6694610Y-13255984D02*
X6675562Y-13255984D01*
X6675562Y-13255984D02*
X6656515Y-13246460D01*
X6656515Y-13246460D02*
X6646991Y-13236936D01*
X6646991Y-13236936D02*
X6637467Y-13217888D01*
X6637467Y-13217888D02*
X6627943Y-13179793D01*
X6627943Y-13179793D02*
X6627943Y-13132174D01*
X6627943Y-13132174D02*
X6637467Y-13094079D01*
X6637467Y-13094079D02*
X6646991Y-13075031D01*
X6646991Y-13075031D02*
X6656515Y-13065508D01*
X6656515Y-13065508D02*
X6675562Y-13055984D01*
X6866039Y-13055984D02*
X6885086Y-13055984D01*
X6885086Y-13055984D02*
X6904134Y-13065508D01*
X6904134Y-13065508D02*
X6913658Y-13075031D01*
X6913658Y-13075031D02*
X6923182Y-13094079D01*
X6923182Y-13094079D02*
X6932705Y-13132174D01*
X6932705Y-13132174D02*
X6932705Y-13179793D01*
X6932705Y-13179793D02*
X6923182Y-13217888D01*
X6923182Y-13217888D02*
X6913658Y-13236936D01*
X6913658Y-13236936D02*
X6904134Y-13246460D01*
X6904134Y-13246460D02*
X6885086Y-13255984D01*
X6885086Y-13255984D02*
X6866039Y-13255984D01*
X6866039Y-13255984D02*
X6846991Y-13246460D01*
X6846991Y-13246460D02*
X6837467Y-13236936D01*
X6837467Y-13236936D02*
X6827943Y-13217888D01*
X6827943Y-13217888D02*
X6818420Y-13179793D01*
X6818420Y-13179793D02*
X6818420Y-13132174D01*
X6818420Y-13132174D02*
X6827943Y-13094079D01*
X6827943Y-13094079D02*
X6837467Y-13075031D01*
X6837467Y-13075031D02*
X6846991Y-13065508D01*
X6846991Y-13065508D02*
X6866039Y-13055984D01*
X7018420Y-13255984D02*
X7018420Y-13122650D01*
X7018420Y-13141698D02*
X7027943Y-13132174D01*
X7027943Y-13132174D02*
X7046991Y-13122650D01*
X7046991Y-13122650D02*
X7075563Y-13122650D01*
X7075563Y-13122650D02*
X7094610Y-13132174D01*
X7094610Y-13132174D02*
X7104134Y-13151222D01*
X7104134Y-13151222D02*
X7104134Y-13255984D01*
X7104134Y-13151222D02*
X7113658Y-13132174D01*
X7113658Y-13132174D02*
X7132705Y-13122650D01*
X7132705Y-13122650D02*
X7161277Y-13122650D01*
X7161277Y-13122650D02*
X7180324Y-13132174D01*
X7180324Y-13132174D02*
X7189848Y-13151222D01*
X7189848Y-13151222D02*
X7189848Y-13255984D01*
X7285086Y-13255984D02*
X7285086Y-13122650D01*
X7285086Y-13141698D02*
X7294610Y-13132174D01*
X7294610Y-13132174D02*
X7313658Y-13122650D01*
X7313658Y-13122650D02*
X7342229Y-13122650D01*
X7342229Y-13122650D02*
X7361277Y-13132174D01*
X7361277Y-13132174D02*
X7370801Y-13151222D01*
X7370801Y-13151222D02*
X7370801Y-13255984D01*
X7370801Y-13151222D02*
X7380324Y-13132174D01*
X7380324Y-13132174D02*
X7399372Y-13122650D01*
X7399372Y-13122650D02*
X7427943Y-13122650D01*
X7427943Y-13122650D02*
X7446991Y-13132174D01*
X7446991Y-13132174D02*
X7456515Y-13151222D01*
X7456515Y-13151222D02*
X7456515Y-13255984D01*
X7846991Y-13046460D02*
X7675563Y-13303603D01*
X8104134Y-13055984D02*
X8123182Y-13055984D01*
X8123182Y-13055984D02*
X8142229Y-13065508D01*
X8142229Y-13065508D02*
X8151753Y-13075031D01*
X8151753Y-13075031D02*
X8161277Y-13094079D01*
X8161277Y-13094079D02*
X8170801Y-13132174D01*
X8170801Y-13132174D02*
X8170801Y-13179793D01*
X8170801Y-13179793D02*
X8161277Y-13217888D01*
X8161277Y-13217888D02*
X8151753Y-13236936D01*
X8151753Y-13236936D02*
X8142229Y-13246460D01*
X8142229Y-13246460D02*
X8123182Y-13255984D01*
X8123182Y-13255984D02*
X8104134Y-13255984D01*
X8104134Y-13255984D02*
X8085086Y-13246460D01*
X8085086Y-13246460D02*
X8075563Y-13236936D01*
X8075563Y-13236936D02*
X8066039Y-13217888D01*
X8066039Y-13217888D02*
X8056515Y-13179793D01*
X8056515Y-13179793D02*
X8056515Y-13132174D01*
X8056515Y-13132174D02*
X8066039Y-13094079D01*
X8066039Y-13094079D02*
X8075563Y-13075031D01*
X8075563Y-13075031D02*
X8085086Y-13065508D01*
X8085086Y-13065508D02*
X8104134Y-13055984D01*
X8256515Y-13236936D02*
X8266039Y-13246460D01*
X8266039Y-13246460D02*
X8256515Y-13255984D01*
X8256515Y-13255984D02*
X8246991Y-13246460D01*
X8246991Y-13246460D02*
X8256515Y-13236936D01*
X8256515Y-13236936D02*
X8256515Y-13255984D01*
X8389848Y-13055984D02*
X8408896Y-13055984D01*
X8408896Y-13055984D02*
X8427944Y-13065508D01*
X8427944Y-13065508D02*
X8437468Y-13075031D01*
X8437468Y-13075031D02*
X8446991Y-13094079D01*
X8446991Y-13094079D02*
X8456515Y-13132174D01*
X8456515Y-13132174D02*
X8456515Y-13179793D01*
X8456515Y-13179793D02*
X8446991Y-13217888D01*
X8446991Y-13217888D02*
X8437468Y-13236936D01*
X8437468Y-13236936D02*
X8427944Y-13246460D01*
X8427944Y-13246460D02*
X8408896Y-13255984D01*
X8408896Y-13255984D02*
X8389848Y-13255984D01*
X8389848Y-13255984D02*
X8370801Y-13246460D01*
X8370801Y-13246460D02*
X8361277Y-13236936D01*
X8361277Y-13236936D02*
X8351753Y-13217888D01*
X8351753Y-13217888D02*
X8342229Y-13179793D01*
X8342229Y-13179793D02*
X8342229Y-13132174D01*
X8342229Y-13132174D02*
X8351753Y-13094079D01*
X8351753Y-13094079D02*
X8361277Y-13075031D01*
X8361277Y-13075031D02*
X8370801Y-13065508D01*
X8370801Y-13065508D02*
X8389848Y-13055984D01*
X8523182Y-13055984D02*
X8646991Y-13055984D01*
X8646991Y-13055984D02*
X8580325Y-13132174D01*
X8580325Y-13132174D02*
X8608896Y-13132174D01*
X8608896Y-13132174D02*
X8627944Y-13141698D01*
X8627944Y-13141698D02*
X8637468Y-13151222D01*
X8637468Y-13151222D02*
X8646991Y-13170269D01*
X8646991Y-13170269D02*
X8646991Y-13217888D01*
X8646991Y-13217888D02*
X8637468Y-13236936D01*
X8637468Y-13236936D02*
X8627944Y-13246460D01*
X8627944Y-13246460D02*
X8608896Y-13255984D01*
X8608896Y-13255984D02*
X8551753Y-13255984D01*
X8551753Y-13255984D02*
X8532706Y-13246460D01*
X8532706Y-13246460D02*
X8523182Y-13236936D01*
X8742229Y-13255984D02*
X8780325Y-13255984D01*
X8780325Y-13255984D02*
X8799372Y-13246460D01*
X8799372Y-13246460D02*
X8808896Y-13236936D01*
X8808896Y-13236936D02*
X8827944Y-13208365D01*
X8827944Y-13208365D02*
X8837468Y-13170269D01*
X8837468Y-13170269D02*
X8837468Y-13094079D01*
X8837468Y-13094079D02*
X8827944Y-13075031D01*
X8827944Y-13075031D02*
X8818420Y-13065508D01*
X8818420Y-13065508D02*
X8799372Y-13055984D01*
X8799372Y-13055984D02*
X8761277Y-13055984D01*
X8761277Y-13055984D02*
X8742229Y-13065508D01*
X8742229Y-13065508D02*
X8732706Y-13075031D01*
X8732706Y-13075031D02*
X8723182Y-13094079D01*
X8723182Y-13094079D02*
X8723182Y-13141698D01*
X8723182Y-13141698D02*
X8732706Y-13160746D01*
X8732706Y-13160746D02*
X8742229Y-13170269D01*
X8742229Y-13170269D02*
X8761277Y-13179793D01*
X8761277Y-13179793D02*
X8799372Y-13179793D01*
X8799372Y-13179793D02*
X8818420Y-13170269D01*
X8818420Y-13170269D02*
X8827944Y-13160746D01*
X8827944Y-13160746D02*
X8837468Y-13141698D01*
X9008896Y-13122650D02*
X9008896Y-13255984D01*
X8961277Y-13046460D02*
X8913658Y-13189317D01*
X8913658Y-13189317D02*
X9037468Y-13189317D01*
X9104134Y-13055984D02*
X9104134Y-13094079D01*
X9180325Y-13055984D02*
X9180325Y-13094079D01*
X9475563Y-13332174D02*
X9466039Y-13322650D01*
X9466039Y-13322650D02*
X9446991Y-13294079D01*
X9446991Y-13294079D02*
X9437468Y-13275031D01*
X9437468Y-13275031D02*
X9427944Y-13246460D01*
X9427944Y-13246460D02*
X9418420Y-13198841D01*
X9418420Y-13198841D02*
X9418420Y-13160746D01*
X9418420Y-13160746D02*
X9427944Y-13113127D01*
X9427944Y-13113127D02*
X9437468Y-13084555D01*
X9437468Y-13084555D02*
X9446991Y-13065508D01*
X9446991Y-13065508D02*
X9466039Y-13036936D01*
X9466039Y-13036936D02*
X9475563Y-13027412D01*
X9580325Y-13141698D02*
X9561277Y-13132174D01*
X9561277Y-13132174D02*
X9551753Y-13122650D01*
X9551753Y-13122650D02*
X9542230Y-13103603D01*
X9542230Y-13103603D02*
X9542230Y-13094079D01*
X9542230Y-13094079D02*
X9551753Y-13075031D01*
X9551753Y-13075031D02*
X9561277Y-13065508D01*
X9561277Y-13065508D02*
X9580325Y-13055984D01*
X9580325Y-13055984D02*
X9618420Y-13055984D01*
X9618420Y-13055984D02*
X9637468Y-13065508D01*
X9637468Y-13065508D02*
X9646991Y-13075031D01*
X9646991Y-13075031D02*
X9656515Y-13094079D01*
X9656515Y-13094079D02*
X9656515Y-13103603D01*
X9656515Y-13103603D02*
X9646991Y-13122650D01*
X9646991Y-13122650D02*
X9637468Y-13132174D01*
X9637468Y-13132174D02*
X9618420Y-13141698D01*
X9618420Y-13141698D02*
X9580325Y-13141698D01*
X9580325Y-13141698D02*
X9561277Y-13151222D01*
X9561277Y-13151222D02*
X9551753Y-13160746D01*
X9551753Y-13160746D02*
X9542230Y-13179793D01*
X9542230Y-13179793D02*
X9542230Y-13217888D01*
X9542230Y-13217888D02*
X9551753Y-13236936D01*
X9551753Y-13236936D02*
X9561277Y-13246460D01*
X9561277Y-13246460D02*
X9580325Y-13255984D01*
X9580325Y-13255984D02*
X9618420Y-13255984D01*
X9618420Y-13255984D02*
X9637468Y-13246460D01*
X9637468Y-13246460D02*
X9646991Y-13236936D01*
X9646991Y-13236936D02*
X9656515Y-13217888D01*
X9656515Y-13217888D02*
X9656515Y-13179793D01*
X9656515Y-13179793D02*
X9646991Y-13160746D01*
X9646991Y-13160746D02*
X9637468Y-13151222D01*
X9637468Y-13151222D02*
X9618420Y-13141698D01*
X9894611Y-13255984D02*
X9894611Y-13055984D01*
X9980325Y-13255984D02*
X9980325Y-13151222D01*
X9980325Y-13151222D02*
X9970801Y-13132174D01*
X9970801Y-13132174D02*
X9951753Y-13122650D01*
X9951753Y-13122650D02*
X9923182Y-13122650D01*
X9923182Y-13122650D02*
X9904134Y-13132174D01*
X9904134Y-13132174D02*
X9894611Y-13141698D01*
X10104134Y-13255984D02*
X10085087Y-13246460D01*
X10085087Y-13246460D02*
X10075563Y-13236936D01*
X10075563Y-13236936D02*
X10066039Y-13217888D01*
X10066039Y-13217888D02*
X10066039Y-13160746D01*
X10066039Y-13160746D02*
X10075563Y-13141698D01*
X10075563Y-13141698D02*
X10085087Y-13132174D01*
X10085087Y-13132174D02*
X10104134Y-13122650D01*
X10104134Y-13122650D02*
X10132706Y-13122650D01*
X10132706Y-13122650D02*
X10151753Y-13132174D01*
X10151753Y-13132174D02*
X10161277Y-13141698D01*
X10161277Y-13141698D02*
X10170801Y-13160746D01*
X10170801Y-13160746D02*
X10170801Y-13217888D01*
X10170801Y-13217888D02*
X10161277Y-13236936D01*
X10161277Y-13236936D02*
X10151753Y-13246460D01*
X10151753Y-13246460D02*
X10132706Y-13255984D01*
X10132706Y-13255984D02*
X10104134Y-13255984D01*
X10285087Y-13255984D02*
X10266039Y-13246460D01*
X10266039Y-13246460D02*
X10256515Y-13227412D01*
X10256515Y-13227412D02*
X10256515Y-13055984D01*
X10437468Y-13246460D02*
X10418420Y-13255984D01*
X10418420Y-13255984D02*
X10380325Y-13255984D01*
X10380325Y-13255984D02*
X10361277Y-13246460D01*
X10361277Y-13246460D02*
X10351753Y-13227412D01*
X10351753Y-13227412D02*
X10351753Y-13151222D01*
X10351753Y-13151222D02*
X10361277Y-13132174D01*
X10361277Y-13132174D02*
X10380325Y-13122650D01*
X10380325Y-13122650D02*
X10418420Y-13122650D01*
X10418420Y-13122650D02*
X10437468Y-13132174D01*
X10437468Y-13132174D02*
X10446992Y-13151222D01*
X10446992Y-13151222D02*
X10446992Y-13170269D01*
X10446992Y-13170269D02*
X10351753Y-13189317D01*
X10523182Y-13246460D02*
X10542230Y-13255984D01*
X10542230Y-13255984D02*
X10580325Y-13255984D01*
X10580325Y-13255984D02*
X10599373Y-13246460D01*
X10599373Y-13246460D02*
X10608896Y-13227412D01*
X10608896Y-13227412D02*
X10608896Y-13217888D01*
X10608896Y-13217888D02*
X10599373Y-13198841D01*
X10599373Y-13198841D02*
X10580325Y-13189317D01*
X10580325Y-13189317D02*
X10551753Y-13189317D01*
X10551753Y-13189317D02*
X10532706Y-13179793D01*
X10532706Y-13179793D02*
X10523182Y-13160746D01*
X10523182Y-13160746D02*
X10523182Y-13151222D01*
X10523182Y-13151222D02*
X10532706Y-13132174D01*
X10532706Y-13132174D02*
X10551753Y-13122650D01*
X10551753Y-13122650D02*
X10580325Y-13122650D01*
X10580325Y-13122650D02*
X10599373Y-13132174D01*
X10675563Y-13332174D02*
X10685087Y-13322650D01*
X10685087Y-13322650D02*
X10704134Y-13294079D01*
X10704134Y-13294079D02*
X10713658Y-13275031D01*
X10713658Y-13275031D02*
X10723182Y-13246460D01*
X10723182Y-13246460D02*
X10732706Y-13198841D01*
X10732706Y-13198841D02*
X10732706Y-13160746D01*
X10732706Y-13160746D02*
X10723182Y-13113127D01*
X10723182Y-13113127D02*
X10713658Y-13084555D01*
X10713658Y-13084555D02*
X10704134Y-13065508D01*
X10704134Y-13065508D02*
X10685087Y-13036936D01*
X10685087Y-13036936D02*
X10675563Y-13027412D01*
D12*
X5825500Y-13353500D02*
X5825500Y-13503500D01*
X5750500Y-13428500D02*
X5900500Y-13428500D01*
D11*
X6266039Y-13519984D02*
X6151753Y-13519984D01*
X6208896Y-13519984D02*
X6208896Y-13319984D01*
X6208896Y-13319984D02*
X6189848Y-13348555D01*
X6189848Y-13348555D02*
X6170801Y-13367603D01*
X6170801Y-13367603D02*
X6151753Y-13377127D01*
X6351753Y-13500936D02*
X6361277Y-13510460D01*
X6361277Y-13510460D02*
X6351753Y-13519984D01*
X6351753Y-13519984D02*
X6342229Y-13510460D01*
X6342229Y-13510460D02*
X6351753Y-13500936D01*
X6351753Y-13500936D02*
X6351753Y-13519984D01*
X6542229Y-13319984D02*
X6446991Y-13319984D01*
X6446991Y-13319984D02*
X6437467Y-13415222D01*
X6437467Y-13415222D02*
X6446991Y-13405698D01*
X6446991Y-13405698D02*
X6466039Y-13396174D01*
X6466039Y-13396174D02*
X6513658Y-13396174D01*
X6513658Y-13396174D02*
X6532705Y-13405698D01*
X6532705Y-13405698D02*
X6542229Y-13415222D01*
X6542229Y-13415222D02*
X6551753Y-13434269D01*
X6551753Y-13434269D02*
X6551753Y-13481888D01*
X6551753Y-13481888D02*
X6542229Y-13500936D01*
X6542229Y-13500936D02*
X6532705Y-13510460D01*
X6532705Y-13510460D02*
X6513658Y-13519984D01*
X6513658Y-13519984D02*
X6466039Y-13519984D01*
X6466039Y-13519984D02*
X6446991Y-13510460D01*
X6446991Y-13510460D02*
X6437467Y-13500936D01*
X6675562Y-13319984D02*
X6694610Y-13319984D01*
X6694610Y-13319984D02*
X6713658Y-13329508D01*
X6713658Y-13329508D02*
X6723182Y-13339031D01*
X6723182Y-13339031D02*
X6732705Y-13358079D01*
X6732705Y-13358079D02*
X6742229Y-13396174D01*
X6742229Y-13396174D02*
X6742229Y-13443793D01*
X6742229Y-13443793D02*
X6732705Y-13481888D01*
X6732705Y-13481888D02*
X6723182Y-13500936D01*
X6723182Y-13500936D02*
X6713658Y-13510460D01*
X6713658Y-13510460D02*
X6694610Y-13519984D01*
X6694610Y-13519984D02*
X6675562Y-13519984D01*
X6675562Y-13519984D02*
X6656515Y-13510460D01*
X6656515Y-13510460D02*
X6646991Y-13500936D01*
X6646991Y-13500936D02*
X6637467Y-13481888D01*
X6637467Y-13481888D02*
X6627943Y-13443793D01*
X6627943Y-13443793D02*
X6627943Y-13396174D01*
X6627943Y-13396174D02*
X6637467Y-13358079D01*
X6637467Y-13358079D02*
X6646991Y-13339031D01*
X6646991Y-13339031D02*
X6656515Y-13329508D01*
X6656515Y-13329508D02*
X6675562Y-13319984D01*
X6866039Y-13319984D02*
X6885086Y-13319984D01*
X6885086Y-13319984D02*
X6904134Y-13329508D01*
X6904134Y-13329508D02*
X6913658Y-13339031D01*
X6913658Y-13339031D02*
X6923182Y-13358079D01*
X6923182Y-13358079D02*
X6932705Y-13396174D01*
X6932705Y-13396174D02*
X6932705Y-13443793D01*
X6932705Y-13443793D02*
X6923182Y-13481888D01*
X6923182Y-13481888D02*
X6913658Y-13500936D01*
X6913658Y-13500936D02*
X6904134Y-13510460D01*
X6904134Y-13510460D02*
X6885086Y-13519984D01*
X6885086Y-13519984D02*
X6866039Y-13519984D01*
X6866039Y-13519984D02*
X6846991Y-13510460D01*
X6846991Y-13510460D02*
X6837467Y-13500936D01*
X6837467Y-13500936D02*
X6827943Y-13481888D01*
X6827943Y-13481888D02*
X6818420Y-13443793D01*
X6818420Y-13443793D02*
X6818420Y-13396174D01*
X6818420Y-13396174D02*
X6827943Y-13358079D01*
X6827943Y-13358079D02*
X6837467Y-13339031D01*
X6837467Y-13339031D02*
X6846991Y-13329508D01*
X6846991Y-13329508D02*
X6866039Y-13319984D01*
X7018420Y-13519984D02*
X7018420Y-13386650D01*
X7018420Y-13405698D02*
X7027943Y-13396174D01*
X7027943Y-13396174D02*
X7046991Y-13386650D01*
X7046991Y-13386650D02*
X7075563Y-13386650D01*
X7075563Y-13386650D02*
X7094610Y-13396174D01*
X7094610Y-13396174D02*
X7104134Y-13415222D01*
X7104134Y-13415222D02*
X7104134Y-13519984D01*
X7104134Y-13415222D02*
X7113658Y-13396174D01*
X7113658Y-13396174D02*
X7132705Y-13386650D01*
X7132705Y-13386650D02*
X7161277Y-13386650D01*
X7161277Y-13386650D02*
X7180324Y-13396174D01*
X7180324Y-13396174D02*
X7189848Y-13415222D01*
X7189848Y-13415222D02*
X7189848Y-13519984D01*
X7285086Y-13519984D02*
X7285086Y-13386650D01*
X7285086Y-13405698D02*
X7294610Y-13396174D01*
X7294610Y-13396174D02*
X7313658Y-13386650D01*
X7313658Y-13386650D02*
X7342229Y-13386650D01*
X7342229Y-13386650D02*
X7361277Y-13396174D01*
X7361277Y-13396174D02*
X7370801Y-13415222D01*
X7370801Y-13415222D02*
X7370801Y-13519984D01*
X7370801Y-13415222D02*
X7380324Y-13396174D01*
X7380324Y-13396174D02*
X7399372Y-13386650D01*
X7399372Y-13386650D02*
X7427943Y-13386650D01*
X7427943Y-13386650D02*
X7446991Y-13396174D01*
X7446991Y-13396174D02*
X7456515Y-13415222D01*
X7456515Y-13415222D02*
X7456515Y-13519984D01*
X7846991Y-13310460D02*
X7675563Y-13567603D01*
X8104134Y-13319984D02*
X8123182Y-13319984D01*
X8123182Y-13319984D02*
X8142229Y-13329508D01*
X8142229Y-13329508D02*
X8151753Y-13339031D01*
X8151753Y-13339031D02*
X8161277Y-13358079D01*
X8161277Y-13358079D02*
X8170801Y-13396174D01*
X8170801Y-13396174D02*
X8170801Y-13443793D01*
X8170801Y-13443793D02*
X8161277Y-13481888D01*
X8161277Y-13481888D02*
X8151753Y-13500936D01*
X8151753Y-13500936D02*
X8142229Y-13510460D01*
X8142229Y-13510460D02*
X8123182Y-13519984D01*
X8123182Y-13519984D02*
X8104134Y-13519984D01*
X8104134Y-13519984D02*
X8085086Y-13510460D01*
X8085086Y-13510460D02*
X8075563Y-13500936D01*
X8075563Y-13500936D02*
X8066039Y-13481888D01*
X8066039Y-13481888D02*
X8056515Y-13443793D01*
X8056515Y-13443793D02*
X8056515Y-13396174D01*
X8056515Y-13396174D02*
X8066039Y-13358079D01*
X8066039Y-13358079D02*
X8075563Y-13339031D01*
X8075563Y-13339031D02*
X8085086Y-13329508D01*
X8085086Y-13329508D02*
X8104134Y-13319984D01*
X8256515Y-13500936D02*
X8266039Y-13510460D01*
X8266039Y-13510460D02*
X8256515Y-13519984D01*
X8256515Y-13519984D02*
X8246991Y-13510460D01*
X8246991Y-13510460D02*
X8256515Y-13500936D01*
X8256515Y-13500936D02*
X8256515Y-13519984D01*
X8389848Y-13319984D02*
X8408896Y-13319984D01*
X8408896Y-13319984D02*
X8427944Y-13329508D01*
X8427944Y-13329508D02*
X8437468Y-13339031D01*
X8437468Y-13339031D02*
X8446991Y-13358079D01*
X8446991Y-13358079D02*
X8456515Y-13396174D01*
X8456515Y-13396174D02*
X8456515Y-13443793D01*
X8456515Y-13443793D02*
X8446991Y-13481888D01*
X8446991Y-13481888D02*
X8437468Y-13500936D01*
X8437468Y-13500936D02*
X8427944Y-13510460D01*
X8427944Y-13510460D02*
X8408896Y-13519984D01*
X8408896Y-13519984D02*
X8389848Y-13519984D01*
X8389848Y-13519984D02*
X8370801Y-13510460D01*
X8370801Y-13510460D02*
X8361277Y-13500936D01*
X8361277Y-13500936D02*
X8351753Y-13481888D01*
X8351753Y-13481888D02*
X8342229Y-13443793D01*
X8342229Y-13443793D02*
X8342229Y-13396174D01*
X8342229Y-13396174D02*
X8351753Y-13358079D01*
X8351753Y-13358079D02*
X8361277Y-13339031D01*
X8361277Y-13339031D02*
X8370801Y-13329508D01*
X8370801Y-13329508D02*
X8389848Y-13319984D01*
X8637468Y-13319984D02*
X8542229Y-13319984D01*
X8542229Y-13319984D02*
X8532706Y-13415222D01*
X8532706Y-13415222D02*
X8542229Y-13405698D01*
X8542229Y-13405698D02*
X8561277Y-13396174D01*
X8561277Y-13396174D02*
X8608896Y-13396174D01*
X8608896Y-13396174D02*
X8627944Y-13405698D01*
X8627944Y-13405698D02*
X8637468Y-13415222D01*
X8637468Y-13415222D02*
X8646991Y-13434269D01*
X8646991Y-13434269D02*
X8646991Y-13481888D01*
X8646991Y-13481888D02*
X8637468Y-13500936D01*
X8637468Y-13500936D02*
X8627944Y-13510460D01*
X8627944Y-13510460D02*
X8608896Y-13519984D01*
X8608896Y-13519984D02*
X8561277Y-13519984D01*
X8561277Y-13519984D02*
X8542229Y-13510460D01*
X8542229Y-13510460D02*
X8532706Y-13500936D01*
X8742229Y-13519984D02*
X8780325Y-13519984D01*
X8780325Y-13519984D02*
X8799372Y-13510460D01*
X8799372Y-13510460D02*
X8808896Y-13500936D01*
X8808896Y-13500936D02*
X8827944Y-13472365D01*
X8827944Y-13472365D02*
X8837468Y-13434269D01*
X8837468Y-13434269D02*
X8837468Y-13358079D01*
X8837468Y-13358079D02*
X8827944Y-13339031D01*
X8827944Y-13339031D02*
X8818420Y-13329508D01*
X8818420Y-13329508D02*
X8799372Y-13319984D01*
X8799372Y-13319984D02*
X8761277Y-13319984D01*
X8761277Y-13319984D02*
X8742229Y-13329508D01*
X8742229Y-13329508D02*
X8732706Y-13339031D01*
X8732706Y-13339031D02*
X8723182Y-13358079D01*
X8723182Y-13358079D02*
X8723182Y-13405698D01*
X8723182Y-13405698D02*
X8732706Y-13424746D01*
X8732706Y-13424746D02*
X8742229Y-13434269D01*
X8742229Y-13434269D02*
X8761277Y-13443793D01*
X8761277Y-13443793D02*
X8799372Y-13443793D01*
X8799372Y-13443793D02*
X8818420Y-13434269D01*
X8818420Y-13434269D02*
X8827944Y-13424746D01*
X8827944Y-13424746D02*
X8837468Y-13405698D01*
X9027944Y-13519984D02*
X8913658Y-13519984D01*
X8970801Y-13519984D02*
X8970801Y-13319984D01*
X8970801Y-13319984D02*
X8951753Y-13348555D01*
X8951753Y-13348555D02*
X8932706Y-13367603D01*
X8932706Y-13367603D02*
X8913658Y-13377127D01*
X9104134Y-13319984D02*
X9104134Y-13358079D01*
X9180325Y-13319984D02*
X9180325Y-13358079D01*
X9475563Y-13596174D02*
X9466039Y-13586650D01*
X9466039Y-13586650D02*
X9446991Y-13558079D01*
X9446991Y-13558079D02*
X9437468Y-13539031D01*
X9437468Y-13539031D02*
X9427944Y-13510460D01*
X9427944Y-13510460D02*
X9418420Y-13462841D01*
X9418420Y-13462841D02*
X9418420Y-13424746D01*
X9418420Y-13424746D02*
X9427944Y-13377127D01*
X9427944Y-13377127D02*
X9437468Y-13348555D01*
X9437468Y-13348555D02*
X9446991Y-13329508D01*
X9446991Y-13329508D02*
X9466039Y-13300936D01*
X9466039Y-13300936D02*
X9475563Y-13291412D01*
X9532706Y-13319984D02*
X9656515Y-13319984D01*
X9656515Y-13319984D02*
X9589849Y-13396174D01*
X9589849Y-13396174D02*
X9618420Y-13396174D01*
X9618420Y-13396174D02*
X9637468Y-13405698D01*
X9637468Y-13405698D02*
X9646991Y-13415222D01*
X9646991Y-13415222D02*
X9656515Y-13434269D01*
X9656515Y-13434269D02*
X9656515Y-13481888D01*
X9656515Y-13481888D02*
X9646991Y-13500936D01*
X9646991Y-13500936D02*
X9637468Y-13510460D01*
X9637468Y-13510460D02*
X9618420Y-13519984D01*
X9618420Y-13519984D02*
X9561277Y-13519984D01*
X9561277Y-13519984D02*
X9542230Y-13510460D01*
X9542230Y-13510460D02*
X9532706Y-13500936D01*
X9732706Y-13339031D02*
X9742230Y-13329508D01*
X9742230Y-13329508D02*
X9761277Y-13319984D01*
X9761277Y-13319984D02*
X9808896Y-13319984D01*
X9808896Y-13319984D02*
X9827944Y-13329508D01*
X9827944Y-13329508D02*
X9837468Y-13339031D01*
X9837468Y-13339031D02*
X9846991Y-13358079D01*
X9846991Y-13358079D02*
X9846991Y-13377127D01*
X9846991Y-13377127D02*
X9837468Y-13405698D01*
X9837468Y-13405698D02*
X9723182Y-13519984D01*
X9723182Y-13519984D02*
X9846991Y-13519984D01*
X10085087Y-13519984D02*
X10085087Y-13319984D01*
X10170801Y-13519984D02*
X10170801Y-13415222D01*
X10170801Y-13415222D02*
X10161277Y-13396174D01*
X10161277Y-13396174D02*
X10142230Y-13386650D01*
X10142230Y-13386650D02*
X10113658Y-13386650D01*
X10113658Y-13386650D02*
X10094611Y-13396174D01*
X10094611Y-13396174D02*
X10085087Y-13405698D01*
X10294611Y-13519984D02*
X10275563Y-13510460D01*
X10275563Y-13510460D02*
X10266039Y-13500936D01*
X10266039Y-13500936D02*
X10256515Y-13481888D01*
X10256515Y-13481888D02*
X10256515Y-13424746D01*
X10256515Y-13424746D02*
X10266039Y-13405698D01*
X10266039Y-13405698D02*
X10275563Y-13396174D01*
X10275563Y-13396174D02*
X10294611Y-13386650D01*
X10294611Y-13386650D02*
X10323182Y-13386650D01*
X10323182Y-13386650D02*
X10342230Y-13396174D01*
X10342230Y-13396174D02*
X10351753Y-13405698D01*
X10351753Y-13405698D02*
X10361277Y-13424746D01*
X10361277Y-13424746D02*
X10361277Y-13481888D01*
X10361277Y-13481888D02*
X10351753Y-13500936D01*
X10351753Y-13500936D02*
X10342230Y-13510460D01*
X10342230Y-13510460D02*
X10323182Y-13519984D01*
X10323182Y-13519984D02*
X10294611Y-13519984D01*
X10475563Y-13519984D02*
X10456515Y-13510460D01*
X10456515Y-13510460D02*
X10446992Y-13491412D01*
X10446992Y-13491412D02*
X10446992Y-13319984D01*
X10627944Y-13510460D02*
X10608896Y-13519984D01*
X10608896Y-13519984D02*
X10570801Y-13519984D01*
X10570801Y-13519984D02*
X10551753Y-13510460D01*
X10551753Y-13510460D02*
X10542230Y-13491412D01*
X10542230Y-13491412D02*
X10542230Y-13415222D01*
X10542230Y-13415222D02*
X10551753Y-13396174D01*
X10551753Y-13396174D02*
X10570801Y-13386650D01*
X10570801Y-13386650D02*
X10608896Y-13386650D01*
X10608896Y-13386650D02*
X10627944Y-13396174D01*
X10627944Y-13396174D02*
X10637468Y-13415222D01*
X10637468Y-13415222D02*
X10637468Y-13434269D01*
X10637468Y-13434269D02*
X10542230Y-13453317D01*
X10713658Y-13510460D02*
X10732706Y-13519984D01*
X10732706Y-13519984D02*
X10770801Y-13519984D01*
X10770801Y-13519984D02*
X10789849Y-13510460D01*
X10789849Y-13510460D02*
X10799373Y-13491412D01*
X10799373Y-13491412D02*
X10799373Y-13481888D01*
X10799373Y-13481888D02*
X10789849Y-13462841D01*
X10789849Y-13462841D02*
X10770801Y-13453317D01*
X10770801Y-13453317D02*
X10742230Y-13453317D01*
X10742230Y-13453317D02*
X10723182Y-13443793D01*
X10723182Y-13443793D02*
X10713658Y-13424746D01*
X10713658Y-13424746D02*
X10713658Y-13415222D01*
X10713658Y-13415222D02*
X10723182Y-13396174D01*
X10723182Y-13396174D02*
X10742230Y-13386650D01*
X10742230Y-13386650D02*
X10770801Y-13386650D01*
X10770801Y-13386650D02*
X10789849Y-13396174D01*
X10866039Y-13596174D02*
X10875563Y-13586650D01*
X10875563Y-13586650D02*
X10894611Y-13558079D01*
X10894611Y-13558079D02*
X10904134Y-13539031D01*
X10904134Y-13539031D02*
X10913658Y-13510460D01*
X10913658Y-13510460D02*
X10923182Y-13462841D01*
X10923182Y-13462841D02*
X10923182Y-13424746D01*
X10923182Y-13424746D02*
X10913658Y-13377127D01*
X10913658Y-13377127D02*
X10904134Y-13348555D01*
X10904134Y-13348555D02*
X10894611Y-13329508D01*
X10894611Y-13329508D02*
X10875563Y-13300936D01*
X10875563Y-13300936D02*
X10866039Y-13291412D01*
X5871211Y-13769211D02*
X5871211Y-13627789D01*
X5729789Y-13627789D01*
X5729789Y-13769211D01*
X5871211Y-13769211D01*
X6151753Y-13609031D02*
X6161277Y-13599508D01*
X6161277Y-13599508D02*
X6180324Y-13589984D01*
X6180324Y-13589984D02*
X6227943Y-13589984D01*
X6227943Y-13589984D02*
X6246991Y-13599508D01*
X6246991Y-13599508D02*
X6256515Y-13609031D01*
X6256515Y-13609031D02*
X6266039Y-13628079D01*
X6266039Y-13628079D02*
X6266039Y-13647127D01*
X6266039Y-13647127D02*
X6256515Y-13675698D01*
X6256515Y-13675698D02*
X6142229Y-13789984D01*
X6142229Y-13789984D02*
X6266039Y-13789984D01*
X6351753Y-13770936D02*
X6361277Y-13780460D01*
X6361277Y-13780460D02*
X6351753Y-13789984D01*
X6351753Y-13789984D02*
X6342229Y-13780460D01*
X6342229Y-13780460D02*
X6351753Y-13770936D01*
X6351753Y-13770936D02*
X6351753Y-13789984D01*
X6456515Y-13789984D02*
X6494610Y-13789984D01*
X6494610Y-13789984D02*
X6513658Y-13780460D01*
X6513658Y-13780460D02*
X6523182Y-13770936D01*
X6523182Y-13770936D02*
X6542229Y-13742365D01*
X6542229Y-13742365D02*
X6551753Y-13704269D01*
X6551753Y-13704269D02*
X6551753Y-13628079D01*
X6551753Y-13628079D02*
X6542229Y-13609031D01*
X6542229Y-13609031D02*
X6532705Y-13599508D01*
X6532705Y-13599508D02*
X6513658Y-13589984D01*
X6513658Y-13589984D02*
X6475562Y-13589984D01*
X6475562Y-13589984D02*
X6456515Y-13599508D01*
X6456515Y-13599508D02*
X6446991Y-13609031D01*
X6446991Y-13609031D02*
X6437467Y-13628079D01*
X6437467Y-13628079D02*
X6437467Y-13675698D01*
X6437467Y-13675698D02*
X6446991Y-13694746D01*
X6446991Y-13694746D02*
X6456515Y-13704269D01*
X6456515Y-13704269D02*
X6475562Y-13713793D01*
X6475562Y-13713793D02*
X6513658Y-13713793D01*
X6513658Y-13713793D02*
X6532705Y-13704269D01*
X6532705Y-13704269D02*
X6542229Y-13694746D01*
X6542229Y-13694746D02*
X6551753Y-13675698D01*
X6627943Y-13609031D02*
X6637467Y-13599508D01*
X6637467Y-13599508D02*
X6656515Y-13589984D01*
X6656515Y-13589984D02*
X6704134Y-13589984D01*
X6704134Y-13589984D02*
X6723182Y-13599508D01*
X6723182Y-13599508D02*
X6732705Y-13609031D01*
X6732705Y-13609031D02*
X6742229Y-13628079D01*
X6742229Y-13628079D02*
X6742229Y-13647127D01*
X6742229Y-13647127D02*
X6732705Y-13675698D01*
X6732705Y-13675698D02*
X6618420Y-13789984D01*
X6618420Y-13789984D02*
X6742229Y-13789984D01*
X6932705Y-13789984D02*
X6818420Y-13789984D01*
X6875562Y-13789984D02*
X6875562Y-13589984D01*
X6875562Y-13589984D02*
X6856515Y-13618555D01*
X6856515Y-13618555D02*
X6837467Y-13637603D01*
X6837467Y-13637603D02*
X6818420Y-13647127D01*
X7018420Y-13789984D02*
X7018420Y-13656650D01*
X7018420Y-13675698D02*
X7027943Y-13666174D01*
X7027943Y-13666174D02*
X7046991Y-13656650D01*
X7046991Y-13656650D02*
X7075563Y-13656650D01*
X7075563Y-13656650D02*
X7094610Y-13666174D01*
X7094610Y-13666174D02*
X7104134Y-13685222D01*
X7104134Y-13685222D02*
X7104134Y-13789984D01*
X7104134Y-13685222D02*
X7113658Y-13666174D01*
X7113658Y-13666174D02*
X7132705Y-13656650D01*
X7132705Y-13656650D02*
X7161277Y-13656650D01*
X7161277Y-13656650D02*
X7180324Y-13666174D01*
X7180324Y-13666174D02*
X7189848Y-13685222D01*
X7189848Y-13685222D02*
X7189848Y-13789984D01*
X7285086Y-13789984D02*
X7285086Y-13656650D01*
X7285086Y-13675698D02*
X7294610Y-13666174D01*
X7294610Y-13666174D02*
X7313658Y-13656650D01*
X7313658Y-13656650D02*
X7342229Y-13656650D01*
X7342229Y-13656650D02*
X7361277Y-13666174D01*
X7361277Y-13666174D02*
X7370801Y-13685222D01*
X7370801Y-13685222D02*
X7370801Y-13789984D01*
X7370801Y-13685222D02*
X7380324Y-13666174D01*
X7380324Y-13666174D02*
X7399372Y-13656650D01*
X7399372Y-13656650D02*
X7427943Y-13656650D01*
X7427943Y-13656650D02*
X7446991Y-13666174D01*
X7446991Y-13666174D02*
X7456515Y-13685222D01*
X7456515Y-13685222D02*
X7456515Y-13789984D01*
X7846991Y-13580460D02*
X7675563Y-13837603D01*
X8104134Y-13589984D02*
X8123182Y-13589984D01*
X8123182Y-13589984D02*
X8142229Y-13599508D01*
X8142229Y-13599508D02*
X8151753Y-13609031D01*
X8151753Y-13609031D02*
X8161277Y-13628079D01*
X8161277Y-13628079D02*
X8170801Y-13666174D01*
X8170801Y-13666174D02*
X8170801Y-13713793D01*
X8170801Y-13713793D02*
X8161277Y-13751888D01*
X8161277Y-13751888D02*
X8151753Y-13770936D01*
X8151753Y-13770936D02*
X8142229Y-13780460D01*
X8142229Y-13780460D02*
X8123182Y-13789984D01*
X8123182Y-13789984D02*
X8104134Y-13789984D01*
X8104134Y-13789984D02*
X8085086Y-13780460D01*
X8085086Y-13780460D02*
X8075563Y-13770936D01*
X8075563Y-13770936D02*
X8066039Y-13751888D01*
X8066039Y-13751888D02*
X8056515Y-13713793D01*
X8056515Y-13713793D02*
X8056515Y-13666174D01*
X8056515Y-13666174D02*
X8066039Y-13628079D01*
X8066039Y-13628079D02*
X8075563Y-13609031D01*
X8075563Y-13609031D02*
X8085086Y-13599508D01*
X8085086Y-13599508D02*
X8104134Y-13589984D01*
X8256515Y-13770936D02*
X8266039Y-13780460D01*
X8266039Y-13780460D02*
X8256515Y-13789984D01*
X8256515Y-13789984D02*
X8246991Y-13780460D01*
X8246991Y-13780460D02*
X8256515Y-13770936D01*
X8256515Y-13770936D02*
X8256515Y-13789984D01*
X8456515Y-13789984D02*
X8342229Y-13789984D01*
X8399372Y-13789984D02*
X8399372Y-13589984D01*
X8399372Y-13589984D02*
X8380325Y-13618555D01*
X8380325Y-13618555D02*
X8361277Y-13637603D01*
X8361277Y-13637603D02*
X8342229Y-13647127D01*
X8646991Y-13789984D02*
X8532706Y-13789984D01*
X8589848Y-13789984D02*
X8589848Y-13589984D01*
X8589848Y-13589984D02*
X8570801Y-13618555D01*
X8570801Y-13618555D02*
X8551753Y-13637603D01*
X8551753Y-13637603D02*
X8532706Y-13647127D01*
X8827944Y-13589984D02*
X8732706Y-13589984D01*
X8732706Y-13589984D02*
X8723182Y-13685222D01*
X8723182Y-13685222D02*
X8732706Y-13675698D01*
X8732706Y-13675698D02*
X8751753Y-13666174D01*
X8751753Y-13666174D02*
X8799372Y-13666174D01*
X8799372Y-13666174D02*
X8818420Y-13675698D01*
X8818420Y-13675698D02*
X8827944Y-13685222D01*
X8827944Y-13685222D02*
X8837468Y-13704269D01*
X8837468Y-13704269D02*
X8837468Y-13751888D01*
X8837468Y-13751888D02*
X8827944Y-13770936D01*
X8827944Y-13770936D02*
X8818420Y-13780460D01*
X8818420Y-13780460D02*
X8799372Y-13789984D01*
X8799372Y-13789984D02*
X8751753Y-13789984D01*
X8751753Y-13789984D02*
X8732706Y-13780460D01*
X8732706Y-13780460D02*
X8723182Y-13770936D01*
X8961277Y-13589984D02*
X8980325Y-13589984D01*
X8980325Y-13589984D02*
X8999372Y-13599508D01*
X8999372Y-13599508D02*
X9008896Y-13609031D01*
X9008896Y-13609031D02*
X9018420Y-13628079D01*
X9018420Y-13628079D02*
X9027944Y-13666174D01*
X9027944Y-13666174D02*
X9027944Y-13713793D01*
X9027944Y-13713793D02*
X9018420Y-13751888D01*
X9018420Y-13751888D02*
X9008896Y-13770936D01*
X9008896Y-13770936D02*
X8999372Y-13780460D01*
X8999372Y-13780460D02*
X8980325Y-13789984D01*
X8980325Y-13789984D02*
X8961277Y-13789984D01*
X8961277Y-13789984D02*
X8942229Y-13780460D01*
X8942229Y-13780460D02*
X8932706Y-13770936D01*
X8932706Y-13770936D02*
X8923182Y-13751888D01*
X8923182Y-13751888D02*
X8913658Y-13713793D01*
X8913658Y-13713793D02*
X8913658Y-13666174D01*
X8913658Y-13666174D02*
X8923182Y-13628079D01*
X8923182Y-13628079D02*
X8932706Y-13609031D01*
X8932706Y-13609031D02*
X8942229Y-13599508D01*
X8942229Y-13599508D02*
X8961277Y-13589984D01*
X9104134Y-13589984D02*
X9104134Y-13628079D01*
X9180325Y-13589984D02*
X9180325Y-13628079D01*
X9475563Y-13866174D02*
X9466039Y-13856650D01*
X9466039Y-13856650D02*
X9446991Y-13828079D01*
X9446991Y-13828079D02*
X9437468Y-13809031D01*
X9437468Y-13809031D02*
X9427944Y-13780460D01*
X9427944Y-13780460D02*
X9418420Y-13732841D01*
X9418420Y-13732841D02*
X9418420Y-13694746D01*
X9418420Y-13694746D02*
X9427944Y-13647127D01*
X9427944Y-13647127D02*
X9437468Y-13618555D01*
X9437468Y-13618555D02*
X9446991Y-13599508D01*
X9446991Y-13599508D02*
X9466039Y-13570936D01*
X9466039Y-13570936D02*
X9475563Y-13561412D01*
X9637468Y-13656650D02*
X9637468Y-13789984D01*
X9589849Y-13580460D02*
X9542230Y-13723317D01*
X9542230Y-13723317D02*
X9666039Y-13723317D01*
X9894611Y-13789984D02*
X9894611Y-13589984D01*
X9980325Y-13789984D02*
X9980325Y-13685222D01*
X9980325Y-13685222D02*
X9970801Y-13666174D01*
X9970801Y-13666174D02*
X9951753Y-13656650D01*
X9951753Y-13656650D02*
X9923182Y-13656650D01*
X9923182Y-13656650D02*
X9904134Y-13666174D01*
X9904134Y-13666174D02*
X9894611Y-13675698D01*
X10104134Y-13789984D02*
X10085087Y-13780460D01*
X10085087Y-13780460D02*
X10075563Y-13770936D01*
X10075563Y-13770936D02*
X10066039Y-13751888D01*
X10066039Y-13751888D02*
X10066039Y-13694746D01*
X10066039Y-13694746D02*
X10075563Y-13675698D01*
X10075563Y-13675698D02*
X10085087Y-13666174D01*
X10085087Y-13666174D02*
X10104134Y-13656650D01*
X10104134Y-13656650D02*
X10132706Y-13656650D01*
X10132706Y-13656650D02*
X10151753Y-13666174D01*
X10151753Y-13666174D02*
X10161277Y-13675698D01*
X10161277Y-13675698D02*
X10170801Y-13694746D01*
X10170801Y-13694746D02*
X10170801Y-13751888D01*
X10170801Y-13751888D02*
X10161277Y-13770936D01*
X10161277Y-13770936D02*
X10151753Y-13780460D01*
X10151753Y-13780460D02*
X10132706Y-13789984D01*
X10132706Y-13789984D02*
X10104134Y-13789984D01*
X10285087Y-13789984D02*
X10266039Y-13780460D01*
X10266039Y-13780460D02*
X10256515Y-13761412D01*
X10256515Y-13761412D02*
X10256515Y-13589984D01*
X10437468Y-13780460D02*
X10418420Y-13789984D01*
X10418420Y-13789984D02*
X10380325Y-13789984D01*
X10380325Y-13789984D02*
X10361277Y-13780460D01*
X10361277Y-13780460D02*
X10351753Y-13761412D01*
X10351753Y-13761412D02*
X10351753Y-13685222D01*
X10351753Y-13685222D02*
X10361277Y-13666174D01*
X10361277Y-13666174D02*
X10380325Y-13656650D01*
X10380325Y-13656650D02*
X10418420Y-13656650D01*
X10418420Y-13656650D02*
X10437468Y-13666174D01*
X10437468Y-13666174D02*
X10446992Y-13685222D01*
X10446992Y-13685222D02*
X10446992Y-13704269D01*
X10446992Y-13704269D02*
X10351753Y-13723317D01*
X10523182Y-13780460D02*
X10542230Y-13789984D01*
X10542230Y-13789984D02*
X10580325Y-13789984D01*
X10580325Y-13789984D02*
X10599373Y-13780460D01*
X10599373Y-13780460D02*
X10608896Y-13761412D01*
X10608896Y-13761412D02*
X10608896Y-13751888D01*
X10608896Y-13751888D02*
X10599373Y-13732841D01*
X10599373Y-13732841D02*
X10580325Y-13723317D01*
X10580325Y-13723317D02*
X10551753Y-13723317D01*
X10551753Y-13723317D02*
X10532706Y-13713793D01*
X10532706Y-13713793D02*
X10523182Y-13694746D01*
X10523182Y-13694746D02*
X10523182Y-13685222D01*
X10523182Y-13685222D02*
X10532706Y-13666174D01*
X10532706Y-13666174D02*
X10551753Y-13656650D01*
X10551753Y-13656650D02*
X10580325Y-13656650D01*
X10580325Y-13656650D02*
X10599373Y-13666174D01*
X10675563Y-13866174D02*
X10685087Y-13856650D01*
X10685087Y-13856650D02*
X10704134Y-13828079D01*
X10704134Y-13828079D02*
X10713658Y-13809031D01*
X10713658Y-13809031D02*
X10723182Y-13780460D01*
X10723182Y-13780460D02*
X10732706Y-13732841D01*
X10732706Y-13732841D02*
X10732706Y-13694746D01*
X10732706Y-13694746D02*
X10723182Y-13647127D01*
X10723182Y-13647127D02*
X10713658Y-13618555D01*
X10713658Y-13618555D02*
X10704134Y-13599508D01*
X10704134Y-13599508D02*
X10685087Y-13570936D01*
X10685087Y-13570936D02*
X10675563Y-13561412D01*
X5800500Y-14118500D02*
X5900500Y-14018500D01*
X5800500Y-13918500D01*
X5700500Y-14018500D01*
X5800500Y-14118500D01*
X6142229Y-13909984D02*
X6266039Y-13909984D01*
X6266039Y-13909984D02*
X6199372Y-13986174D01*
X6199372Y-13986174D02*
X6227943Y-13986174D01*
X6227943Y-13986174D02*
X6246991Y-13995698D01*
X6246991Y-13995698D02*
X6256515Y-14005222D01*
X6256515Y-14005222D02*
X6266039Y-14024269D01*
X6266039Y-14024269D02*
X6266039Y-14071888D01*
X6266039Y-14071888D02*
X6256515Y-14090936D01*
X6256515Y-14090936D02*
X6246991Y-14100460D01*
X6246991Y-14100460D02*
X6227943Y-14109984D01*
X6227943Y-14109984D02*
X6170801Y-14109984D01*
X6170801Y-14109984D02*
X6151753Y-14100460D01*
X6151753Y-14100460D02*
X6142229Y-14090936D01*
X6351753Y-14090936D02*
X6361277Y-14100460D01*
X6361277Y-14100460D02*
X6351753Y-14109984D01*
X6351753Y-14109984D02*
X6342229Y-14100460D01*
X6342229Y-14100460D02*
X6351753Y-14090936D01*
X6351753Y-14090936D02*
X6351753Y-14109984D01*
X6427943Y-13909984D02*
X6551753Y-13909984D01*
X6551753Y-13909984D02*
X6485086Y-13986174D01*
X6485086Y-13986174D02*
X6513658Y-13986174D01*
X6513658Y-13986174D02*
X6532705Y-13995698D01*
X6532705Y-13995698D02*
X6542229Y-14005222D01*
X6542229Y-14005222D02*
X6551753Y-14024269D01*
X6551753Y-14024269D02*
X6551753Y-14071888D01*
X6551753Y-14071888D02*
X6542229Y-14090936D01*
X6542229Y-14090936D02*
X6532705Y-14100460D01*
X6532705Y-14100460D02*
X6513658Y-14109984D01*
X6513658Y-14109984D02*
X6456515Y-14109984D01*
X6456515Y-14109984D02*
X6437467Y-14100460D01*
X6437467Y-14100460D02*
X6427943Y-14090936D01*
X6675562Y-13909984D02*
X6694610Y-13909984D01*
X6694610Y-13909984D02*
X6713658Y-13919508D01*
X6713658Y-13919508D02*
X6723182Y-13929031D01*
X6723182Y-13929031D02*
X6732705Y-13948079D01*
X6732705Y-13948079D02*
X6742229Y-13986174D01*
X6742229Y-13986174D02*
X6742229Y-14033793D01*
X6742229Y-14033793D02*
X6732705Y-14071888D01*
X6732705Y-14071888D02*
X6723182Y-14090936D01*
X6723182Y-14090936D02*
X6713658Y-14100460D01*
X6713658Y-14100460D02*
X6694610Y-14109984D01*
X6694610Y-14109984D02*
X6675562Y-14109984D01*
X6675562Y-14109984D02*
X6656515Y-14100460D01*
X6656515Y-14100460D02*
X6646991Y-14090936D01*
X6646991Y-14090936D02*
X6637467Y-14071888D01*
X6637467Y-14071888D02*
X6627943Y-14033793D01*
X6627943Y-14033793D02*
X6627943Y-13986174D01*
X6627943Y-13986174D02*
X6637467Y-13948079D01*
X6637467Y-13948079D02*
X6646991Y-13929031D01*
X6646991Y-13929031D02*
X6656515Y-13919508D01*
X6656515Y-13919508D02*
X6675562Y-13909984D01*
X6818420Y-13929031D02*
X6827943Y-13919508D01*
X6827943Y-13919508D02*
X6846991Y-13909984D01*
X6846991Y-13909984D02*
X6894610Y-13909984D01*
X6894610Y-13909984D02*
X6913658Y-13919508D01*
X6913658Y-13919508D02*
X6923182Y-13929031D01*
X6923182Y-13929031D02*
X6932705Y-13948079D01*
X6932705Y-13948079D02*
X6932705Y-13967127D01*
X6932705Y-13967127D02*
X6923182Y-13995698D01*
X6923182Y-13995698D02*
X6808896Y-14109984D01*
X6808896Y-14109984D02*
X6932705Y-14109984D01*
X7018420Y-14109984D02*
X7018420Y-13976650D01*
X7018420Y-13995698D02*
X7027943Y-13986174D01*
X7027943Y-13986174D02*
X7046991Y-13976650D01*
X7046991Y-13976650D02*
X7075563Y-13976650D01*
X7075563Y-13976650D02*
X7094610Y-13986174D01*
X7094610Y-13986174D02*
X7104134Y-14005222D01*
X7104134Y-14005222D02*
X7104134Y-14109984D01*
X7104134Y-14005222D02*
X7113658Y-13986174D01*
X7113658Y-13986174D02*
X7132705Y-13976650D01*
X7132705Y-13976650D02*
X7161277Y-13976650D01*
X7161277Y-13976650D02*
X7180324Y-13986174D01*
X7180324Y-13986174D02*
X7189848Y-14005222D01*
X7189848Y-14005222D02*
X7189848Y-14109984D01*
X7285086Y-14109984D02*
X7285086Y-13976650D01*
X7285086Y-13995698D02*
X7294610Y-13986174D01*
X7294610Y-13986174D02*
X7313658Y-13976650D01*
X7313658Y-13976650D02*
X7342229Y-13976650D01*
X7342229Y-13976650D02*
X7361277Y-13986174D01*
X7361277Y-13986174D02*
X7370801Y-14005222D01*
X7370801Y-14005222D02*
X7370801Y-14109984D01*
X7370801Y-14005222D02*
X7380324Y-13986174D01*
X7380324Y-13986174D02*
X7399372Y-13976650D01*
X7399372Y-13976650D02*
X7427943Y-13976650D01*
X7427943Y-13976650D02*
X7446991Y-13986174D01*
X7446991Y-13986174D02*
X7456515Y-14005222D01*
X7456515Y-14005222D02*
X7456515Y-14109984D01*
X7846991Y-13900460D02*
X7675563Y-14157603D01*
X8104134Y-13909984D02*
X8123182Y-13909984D01*
X8123182Y-13909984D02*
X8142229Y-13919508D01*
X8142229Y-13919508D02*
X8151753Y-13929031D01*
X8151753Y-13929031D02*
X8161277Y-13948079D01*
X8161277Y-13948079D02*
X8170801Y-13986174D01*
X8170801Y-13986174D02*
X8170801Y-14033793D01*
X8170801Y-14033793D02*
X8161277Y-14071888D01*
X8161277Y-14071888D02*
X8151753Y-14090936D01*
X8151753Y-14090936D02*
X8142229Y-14100460D01*
X8142229Y-14100460D02*
X8123182Y-14109984D01*
X8123182Y-14109984D02*
X8104134Y-14109984D01*
X8104134Y-14109984D02*
X8085086Y-14100460D01*
X8085086Y-14100460D02*
X8075563Y-14090936D01*
X8075563Y-14090936D02*
X8066039Y-14071888D01*
X8066039Y-14071888D02*
X8056515Y-14033793D01*
X8056515Y-14033793D02*
X8056515Y-13986174D01*
X8056515Y-13986174D02*
X8066039Y-13948079D01*
X8066039Y-13948079D02*
X8075563Y-13929031D01*
X8075563Y-13929031D02*
X8085086Y-13919508D01*
X8085086Y-13919508D02*
X8104134Y-13909984D01*
X8256515Y-14090936D02*
X8266039Y-14100460D01*
X8266039Y-14100460D02*
X8256515Y-14109984D01*
X8256515Y-14109984D02*
X8246991Y-14100460D01*
X8246991Y-14100460D02*
X8256515Y-14090936D01*
X8256515Y-14090936D02*
X8256515Y-14109984D01*
X8456515Y-14109984D02*
X8342229Y-14109984D01*
X8399372Y-14109984D02*
X8399372Y-13909984D01*
X8399372Y-13909984D02*
X8380325Y-13938555D01*
X8380325Y-13938555D02*
X8361277Y-13957603D01*
X8361277Y-13957603D02*
X8342229Y-13967127D01*
X8523182Y-13909984D02*
X8646991Y-13909984D01*
X8646991Y-13909984D02*
X8580325Y-13986174D01*
X8580325Y-13986174D02*
X8608896Y-13986174D01*
X8608896Y-13986174D02*
X8627944Y-13995698D01*
X8627944Y-13995698D02*
X8637468Y-14005222D01*
X8637468Y-14005222D02*
X8646991Y-14024269D01*
X8646991Y-14024269D02*
X8646991Y-14071888D01*
X8646991Y-14071888D02*
X8637468Y-14090936D01*
X8637468Y-14090936D02*
X8627944Y-14100460D01*
X8627944Y-14100460D02*
X8608896Y-14109984D01*
X8608896Y-14109984D02*
X8551753Y-14109984D01*
X8551753Y-14109984D02*
X8532706Y-14100460D01*
X8532706Y-14100460D02*
X8523182Y-14090936D01*
X8770801Y-13909984D02*
X8789849Y-13909984D01*
X8789849Y-13909984D02*
X8808896Y-13919508D01*
X8808896Y-13919508D02*
X8818420Y-13929031D01*
X8818420Y-13929031D02*
X8827944Y-13948079D01*
X8827944Y-13948079D02*
X8837468Y-13986174D01*
X8837468Y-13986174D02*
X8837468Y-14033793D01*
X8837468Y-14033793D02*
X8827944Y-14071888D01*
X8827944Y-14071888D02*
X8818420Y-14090936D01*
X8818420Y-14090936D02*
X8808896Y-14100460D01*
X8808896Y-14100460D02*
X8789849Y-14109984D01*
X8789849Y-14109984D02*
X8770801Y-14109984D01*
X8770801Y-14109984D02*
X8751753Y-14100460D01*
X8751753Y-14100460D02*
X8742229Y-14090936D01*
X8742229Y-14090936D02*
X8732706Y-14071888D01*
X8732706Y-14071888D02*
X8723182Y-14033793D01*
X8723182Y-14033793D02*
X8723182Y-13986174D01*
X8723182Y-13986174D02*
X8732706Y-13948079D01*
X8732706Y-13948079D02*
X8742229Y-13929031D01*
X8742229Y-13929031D02*
X8751753Y-13919508D01*
X8751753Y-13919508D02*
X8770801Y-13909984D01*
X8961277Y-13909984D02*
X8980325Y-13909984D01*
X8980325Y-13909984D02*
X8999372Y-13919508D01*
X8999372Y-13919508D02*
X9008896Y-13929031D01*
X9008896Y-13929031D02*
X9018420Y-13948079D01*
X9018420Y-13948079D02*
X9027944Y-13986174D01*
X9027944Y-13986174D02*
X9027944Y-14033793D01*
X9027944Y-14033793D02*
X9018420Y-14071888D01*
X9018420Y-14071888D02*
X9008896Y-14090936D01*
X9008896Y-14090936D02*
X8999372Y-14100460D01*
X8999372Y-14100460D02*
X8980325Y-14109984D01*
X8980325Y-14109984D02*
X8961277Y-14109984D01*
X8961277Y-14109984D02*
X8942229Y-14100460D01*
X8942229Y-14100460D02*
X8932706Y-14090936D01*
X8932706Y-14090936D02*
X8923182Y-14071888D01*
X8923182Y-14071888D02*
X8913658Y-14033793D01*
X8913658Y-14033793D02*
X8913658Y-13986174D01*
X8913658Y-13986174D02*
X8923182Y-13948079D01*
X8923182Y-13948079D02*
X8932706Y-13929031D01*
X8932706Y-13929031D02*
X8942229Y-13919508D01*
X8942229Y-13919508D02*
X8961277Y-13909984D01*
X9104134Y-13909984D02*
X9104134Y-13948079D01*
X9180325Y-13909984D02*
X9180325Y-13948079D01*
X9475563Y-14186174D02*
X9466039Y-14176650D01*
X9466039Y-14176650D02*
X9446991Y-14148079D01*
X9446991Y-14148079D02*
X9437468Y-14129031D01*
X9437468Y-14129031D02*
X9427944Y-14100460D01*
X9427944Y-14100460D02*
X9418420Y-14052841D01*
X9418420Y-14052841D02*
X9418420Y-14014746D01*
X9418420Y-14014746D02*
X9427944Y-13967127D01*
X9427944Y-13967127D02*
X9437468Y-13938555D01*
X9437468Y-13938555D02*
X9446991Y-13919508D01*
X9446991Y-13919508D02*
X9466039Y-13890936D01*
X9466039Y-13890936D02*
X9475563Y-13881412D01*
X9656515Y-14109984D02*
X9542230Y-14109984D01*
X9599372Y-14109984D02*
X9599372Y-13909984D01*
X9599372Y-13909984D02*
X9580325Y-13938555D01*
X9580325Y-13938555D02*
X9561277Y-13957603D01*
X9561277Y-13957603D02*
X9542230Y-13967127D01*
X9827944Y-13909984D02*
X9789849Y-13909984D01*
X9789849Y-13909984D02*
X9770801Y-13919508D01*
X9770801Y-13919508D02*
X9761277Y-13929031D01*
X9761277Y-13929031D02*
X9742230Y-13957603D01*
X9742230Y-13957603D02*
X9732706Y-13995698D01*
X9732706Y-13995698D02*
X9732706Y-14071888D01*
X9732706Y-14071888D02*
X9742230Y-14090936D01*
X9742230Y-14090936D02*
X9751753Y-14100460D01*
X9751753Y-14100460D02*
X9770801Y-14109984D01*
X9770801Y-14109984D02*
X9808896Y-14109984D01*
X9808896Y-14109984D02*
X9827944Y-14100460D01*
X9827944Y-14100460D02*
X9837468Y-14090936D01*
X9837468Y-14090936D02*
X9846991Y-14071888D01*
X9846991Y-14071888D02*
X9846991Y-14024269D01*
X9846991Y-14024269D02*
X9837468Y-14005222D01*
X9837468Y-14005222D02*
X9827944Y-13995698D01*
X9827944Y-13995698D02*
X9808896Y-13986174D01*
X9808896Y-13986174D02*
X9770801Y-13986174D01*
X9770801Y-13986174D02*
X9751753Y-13995698D01*
X9751753Y-13995698D02*
X9742230Y-14005222D01*
X9742230Y-14005222D02*
X9732706Y-14024269D01*
X10085087Y-14109984D02*
X10085087Y-13909984D01*
X10170801Y-14109984D02*
X10170801Y-14005222D01*
X10170801Y-14005222D02*
X10161277Y-13986174D01*
X10161277Y-13986174D02*
X10142230Y-13976650D01*
X10142230Y-13976650D02*
X10113658Y-13976650D01*
X10113658Y-13976650D02*
X10094611Y-13986174D01*
X10094611Y-13986174D02*
X10085087Y-13995698D01*
X10294611Y-14109984D02*
X10275563Y-14100460D01*
X10275563Y-14100460D02*
X10266039Y-14090936D01*
X10266039Y-14090936D02*
X10256515Y-14071888D01*
X10256515Y-14071888D02*
X10256515Y-14014746D01*
X10256515Y-14014746D02*
X10266039Y-13995698D01*
X10266039Y-13995698D02*
X10275563Y-13986174D01*
X10275563Y-13986174D02*
X10294611Y-13976650D01*
X10294611Y-13976650D02*
X10323182Y-13976650D01*
X10323182Y-13976650D02*
X10342230Y-13986174D01*
X10342230Y-13986174D02*
X10351753Y-13995698D01*
X10351753Y-13995698D02*
X10361277Y-14014746D01*
X10361277Y-14014746D02*
X10361277Y-14071888D01*
X10361277Y-14071888D02*
X10351753Y-14090936D01*
X10351753Y-14090936D02*
X10342230Y-14100460D01*
X10342230Y-14100460D02*
X10323182Y-14109984D01*
X10323182Y-14109984D02*
X10294611Y-14109984D01*
X10475563Y-14109984D02*
X10456515Y-14100460D01*
X10456515Y-14100460D02*
X10446992Y-14081412D01*
X10446992Y-14081412D02*
X10446992Y-13909984D01*
X10627944Y-14100460D02*
X10608896Y-14109984D01*
X10608896Y-14109984D02*
X10570801Y-14109984D01*
X10570801Y-14109984D02*
X10551753Y-14100460D01*
X10551753Y-14100460D02*
X10542230Y-14081412D01*
X10542230Y-14081412D02*
X10542230Y-14005222D01*
X10542230Y-14005222D02*
X10551753Y-13986174D01*
X10551753Y-13986174D02*
X10570801Y-13976650D01*
X10570801Y-13976650D02*
X10608896Y-13976650D01*
X10608896Y-13976650D02*
X10627944Y-13986174D01*
X10627944Y-13986174D02*
X10637468Y-14005222D01*
X10637468Y-14005222D02*
X10637468Y-14024269D01*
X10637468Y-14024269D02*
X10542230Y-14043317D01*
X10713658Y-14100460D02*
X10732706Y-14109984D01*
X10732706Y-14109984D02*
X10770801Y-14109984D01*
X10770801Y-14109984D02*
X10789849Y-14100460D01*
X10789849Y-14100460D02*
X10799373Y-14081412D01*
X10799373Y-14081412D02*
X10799373Y-14071888D01*
X10799373Y-14071888D02*
X10789849Y-14052841D01*
X10789849Y-14052841D02*
X10770801Y-14043317D01*
X10770801Y-14043317D02*
X10742230Y-14043317D01*
X10742230Y-14043317D02*
X10723182Y-14033793D01*
X10723182Y-14033793D02*
X10713658Y-14014746D01*
X10713658Y-14014746D02*
X10713658Y-14005222D01*
X10713658Y-14005222D02*
X10723182Y-13986174D01*
X10723182Y-13986174D02*
X10742230Y-13976650D01*
X10742230Y-13976650D02*
X10770801Y-13976650D01*
X10770801Y-13976650D02*
X10789849Y-13986174D01*
X10866039Y-14186174D02*
X10875563Y-14176650D01*
X10875563Y-14176650D02*
X10894611Y-14148079D01*
X10894611Y-14148079D02*
X10904134Y-14129031D01*
X10904134Y-14129031D02*
X10913658Y-14100460D01*
X10913658Y-14100460D02*
X10923182Y-14052841D01*
X10923182Y-14052841D02*
X10923182Y-14014746D01*
X10923182Y-14014746D02*
X10913658Y-13967127D01*
X10913658Y-13967127D02*
X10904134Y-13938555D01*
X10904134Y-13938555D02*
X10894611Y-13919508D01*
X10894611Y-13919508D02*
X10875563Y-13890936D01*
X10875563Y-13890936D02*
X10866039Y-13881412D01*
M02*
