M48
; DRILL file {KiCad 7.0.9-7.0.9~ubuntu20.04.1} date ned 17 dec 2023 17:55:59
; FORMAT={-:-/ absolute / metric / decimal}
; #@! TF.CreationDate,2023-12-17T17:55:59+01:00
; #@! TF.GenerationSoftware,Kicad,Pcbnew,7.0.9-7.0.9~ubuntu20.04.1
; #@! TF.FileFunction,Plated,1,2,PTH
FMAT,2
METRIC
; #@! TA.AperFunction,Plated,PTH,ViaDrill
T1C0.400
; #@! TA.AperFunction,Plated,PTH,ComponentDrill
T2C1.000
; #@! TA.AperFunction,Plated,PTH,ComponentDrill
T3C1.500
; #@! TA.AperFunction,Plated,PTH,ComponentDrill
T4C2.921
; #@! TA.AperFunction,Plated,PTH,ComponentDrill
T5C3.302
%
G90
G05
T1
X98.565Y-111.095
X99.277Y-101.169
X130.728Y-94.854
T2
X102.87Y-103.505
X102.87Y-106.045
X102.87Y-108.585
X102.87Y-111.125
X105.41Y-103.505
X105.41Y-106.045
X105.41Y-108.585
X105.41Y-111.125
T3
X62.475Y-106.294
X62.475Y-113.794
X67.475Y-106.294
X67.475Y-113.794
X72.475Y-106.294
X72.475Y-113.794
X87.475Y-106.294
X87.475Y-113.794
X115.824Y-106.292
X115.824Y-113.792
X130.824Y-106.292
X130.824Y-113.792
X135.824Y-106.292
X135.824Y-113.792
X140.824Y-106.292
X140.824Y-113.792
X153.689Y-106.294
X153.689Y-113.794
X158.689Y-106.294
X158.689Y-113.794
X163.689Y-106.294
X163.689Y-113.794
X178.689Y-106.294
X178.689Y-113.794
X190.646Y-106.294
X190.646Y-113.794
X195.646Y-106.294
X195.646Y-113.794
X200.646Y-106.294
X200.646Y-113.794
X215.646Y-106.294
X215.646Y-113.794
T4
X73.025Y-89.1
X128.016Y-89.1
X166.7Y-89.1
X204.0Y-89.1
T5
X63.906Y-79.981
X63.906Y-98.219
X82.144Y-79.981
X82.144Y-98.219
X118.897Y-79.981
X118.897Y-98.219
X137.135Y-79.981
X137.135Y-98.219
X157.581Y-79.981
X157.581Y-98.219
X175.819Y-79.981
X175.819Y-98.219
X194.881Y-79.981
X194.881Y-98.219
X213.119Y-79.981
X213.119Y-98.219
T0
M30
