G04 #@! TF.GenerationSoftware,KiCad,Pcbnew,7.0.9-7.0.9~ubuntu20.04.1*
G04 #@! TF.CreationDate,2023-12-17T17:55:53+01:00*
G04 #@! TF.ProjectId,PL_switch,504c5f73-7769-4746-9368-2e6b69636164,1.0*
G04 #@! TF.SameCoordinates,Original*
G04 #@! TF.FileFunction,Legend,Bot*
G04 #@! TF.FilePolarity,Positive*
%FSLAX46Y46*%
G04 Gerber Fmt 4.6, Leading zero omitted, Abs format (unit mm)*
G04 Created by KiCad (PCBNEW 7.0.9-7.0.9~ubuntu20.04.1) date 2023-12-17 17:55:53*
%MOMM*%
%LPD*%
G01*
G04 APERTURE LIST*
%ADD10C,0.400000*%
%ADD11C,0.150000*%
%ADD12C,0.120000*%
%ADD13R,2.500000X2.500000*%
%ADD14O,2.500000X2.500000*%
%ADD15C,5.842000*%
%ADD16R,1.700000X1.700000*%
%ADD17O,1.700000X1.700000*%
%ADD18C,6.000000*%
%ADD19R,2.300000X2.500000*%
G04 APERTURE END LIST*
D10*
X106035890Y-95043200D02*
X105750176Y-95138438D01*
X105750176Y-95138438D02*
X105273985Y-95138438D01*
X105273985Y-95138438D02*
X105083509Y-95043200D01*
X105083509Y-95043200D02*
X104988271Y-94947961D01*
X104988271Y-94947961D02*
X104893033Y-94757485D01*
X104893033Y-94757485D02*
X104893033Y-94567009D01*
X104893033Y-94567009D02*
X104988271Y-94376533D01*
X104988271Y-94376533D02*
X105083509Y-94281295D01*
X105083509Y-94281295D02*
X105273985Y-94186057D01*
X105273985Y-94186057D02*
X105654938Y-94090819D01*
X105654938Y-94090819D02*
X105845414Y-93995580D01*
X105845414Y-93995580D02*
X105940652Y-93900342D01*
X105940652Y-93900342D02*
X106035890Y-93709866D01*
X106035890Y-93709866D02*
X106035890Y-93519390D01*
X106035890Y-93519390D02*
X105940652Y-93328914D01*
X105940652Y-93328914D02*
X105845414Y-93233676D01*
X105845414Y-93233676D02*
X105654938Y-93138438D01*
X105654938Y-93138438D02*
X105178747Y-93138438D01*
X105178747Y-93138438D02*
X104893033Y-93233676D01*
X103083509Y-93138438D02*
X104035890Y-93138438D01*
X104035890Y-93138438D02*
X104131128Y-94090819D01*
X104131128Y-94090819D02*
X104035890Y-93995580D01*
X104035890Y-93995580D02*
X103845414Y-93900342D01*
X103845414Y-93900342D02*
X103369223Y-93900342D01*
X103369223Y-93900342D02*
X103178747Y-93995580D01*
X103178747Y-93995580D02*
X103083509Y-94090819D01*
X103083509Y-94090819D02*
X102988271Y-94281295D01*
X102988271Y-94281295D02*
X102988271Y-94757485D01*
X102988271Y-94757485D02*
X103083509Y-94947961D01*
X103083509Y-94947961D02*
X103178747Y-95043200D01*
X103178747Y-95043200D02*
X103369223Y-95138438D01*
X103369223Y-95138438D02*
X103845414Y-95138438D01*
X103845414Y-95138438D02*
X104035890Y-95043200D01*
X104035890Y-95043200D02*
X104131128Y-94947961D01*
X102035890Y-95138438D02*
X101654938Y-95138438D01*
X101654938Y-95138438D02*
X101464461Y-95043200D01*
X101464461Y-95043200D02*
X101369223Y-94947961D01*
X101369223Y-94947961D02*
X101178747Y-94662247D01*
X101178747Y-94662247D02*
X101083509Y-94281295D01*
X101083509Y-94281295D02*
X101083509Y-93519390D01*
X101083509Y-93519390D02*
X101178747Y-93328914D01*
X101178747Y-93328914D02*
X101273985Y-93233676D01*
X101273985Y-93233676D02*
X101464461Y-93138438D01*
X101464461Y-93138438D02*
X101845414Y-93138438D01*
X101845414Y-93138438D02*
X102035890Y-93233676D01*
X102035890Y-93233676D02*
X102131128Y-93328914D01*
X102131128Y-93328914D02*
X102226366Y-93519390D01*
X102226366Y-93519390D02*
X102226366Y-93995580D01*
X102226366Y-93995580D02*
X102131128Y-94186057D01*
X102131128Y-94186057D02*
X102035890Y-94281295D01*
X102035890Y-94281295D02*
X101845414Y-94376533D01*
X101845414Y-94376533D02*
X101464461Y-94376533D01*
X101464461Y-94376533D02*
X101273985Y-94281295D01*
X101273985Y-94281295D02*
X101178747Y-94186057D01*
X101178747Y-94186057D02*
X101083509Y-93995580D01*
X100226366Y-95138438D02*
X100226366Y-93138438D01*
X100226366Y-93138438D02*
X99559699Y-94567009D01*
X99559699Y-94567009D02*
X98893033Y-93138438D01*
X98893033Y-93138438D02*
X98893033Y-95138438D01*
X98131128Y-93138438D02*
X96797795Y-93138438D01*
X96797795Y-93138438D02*
X98131128Y-95138438D01*
X98131128Y-95138438D02*
X96797795Y-95138438D01*
D11*
X105771792Y-97439819D02*
X106105125Y-96963628D01*
X106343220Y-97439819D02*
X106343220Y-96439819D01*
X106343220Y-96439819D02*
X105962268Y-96439819D01*
X105962268Y-96439819D02*
X105867030Y-96487438D01*
X105867030Y-96487438D02*
X105819411Y-96535057D01*
X105819411Y-96535057D02*
X105771792Y-96630295D01*
X105771792Y-96630295D02*
X105771792Y-96773152D01*
X105771792Y-96773152D02*
X105819411Y-96868390D01*
X105819411Y-96868390D02*
X105867030Y-96916009D01*
X105867030Y-96916009D02*
X105962268Y-96963628D01*
X105962268Y-96963628D02*
X106343220Y-96963628D01*
X104962268Y-97392200D02*
X105057506Y-97439819D01*
X105057506Y-97439819D02*
X105247982Y-97439819D01*
X105247982Y-97439819D02*
X105343220Y-97392200D01*
X105343220Y-97392200D02*
X105390839Y-97296961D01*
X105390839Y-97296961D02*
X105390839Y-96916009D01*
X105390839Y-96916009D02*
X105343220Y-96820771D01*
X105343220Y-96820771D02*
X105247982Y-96773152D01*
X105247982Y-96773152D02*
X105057506Y-96773152D01*
X105057506Y-96773152D02*
X104962268Y-96820771D01*
X104962268Y-96820771D02*
X104914649Y-96916009D01*
X104914649Y-96916009D02*
X104914649Y-97011247D01*
X104914649Y-97011247D02*
X105390839Y-97106485D01*
X104581315Y-96773152D02*
X104343220Y-97439819D01*
X104343220Y-97439819D02*
X104105125Y-96773152D01*
X103724172Y-97344580D02*
X103676553Y-97392200D01*
X103676553Y-97392200D02*
X103724172Y-97439819D01*
X103724172Y-97439819D02*
X103771791Y-97392200D01*
X103771791Y-97392200D02*
X103724172Y-97344580D01*
X103724172Y-97344580D02*
X103724172Y-97439819D01*
X103724172Y-96820771D02*
X103676553Y-96868390D01*
X103676553Y-96868390D02*
X103724172Y-96916009D01*
X103724172Y-96916009D02*
X103771791Y-96868390D01*
X103771791Y-96868390D02*
X103724172Y-96820771D01*
X103724172Y-96820771D02*
X103724172Y-96916009D01*
X102724173Y-97439819D02*
X103295601Y-97439819D01*
X103009887Y-97439819D02*
X103009887Y-96439819D01*
X103009887Y-96439819D02*
X103105125Y-96582676D01*
X103105125Y-96582676D02*
X103200363Y-96677914D01*
X103200363Y-96677914D02*
X103295601Y-96725533D01*
X102295601Y-97344580D02*
X102247982Y-97392200D01*
X102247982Y-97392200D02*
X102295601Y-97439819D01*
X102295601Y-97439819D02*
X102343220Y-97392200D01*
X102343220Y-97392200D02*
X102295601Y-97344580D01*
X102295601Y-97344580D02*
X102295601Y-97439819D01*
X101628935Y-96439819D02*
X101533697Y-96439819D01*
X101533697Y-96439819D02*
X101438459Y-96487438D01*
X101438459Y-96487438D02*
X101390840Y-96535057D01*
X101390840Y-96535057D02*
X101343221Y-96630295D01*
X101343221Y-96630295D02*
X101295602Y-96820771D01*
X101295602Y-96820771D02*
X101295602Y-97058866D01*
X101295602Y-97058866D02*
X101343221Y-97249342D01*
X101343221Y-97249342D02*
X101390840Y-97344580D01*
X101390840Y-97344580D02*
X101438459Y-97392200D01*
X101438459Y-97392200D02*
X101533697Y-97439819D01*
X101533697Y-97439819D02*
X101628935Y-97439819D01*
X101628935Y-97439819D02*
X101724173Y-97392200D01*
X101724173Y-97392200D02*
X101771792Y-97344580D01*
X101771792Y-97344580D02*
X101819411Y-97249342D01*
X101819411Y-97249342D02*
X101867030Y-97058866D01*
X101867030Y-97058866D02*
X101867030Y-96820771D01*
X101867030Y-96820771D02*
X101819411Y-96630295D01*
X101819411Y-96630295D02*
X101771792Y-96535057D01*
X101771792Y-96535057D02*
X101724173Y-96487438D01*
X101724173Y-96487438D02*
X101628935Y-96439819D01*
X105914649Y-98049819D02*
X106105125Y-98049819D01*
X106105125Y-98049819D02*
X106200363Y-98097438D01*
X106200363Y-98097438D02*
X106247982Y-98145057D01*
X106247982Y-98145057D02*
X106343220Y-98287914D01*
X106343220Y-98287914D02*
X106390839Y-98478390D01*
X106390839Y-98478390D02*
X106390839Y-98859342D01*
X106390839Y-98859342D02*
X106343220Y-98954580D01*
X106343220Y-98954580D02*
X106295601Y-99002200D01*
X106295601Y-99002200D02*
X106200363Y-99049819D01*
X106200363Y-99049819D02*
X106009887Y-99049819D01*
X106009887Y-99049819D02*
X105914649Y-99002200D01*
X105914649Y-99002200D02*
X105867030Y-98954580D01*
X105867030Y-98954580D02*
X105819411Y-98859342D01*
X105819411Y-98859342D02*
X105819411Y-98621247D01*
X105819411Y-98621247D02*
X105867030Y-98526009D01*
X105867030Y-98526009D02*
X105914649Y-98478390D01*
X105914649Y-98478390D02*
X106009887Y-98430771D01*
X106009887Y-98430771D02*
X106200363Y-98430771D01*
X106200363Y-98430771D02*
X106295601Y-98478390D01*
X106295601Y-98478390D02*
X106343220Y-98526009D01*
X106343220Y-98526009D02*
X106390839Y-98621247D01*
X105390839Y-98954580D02*
X105343220Y-99002200D01*
X105343220Y-99002200D02*
X105390839Y-99049819D01*
X105390839Y-99049819D02*
X105438458Y-99002200D01*
X105438458Y-99002200D02*
X105390839Y-98954580D01*
X105390839Y-98954580D02*
X105390839Y-99049819D01*
X104486078Y-98383152D02*
X104486078Y-99049819D01*
X104724173Y-98002200D02*
X104962268Y-98716485D01*
X104962268Y-98716485D02*
X104343221Y-98716485D01*
X103962268Y-98954580D02*
X103914649Y-99002200D01*
X103914649Y-99002200D02*
X103962268Y-99049819D01*
X103962268Y-99049819D02*
X104009887Y-99002200D01*
X104009887Y-99002200D02*
X103962268Y-98954580D01*
X103962268Y-98954580D02*
X103962268Y-99049819D01*
X103533697Y-98145057D02*
X103486078Y-98097438D01*
X103486078Y-98097438D02*
X103390840Y-98049819D01*
X103390840Y-98049819D02*
X103152745Y-98049819D01*
X103152745Y-98049819D02*
X103057507Y-98097438D01*
X103057507Y-98097438D02*
X103009888Y-98145057D01*
X103009888Y-98145057D02*
X102962269Y-98240295D01*
X102962269Y-98240295D02*
X102962269Y-98335533D01*
X102962269Y-98335533D02*
X103009888Y-98478390D01*
X103009888Y-98478390D02*
X103581316Y-99049819D01*
X103581316Y-99049819D02*
X102962269Y-99049819D01*
X102343221Y-98049819D02*
X102247983Y-98049819D01*
X102247983Y-98049819D02*
X102152745Y-98097438D01*
X102152745Y-98097438D02*
X102105126Y-98145057D01*
X102105126Y-98145057D02*
X102057507Y-98240295D01*
X102057507Y-98240295D02*
X102009888Y-98430771D01*
X102009888Y-98430771D02*
X102009888Y-98668866D01*
X102009888Y-98668866D02*
X102057507Y-98859342D01*
X102057507Y-98859342D02*
X102105126Y-98954580D01*
X102105126Y-98954580D02*
X102152745Y-99002200D01*
X102152745Y-99002200D02*
X102247983Y-99049819D01*
X102247983Y-99049819D02*
X102343221Y-99049819D01*
X102343221Y-99049819D02*
X102438459Y-99002200D01*
X102438459Y-99002200D02*
X102486078Y-98954580D01*
X102486078Y-98954580D02*
X102533697Y-98859342D01*
X102533697Y-98859342D02*
X102581316Y-98668866D01*
X102581316Y-98668866D02*
X102581316Y-98430771D01*
X102581316Y-98430771D02*
X102533697Y-98240295D01*
X102533697Y-98240295D02*
X102486078Y-98145057D01*
X102486078Y-98145057D02*
X102438459Y-98097438D01*
X102438459Y-98097438D02*
X102343221Y-98049819D01*
X101628935Y-98145057D02*
X101581316Y-98097438D01*
X101581316Y-98097438D02*
X101486078Y-98049819D01*
X101486078Y-98049819D02*
X101247983Y-98049819D01*
X101247983Y-98049819D02*
X101152745Y-98097438D01*
X101152745Y-98097438D02*
X101105126Y-98145057D01*
X101105126Y-98145057D02*
X101057507Y-98240295D01*
X101057507Y-98240295D02*
X101057507Y-98335533D01*
X101057507Y-98335533D02*
X101105126Y-98478390D01*
X101105126Y-98478390D02*
X101676554Y-99049819D01*
X101676554Y-99049819D02*
X101057507Y-99049819D01*
X100724173Y-98049819D02*
X100105126Y-98049819D01*
X100105126Y-98049819D02*
X100438459Y-98430771D01*
X100438459Y-98430771D02*
X100295602Y-98430771D01*
X100295602Y-98430771D02*
X100200364Y-98478390D01*
X100200364Y-98478390D02*
X100152745Y-98526009D01*
X100152745Y-98526009D02*
X100105126Y-98621247D01*
X100105126Y-98621247D02*
X100105126Y-98859342D01*
X100105126Y-98859342D02*
X100152745Y-98954580D01*
X100152745Y-98954580D02*
X100200364Y-99002200D01*
X100200364Y-99002200D02*
X100295602Y-99049819D01*
X100295602Y-99049819D02*
X100581316Y-99049819D01*
X100581316Y-99049819D02*
X100676554Y-99002200D01*
X100676554Y-99002200D02*
X100724173Y-98954580D01*
X178538094Y-110309819D02*
X178538094Y-109309819D01*
X178538094Y-109309819D02*
X178299999Y-109309819D01*
X178299999Y-109309819D02*
X178157142Y-109357438D01*
X178157142Y-109357438D02*
X178061904Y-109452676D01*
X178061904Y-109452676D02*
X178014285Y-109547914D01*
X178014285Y-109547914D02*
X177966666Y-109738390D01*
X177966666Y-109738390D02*
X177966666Y-109881247D01*
X177966666Y-109881247D02*
X178014285Y-110071723D01*
X178014285Y-110071723D02*
X178061904Y-110166961D01*
X178061904Y-110166961D02*
X178157142Y-110262200D01*
X178157142Y-110262200D02*
X178299999Y-110309819D01*
X178299999Y-110309819D02*
X178538094Y-110309819D01*
X177633332Y-109309819D02*
X177014285Y-109309819D01*
X177014285Y-109309819D02*
X177347618Y-109690771D01*
X177347618Y-109690771D02*
X177204761Y-109690771D01*
X177204761Y-109690771D02*
X177109523Y-109738390D01*
X177109523Y-109738390D02*
X177061904Y-109786009D01*
X177061904Y-109786009D02*
X177014285Y-109881247D01*
X177014285Y-109881247D02*
X177014285Y-110119342D01*
X177014285Y-110119342D02*
X177061904Y-110214580D01*
X177061904Y-110214580D02*
X177109523Y-110262200D01*
X177109523Y-110262200D02*
X177204761Y-110309819D01*
X177204761Y-110309819D02*
X177490475Y-110309819D01*
X177490475Y-110309819D02*
X177585713Y-110262200D01*
X177585713Y-110262200D02*
X177633332Y-110214580D01*
X79478094Y-110563819D02*
X79478094Y-109563819D01*
X79478094Y-109563819D02*
X79239999Y-109563819D01*
X79239999Y-109563819D02*
X79097142Y-109611438D01*
X79097142Y-109611438D02*
X79001904Y-109706676D01*
X79001904Y-109706676D02*
X78954285Y-109801914D01*
X78954285Y-109801914D02*
X78906666Y-109992390D01*
X78906666Y-109992390D02*
X78906666Y-110135247D01*
X78906666Y-110135247D02*
X78954285Y-110325723D01*
X78954285Y-110325723D02*
X79001904Y-110420961D01*
X79001904Y-110420961D02*
X79097142Y-110516200D01*
X79097142Y-110516200D02*
X79239999Y-110563819D01*
X79239999Y-110563819D02*
X79478094Y-110563819D01*
X77954285Y-110563819D02*
X78525713Y-110563819D01*
X78239999Y-110563819D02*
X78239999Y-109563819D01*
X78239999Y-109563819D02*
X78335237Y-109706676D01*
X78335237Y-109706676D02*
X78430475Y-109801914D01*
X78430475Y-109801914D02*
X78525713Y-109849533D01*
X215368094Y-110436819D02*
X215368094Y-109436819D01*
X215368094Y-109436819D02*
X215129999Y-109436819D01*
X215129999Y-109436819D02*
X214987142Y-109484438D01*
X214987142Y-109484438D02*
X214891904Y-109579676D01*
X214891904Y-109579676D02*
X214844285Y-109674914D01*
X214844285Y-109674914D02*
X214796666Y-109865390D01*
X214796666Y-109865390D02*
X214796666Y-110008247D01*
X214796666Y-110008247D02*
X214844285Y-110198723D01*
X214844285Y-110198723D02*
X214891904Y-110293961D01*
X214891904Y-110293961D02*
X214987142Y-110389200D01*
X214987142Y-110389200D02*
X215129999Y-110436819D01*
X215129999Y-110436819D02*
X215368094Y-110436819D01*
X213939523Y-109770152D02*
X213939523Y-110436819D01*
X214177618Y-109389200D02*
X214415713Y-110103485D01*
X214415713Y-110103485D02*
X213796666Y-110103485D01*
X118213094Y-110436819D02*
X118213094Y-109436819D01*
X118213094Y-109436819D02*
X117974999Y-109436819D01*
X117974999Y-109436819D02*
X117832142Y-109484438D01*
X117832142Y-109484438D02*
X117736904Y-109579676D01*
X117736904Y-109579676D02*
X117689285Y-109674914D01*
X117689285Y-109674914D02*
X117641666Y-109865390D01*
X117641666Y-109865390D02*
X117641666Y-110008247D01*
X117641666Y-110008247D02*
X117689285Y-110198723D01*
X117689285Y-110198723D02*
X117736904Y-110293961D01*
X117736904Y-110293961D02*
X117832142Y-110389200D01*
X117832142Y-110389200D02*
X117974999Y-110436819D01*
X117974999Y-110436819D02*
X118213094Y-110436819D01*
X117260713Y-109532057D02*
X117213094Y-109484438D01*
X117213094Y-109484438D02*
X117117856Y-109436819D01*
X117117856Y-109436819D02*
X116879761Y-109436819D01*
X116879761Y-109436819D02*
X116784523Y-109484438D01*
X116784523Y-109484438D02*
X116736904Y-109532057D01*
X116736904Y-109532057D02*
X116689285Y-109627295D01*
X116689285Y-109627295D02*
X116689285Y-109722533D01*
X116689285Y-109722533D02*
X116736904Y-109865390D01*
X116736904Y-109865390D02*
X117308332Y-110436819D01*
X117308332Y-110436819D02*
X116689285Y-110436819D01*
D12*
X171840000Y-113405000D02*
X171840000Y-107705000D01*
X176140000Y-113405000D02*
X171840000Y-113405000D01*
X176140000Y-113405000D02*
X176140000Y-107705000D01*
X80400000Y-106559000D02*
X80400000Y-112259000D01*
X80400000Y-106559000D02*
X84700000Y-106559000D01*
X84700000Y-106559000D02*
X84700000Y-112259000D01*
X212843000Y-113532000D02*
X208543000Y-113532000D01*
X212843000Y-113532000D02*
X212843000Y-107832000D01*
X208543000Y-113532000D02*
X208543000Y-107832000D01*
X123308000Y-106432000D02*
X123308000Y-112132000D01*
X119008000Y-106432000D02*
X123308000Y-106432000D01*
X119008000Y-106432000D02*
X119008000Y-112132000D01*
%LPC*%
D13*
X215646000Y-106294500D03*
D14*
X200646000Y-106294500D03*
X195646000Y-106294500D03*
X190646000Y-106294500D03*
X190646000Y-113794500D03*
X195646000Y-113794500D03*
X200646000Y-113794500D03*
X215646000Y-113794500D03*
D15*
X204000000Y-89100000D03*
X194881400Y-98218600D03*
X194881400Y-79981400D03*
X213118600Y-79981400D03*
X213118600Y-98218600D03*
D16*
X105410000Y-111125000D03*
D17*
X102870000Y-111125000D03*
X105410000Y-108585000D03*
X102870000Y-108585000D03*
X105410000Y-106045000D03*
X102870000Y-106045000D03*
X105410000Y-103505000D03*
X102870000Y-103505000D03*
D18*
X100965000Y-84510000D03*
D15*
X128016000Y-89100000D03*
X118897400Y-98218600D03*
X137134600Y-98218600D03*
X118897400Y-79981400D03*
X137134600Y-79981400D03*
X73025000Y-89100000D03*
X82143600Y-79981400D03*
X63906400Y-98218600D03*
X63906400Y-79981400D03*
X82143600Y-98218600D03*
X166700000Y-89100000D03*
X157581400Y-98218600D03*
X175818600Y-98218600D03*
X175818600Y-79981400D03*
X157581400Y-79981400D03*
D13*
X178689000Y-106294500D03*
D14*
X163689000Y-106294500D03*
X158689000Y-106294500D03*
X153689000Y-106294500D03*
X153689000Y-113794500D03*
X158689000Y-113794500D03*
X163689000Y-113794500D03*
X178689000Y-113794500D03*
D13*
X115824000Y-113792000D03*
D14*
X130824000Y-113792000D03*
X135824000Y-113792000D03*
X140824000Y-113792000D03*
X140824000Y-106292000D03*
X135824000Y-106292000D03*
X130824000Y-106292000D03*
X115824000Y-106292000D03*
D13*
X87475500Y-106294500D03*
D14*
X72475500Y-106294500D03*
X67475500Y-106294500D03*
X62475500Y-106294500D03*
X62475500Y-113794500D03*
X67475500Y-113794500D03*
X72475500Y-113794500D03*
X87475500Y-113794500D03*
D19*
X173990000Y-112005000D03*
X173990000Y-107705000D03*
X82550000Y-107959000D03*
X82550000Y-112259000D03*
X210693000Y-112132000D03*
X210693000Y-107832000D03*
X121158000Y-107832000D03*
X121158000Y-112132000D03*
%LPD*%
M02*
