G04 #@! TF.GenerationSoftware,KiCad,Pcbnew,7.0.9-7.0.9~ubuntu20.04.1*
G04 #@! TF.CreationDate,2023-12-17T17:55:52+01:00*
G04 #@! TF.ProjectId,PL_switch,504c5f73-7769-4746-9368-2e6b69636164,1.0*
G04 #@! TF.SameCoordinates,Original*
G04 #@! TF.FileFunction,Copper,L1,Top*
G04 #@! TF.FilePolarity,Positive*
%FSLAX46Y46*%
G04 Gerber Fmt 4.6, Leading zero omitted, Abs format (unit mm)*
G04 Created by KiCad (PCBNEW 7.0.9-7.0.9~ubuntu20.04.1) date 2023-12-17 17:55:52*
%MOMM*%
%LPD*%
G01*
G04 APERTURE LIST*
G04 Aperture macros list*
%AMRoundRect*
0 Rectangle with rounded corners*
0 $1 Rounding radius*
0 $2 $3 $4 $5 $6 $7 $8 $9 X,Y pos of 4 corners*
0 Add a 4 corners polygon primitive as box body*
4,1,4,$2,$3,$4,$5,$6,$7,$8,$9,$2,$3,0*
0 Add four circle primitives for the rounded corners*
1,1,$1+$1,$2,$3*
1,1,$1+$1,$4,$5*
1,1,$1+$1,$6,$7*
1,1,$1+$1,$8,$9*
0 Add four rect primitives between the rounded corners*
20,1,$1+$1,$2,$3,$4,$5,0*
20,1,$1+$1,$4,$5,$6,$7,0*
20,1,$1+$1,$6,$7,$8,$9,0*
20,1,$1+$1,$8,$9,$2,$3,0*%
G04 Aperture macros list end*
G04 #@! TA.AperFunction,ComponentPad*
%ADD10R,2.500000X2.500000*%
G04 #@! TD*
G04 #@! TA.AperFunction,ComponentPad*
%ADD11O,2.500000X2.500000*%
G04 #@! TD*
G04 #@! TA.AperFunction,SMDPad,CuDef*
%ADD12RoundRect,0.250000X-0.337500X-0.475000X0.337500X-0.475000X0.337500X0.475000X-0.337500X0.475000X0*%
G04 #@! TD*
G04 #@! TA.AperFunction,ComponentPad*
%ADD13C,5.842000*%
G04 #@! TD*
G04 #@! TA.AperFunction,ComponentPad*
%ADD14R,1.700000X1.700000*%
G04 #@! TD*
G04 #@! TA.AperFunction,ComponentPad*
%ADD15O,1.700000X1.700000*%
G04 #@! TD*
G04 #@! TA.AperFunction,SMDPad,CuDef*
%ADD16R,3.000000X9.000000*%
G04 #@! TD*
G04 #@! TA.AperFunction,SMDPad,CuDef*
%ADD17R,6.000000X3.000000*%
G04 #@! TD*
G04 #@! TA.AperFunction,SMDPad,CuDef*
%ADD18RoundRect,2.500000X-1.500000X0.000000X1.500000X0.000000X1.500000X0.000000X-1.500000X0.000000X0*%
G04 #@! TD*
G04 #@! TA.AperFunction,SMDPad,CuDef*
%ADD19RoundRect,0.250000X-3.750000X-2.250000X3.750000X-2.250000X3.750000X2.250000X-3.750000X2.250000X0*%
G04 #@! TD*
G04 #@! TA.AperFunction,ViaPad*
%ADD20C,0.800000*%
G04 #@! TD*
G04 #@! TA.AperFunction,Conductor*
%ADD21C,3.900000*%
G04 #@! TD*
G04 #@! TA.AperFunction,Conductor*
%ADD22C,2.499800*%
G04 #@! TD*
G04 #@! TA.AperFunction,Conductor*
%ADD23C,1.000000*%
G04 #@! TD*
G04 APERTURE END LIST*
D10*
X215646000Y-106294500D03*
D11*
X200646000Y-106294500D03*
X195646000Y-106294500D03*
X190646000Y-106294500D03*
X190646000Y-113794500D03*
X195646000Y-113794500D03*
X200646000Y-113794500D03*
X215646000Y-113794500D03*
D12*
X108585000Y-80010000D03*
X110660000Y-80010000D03*
D13*
X204000000Y-89100000D03*
X194881400Y-98218600D03*
X194881400Y-79981400D03*
X213118600Y-79981400D03*
X213118600Y-98218600D03*
D14*
X105410000Y-111125000D03*
D15*
X102870000Y-111125000D03*
X105410000Y-108585000D03*
X102870000Y-108585000D03*
X105410000Y-106045000D03*
X102870000Y-106045000D03*
X105410000Y-103505000D03*
X102870000Y-103505000D03*
D16*
X96465000Y-83010000D03*
D17*
X100965000Y-80010000D03*
D18*
X69215000Y-119634000D03*
D19*
X79715000Y-119634000D03*
D13*
X128016000Y-89100000D03*
X118897400Y-98218600D03*
X137134600Y-98218600D03*
X118897400Y-79981400D03*
X137134600Y-79981400D03*
X73025000Y-89100000D03*
X82143600Y-79981400D03*
X63906400Y-98218600D03*
X63906400Y-79981400D03*
X82143600Y-98218600D03*
X166700000Y-89100000D03*
X157581400Y-98218600D03*
X175818600Y-98218600D03*
X175818600Y-79981400D03*
X157581400Y-79981400D03*
D10*
X178689000Y-106294500D03*
D11*
X163689000Y-106294500D03*
X158689000Y-106294500D03*
X153689000Y-106294500D03*
X153689000Y-113794500D03*
X158689000Y-113794500D03*
X163689000Y-113794500D03*
X178689000Y-113794500D03*
D10*
X115824000Y-113792000D03*
D11*
X130824000Y-113792000D03*
X135824000Y-113792000D03*
X140824000Y-113792000D03*
X140824000Y-106292000D03*
X135824000Y-106292000D03*
X130824000Y-106292000D03*
X115824000Y-106292000D03*
D18*
X145915000Y-119634000D03*
D19*
X156415000Y-119634000D03*
D10*
X87475500Y-106294500D03*
D11*
X72475500Y-106294500D03*
X67475500Y-106294500D03*
X62475500Y-106294500D03*
X62475500Y-113794500D03*
X67475500Y-113794500D03*
X72475500Y-113794500D03*
X87475500Y-113794500D03*
D20*
X99276900Y-101168900D03*
X98565200Y-111095200D03*
X130727700Y-94854000D03*
D21*
X73025000Y-98425000D02*
X73025000Y-89100000D01*
X67475500Y-103974500D02*
X73025000Y-98425000D01*
X67475500Y-106294500D02*
X67475500Y-113794500D01*
X67475500Y-106294500D02*
X67475500Y-103974500D01*
X67475900Y-110044200D02*
X67475900Y-113794100D01*
D22*
X67475900Y-113794100D02*
X67475500Y-113794500D01*
D23*
X99276900Y-97580500D02*
X96465000Y-94768600D01*
X100965000Y-80010000D02*
X96964700Y-80010000D01*
X99276900Y-101168900D02*
X99276900Y-97580500D01*
X108585000Y-80010000D02*
X100965000Y-80010000D01*
X96964700Y-82510300D02*
X96465000Y-83010000D01*
X96964700Y-80010000D02*
X96964700Y-82510300D01*
X96465000Y-94768600D02*
X96465000Y-83010000D01*
D21*
X153689000Y-106294500D02*
X147955000Y-100560500D01*
X147955000Y-100560500D02*
X147955000Y-91440000D01*
X153689000Y-106294500D02*
X153689000Y-113794500D01*
X147955000Y-91440000D02*
X145615000Y-89100000D01*
X145615000Y-89100000D02*
X128016000Y-89100000D01*
D23*
X120521532Y-83902400D02*
X119842100Y-83902400D01*
X215646000Y-104044200D02*
X217082000Y-102608200D01*
X197857932Y-82550000D02*
X196505532Y-83902400D01*
X159205532Y-83902400D02*
X155957268Y-83902400D01*
X119842100Y-83902400D02*
X101019700Y-102724800D01*
X160557932Y-82550000D02*
X159205532Y-83902400D01*
X138758732Y-83902400D02*
X135510468Y-83902400D01*
X217082000Y-102608200D02*
X217082000Y-92622000D01*
X207010000Y-82550000D02*
X197857932Y-82550000D01*
X135510468Y-83902400D02*
X134158068Y-82550000D01*
X217082000Y-92622000D02*
X207010000Y-82550000D01*
X215646000Y-106294500D02*
X215646000Y-104044200D01*
X196505532Y-83902400D02*
X174194468Y-83902400D01*
X101019700Y-108585000D02*
X102870000Y-108585000D01*
X121873932Y-82550000D02*
X120521532Y-83902400D01*
X134158068Y-82550000D02*
X121873932Y-82550000D01*
X140111132Y-82550000D02*
X138758732Y-83902400D01*
X154604868Y-82550000D02*
X140111132Y-82550000D01*
X174194468Y-83902400D02*
X172842068Y-82550000D01*
X101019700Y-102724800D02*
X101019700Y-108585000D01*
X155957268Y-83902400D02*
X154604868Y-82550000D01*
X172842068Y-82550000D02*
X160557932Y-82550000D01*
X82143600Y-79981400D02*
X63906400Y-79981400D01*
D21*
X156415000Y-119634000D02*
X166751000Y-119634000D01*
X94615000Y-98425000D02*
X94408600Y-98218600D01*
X93091000Y-119634000D02*
X94615000Y-118110000D01*
X94615000Y-118110000D02*
X94615000Y-98425000D01*
D23*
X118897400Y-79981400D02*
X110688600Y-79981400D01*
D21*
X166751000Y-119634000D02*
X169545000Y-116840000D01*
X94408600Y-98218600D02*
X82143600Y-98218600D01*
X169545000Y-98425000D02*
X169751400Y-98218600D01*
X169545000Y-116840000D02*
X169545000Y-98425000D01*
D23*
X137134600Y-79981400D02*
X118897400Y-79981400D01*
D21*
X169751400Y-98218600D02*
X175818600Y-98218600D01*
X79715000Y-119634000D02*
X93091000Y-119634000D01*
D23*
X110688600Y-79981400D02*
X110660000Y-80010000D01*
X194881400Y-79981400D02*
X213118600Y-79981400D01*
X157581400Y-79981400D02*
X175818600Y-79981400D01*
D21*
X185420000Y-101068500D02*
X185420000Y-91440000D01*
X183080000Y-89100000D02*
X166700000Y-89100000D01*
X185420000Y-91440000D02*
X183080000Y-89100000D01*
X190646000Y-106294500D02*
X185420000Y-101068500D01*
X190646000Y-106294500D02*
X190646000Y-113794500D01*
X204000000Y-99530000D02*
X204000000Y-89100000D01*
X200646000Y-102884000D02*
X204000000Y-99530000D01*
X200646000Y-106294500D02*
X200646000Y-113794500D01*
X200646000Y-106294500D02*
X200646000Y-102884000D01*
D23*
X130727700Y-94854000D02*
X119289700Y-106292000D01*
X213395700Y-113794500D02*
X209822400Y-117367800D01*
X215646000Y-113794500D02*
X213395700Y-113794500D01*
X113573700Y-106292000D02*
X108740700Y-111125000D01*
X108740700Y-111125000D02*
X105410000Y-111125000D01*
X178689000Y-113794500D02*
X180939300Y-113794500D01*
X105410000Y-111125000D02*
X105410000Y-112975300D01*
X119289700Y-106292000D02*
X115824000Y-106292000D01*
X115824000Y-106292000D02*
X113573700Y-106292000D01*
X209822400Y-117367800D02*
X184512600Y-117367800D01*
X100445300Y-112975300D02*
X98565200Y-111095200D01*
X105410000Y-112975300D02*
X100445300Y-112975300D01*
X184512600Y-117367800D02*
X180939300Y-113794500D01*
D21*
X140824000Y-106292000D02*
X140824000Y-113792000D01*
X140824000Y-113792000D02*
X140824000Y-114543000D01*
X140824000Y-114543000D02*
X145915000Y-119634000D01*
X62475500Y-117085500D02*
X65024000Y-119634000D01*
X65024000Y-119634000D02*
X66547234Y-119634000D01*
X62475500Y-113794500D02*
X62475500Y-117085500D01*
X62475500Y-106294500D02*
X62475500Y-113794500D01*
X66547234Y-119634000D02*
X69215000Y-119634000D01*
G04 #@! TA.AperFunction,Conductor*
G36*
X105664000Y-105611325D02*
G01*
X105552315Y-105560320D01*
X105445763Y-105545000D01*
X105374237Y-105545000D01*
X105267685Y-105560320D01*
X105156000Y-105611325D01*
X105156000Y-103938674D01*
X105267685Y-103989680D01*
X105374237Y-104005000D01*
X105445763Y-104005000D01*
X105552315Y-103989680D01*
X105664000Y-103938674D01*
X105664000Y-105611325D01*
G37*
G04 #@! TD.AperFunction*
G04 #@! TA.AperFunction,Conductor*
G36*
X219016621Y-73680502D02*
G01*
X219063114Y-73734158D01*
X219074500Y-73786500D01*
X219074500Y-122428500D01*
X219054498Y-122496621D01*
X219000842Y-122543114D01*
X218948500Y-122554500D01*
X160867783Y-122554500D01*
X160799662Y-122534498D01*
X160753169Y-122480842D01*
X160743065Y-122410568D01*
X160760542Y-122362353D01*
X160856657Y-122206525D01*
X160912393Y-122038321D01*
X160912394Y-122038318D01*
X160922999Y-121934516D01*
X160923000Y-121934516D01*
X160923000Y-119888000D01*
X151907000Y-119888000D01*
X151907000Y-121934516D01*
X151917605Y-122038318D01*
X151917606Y-122038321D01*
X151973342Y-122206525D01*
X152069458Y-122362353D01*
X152088195Y-122430833D01*
X152066936Y-122498571D01*
X152012428Y-122544063D01*
X151962217Y-122554500D01*
X149885547Y-122554500D01*
X149817426Y-122534498D01*
X149770933Y-122480842D01*
X149760829Y-122410568D01*
X149790323Y-122345988D01*
X149806252Y-122330580D01*
X149824963Y-122315428D01*
X149827511Y-122313365D01*
X150094365Y-122046511D01*
X150331863Y-121753225D01*
X150537403Y-121436721D01*
X150708734Y-121100465D01*
X150843978Y-120748143D01*
X150941653Y-120383613D01*
X151000690Y-120010871D01*
X151000690Y-120010866D01*
X151000691Y-120010862D01*
X151015500Y-119728287D01*
X151015500Y-119539713D01*
X151000691Y-119257137D01*
X150963077Y-119019655D01*
X150941653Y-118884387D01*
X150843978Y-118519857D01*
X150843977Y-118519855D01*
X150843976Y-118519850D01*
X150708738Y-118167544D01*
X150708734Y-118167535D01*
X150537408Y-117831288D01*
X150537406Y-117831285D01*
X150537403Y-117831279D01*
X150398429Y-117617278D01*
X150331868Y-117514782D01*
X150331856Y-117514765D01*
X150094368Y-117221493D01*
X150094365Y-117221489D01*
X150094361Y-117221485D01*
X150094354Y-117221477D01*
X149827522Y-116954645D01*
X149827506Y-116954631D01*
X149534234Y-116717143D01*
X149534217Y-116717131D01*
X149352595Y-116599185D01*
X149217721Y-116511597D01*
X149217716Y-116511594D01*
X149217711Y-116511591D01*
X148881463Y-116340265D01*
X148881455Y-116340261D01*
X148529149Y-116205023D01*
X148164611Y-116107346D01*
X147791862Y-116048308D01*
X147509287Y-116033500D01*
X147509280Y-116033500D01*
X146680749Y-116033500D01*
X146612628Y-116013498D01*
X146591654Y-115996595D01*
X143911405Y-113316346D01*
X143877379Y-113254034D01*
X143874500Y-113227251D01*
X143874500Y-106204858D01*
X143874500Y-106204855D01*
X143859567Y-105943701D01*
X143800077Y-105599943D01*
X143701789Y-105265207D01*
X143565986Y-104943856D01*
X143458398Y-104753342D01*
X143394439Y-104640086D01*
X143394433Y-104640077D01*
X143360674Y-104593612D01*
X143189377Y-104357841D01*
X142953481Y-104100816D01*
X142689824Y-103872356D01*
X142689819Y-103872352D01*
X142401846Y-103675441D01*
X142401847Y-103675441D01*
X142186542Y-103561837D01*
X142093294Y-103512635D01*
X141768196Y-103386063D01*
X141768194Y-103386062D01*
X141768195Y-103386062D01*
X141430798Y-103297375D01*
X141430788Y-103297373D01*
X141085481Y-103247725D01*
X140899485Y-103242411D01*
X140736747Y-103237763D01*
X140736745Y-103237763D01*
X140736740Y-103237763D01*
X140389156Y-103267617D01*
X140047250Y-103336895D01*
X140047246Y-103336897D01*
X139715449Y-103444703D01*
X139398100Y-103589632D01*
X139099356Y-103769782D01*
X138823083Y-103982820D01*
X138616409Y-104183675D01*
X138572900Y-104225959D01*
X138411602Y-104423218D01*
X138352058Y-104496037D01*
X138163450Y-104789517D01*
X138163449Y-104789519D01*
X138040944Y-105038681D01*
X137992938Y-105090987D01*
X137924274Y-105109036D01*
X137856752Y-105087096D01*
X137823109Y-105053091D01*
X137692778Y-104858036D01*
X137489620Y-104626380D01*
X137257964Y-104423222D01*
X137257963Y-104423221D01*
X137257957Y-104423216D01*
X137001769Y-104252038D01*
X136730503Y-104118265D01*
X136725427Y-104115762D01*
X136725422Y-104115760D01*
X136725419Y-104115759D01*
X136433667Y-104016722D01*
X136433661Y-104016720D01*
X136433659Y-104016720D01*
X136346979Y-103999478D01*
X136131470Y-103956610D01*
X136131455Y-103956608D01*
X135824003Y-103936457D01*
X135823997Y-103936457D01*
X135516544Y-103956608D01*
X135516529Y-103956610D01*
X135257680Y-104008099D01*
X135214341Y-104016720D01*
X135214339Y-104016720D01*
X135214332Y-104016722D01*
X134922580Y-104115759D01*
X134922566Y-104115765D01*
X134646231Y-104252038D01*
X134390040Y-104423218D01*
X134390038Y-104423220D01*
X134158380Y-104626380D01*
X133955220Y-104858038D01*
X133955218Y-104858040D01*
X133784038Y-105114231D01*
X133647765Y-105390566D01*
X133647759Y-105390580D01*
X133548722Y-105682332D01*
X133548720Y-105682339D01*
X133548720Y-105682341D01*
X133540099Y-105725680D01*
X133488610Y-105984529D01*
X133488608Y-105984544D01*
X133468457Y-106291996D01*
X133468457Y-106292003D01*
X133488608Y-106599455D01*
X133488610Y-106599470D01*
X133512628Y-106720212D01*
X133544863Y-106882270D01*
X133548720Y-106901657D01*
X133548722Y-106901667D01*
X133647759Y-107193419D01*
X133647765Y-107193433D01*
X133784038Y-107469769D01*
X133955216Y-107725957D01*
X133955221Y-107725963D01*
X133955222Y-107725964D01*
X134158380Y-107957620D01*
X134390036Y-108160778D01*
X134390042Y-108160783D01*
X134581307Y-108288581D01*
X134646228Y-108331960D01*
X134922573Y-108468238D01*
X135214341Y-108567280D01*
X135475560Y-108619239D01*
X135516529Y-108627389D01*
X135516531Y-108627389D01*
X135516540Y-108627391D01*
X135692231Y-108638906D01*
X135823997Y-108647543D01*
X135824000Y-108647543D01*
X135824003Y-108647543D01*
X135939297Y-108639986D01*
X136131460Y-108627391D01*
X136433659Y-108567280D01*
X136725427Y-108468238D01*
X137001772Y-108331960D01*
X137254215Y-108163283D01*
X137257957Y-108160783D01*
X137257958Y-108160781D01*
X137257964Y-108160778D01*
X137489620Y-107957620D01*
X137552769Y-107885611D01*
X137612722Y-107847586D01*
X137683717Y-107848008D01*
X137743214Y-107886747D01*
X137772322Y-107951502D01*
X137773500Y-107968691D01*
X137773500Y-112115308D01*
X137753498Y-112183429D01*
X137699842Y-112229922D01*
X137629568Y-112240026D01*
X137564988Y-112210532D01*
X137552769Y-112198386D01*
X137489624Y-112126384D01*
X137489621Y-112126382D01*
X137489620Y-112126380D01*
X137257964Y-111923222D01*
X137257963Y-111923221D01*
X137257957Y-111923216D01*
X137001769Y-111752038D01*
X136730503Y-111618265D01*
X136725427Y-111615762D01*
X136725422Y-111615760D01*
X136725419Y-111615759D01*
X136433667Y-111516722D01*
X136433661Y-111516720D01*
X136433659Y-111516720D01*
X136346979Y-111499478D01*
X136131470Y-111456610D01*
X136131455Y-111456608D01*
X135824003Y-111436457D01*
X135823997Y-111436457D01*
X135516544Y-111456608D01*
X135516529Y-111456610D01*
X135257680Y-111508099D01*
X135214341Y-111516720D01*
X135214339Y-111516720D01*
X135214332Y-111516722D01*
X134922580Y-111615759D01*
X134922566Y-111615765D01*
X134646231Y-111752038D01*
X134390040Y-111923218D01*
X134390038Y-111923220D01*
X134158380Y-112126380D01*
X133955220Y-112358038D01*
X133955218Y-112358040D01*
X133784038Y-112614231D01*
X133647765Y-112890566D01*
X133647759Y-112890580D01*
X133548722Y-113182332D01*
X133548720Y-113182342D01*
X133488610Y-113484529D01*
X133488608Y-113484544D01*
X133468457Y-113791996D01*
X133468457Y-113792003D01*
X133488608Y-114099455D01*
X133488610Y-114099470D01*
X133548720Y-114401657D01*
X133548722Y-114401667D01*
X133647759Y-114693419D01*
X133647765Y-114693433D01*
X133784038Y-114969769D01*
X133955216Y-115225957D01*
X133955221Y-115225963D01*
X133955222Y-115225964D01*
X134158380Y-115457620D01*
X134357495Y-115632240D01*
X134390042Y-115660783D01*
X134581307Y-115788581D01*
X134646228Y-115831960D01*
X134922573Y-115968238D01*
X135214341Y-116067280D01*
X135475560Y-116119239D01*
X135516529Y-116127389D01*
X135516531Y-116127389D01*
X135516540Y-116127391D01*
X135679562Y-116138076D01*
X135823997Y-116147543D01*
X135824000Y-116147543D01*
X135824003Y-116147543D01*
X135968438Y-116138076D01*
X136131460Y-116127391D01*
X136433659Y-116067280D01*
X136725427Y-115968238D01*
X137001772Y-115831960D01*
X137254215Y-115663283D01*
X137257957Y-115660783D01*
X137257958Y-115660781D01*
X137257964Y-115660778D01*
X137489620Y-115457620D01*
X137654594Y-115269503D01*
X137714544Y-115231478D01*
X137785540Y-115231900D01*
X137845036Y-115270638D01*
X137872443Y-115325799D01*
X137880291Y-115361876D01*
X137915482Y-115465141D01*
X137946210Y-115569792D01*
X137946212Y-115569796D01*
X137970824Y-115628036D01*
X137972426Y-115632240D01*
X137992821Y-115692087D01*
X137992828Y-115692105D01*
X138039551Y-115790663D01*
X138082010Y-115891136D01*
X138082016Y-115891148D01*
X138113113Y-115946213D01*
X138115180Y-115950200D01*
X138123730Y-115968234D01*
X138142262Y-116007327D01*
X138142269Y-116007341D01*
X138181146Y-116069777D01*
X138199919Y-116099926D01*
X138228221Y-116150043D01*
X138253565Y-116194920D01*
X138253566Y-116194922D01*
X138290733Y-116246077D01*
X138293246Y-116249809D01*
X138326664Y-116303480D01*
X138326676Y-116303496D01*
X138394503Y-116388906D01*
X138458619Y-116477155D01*
X138501372Y-116523737D01*
X138504293Y-116527157D01*
X138527450Y-116556316D01*
X138543627Y-116576686D01*
X138543630Y-116576689D01*
X138543634Y-116576694D01*
X138589187Y-116622246D01*
X138620765Y-116653824D01*
X138694519Y-116734184D01*
X138694521Y-116734186D01*
X138694526Y-116734191D01*
X138742309Y-116775595D01*
X138745587Y-116778646D01*
X139798220Y-117831279D01*
X140837888Y-118870947D01*
X140871914Y-118933259D01*
X140873242Y-118979753D01*
X140829308Y-119257137D01*
X140814500Y-119539713D01*
X140814500Y-119728287D01*
X140829308Y-120010862D01*
X140888346Y-120383611D01*
X140986023Y-120748149D01*
X141121261Y-121100455D01*
X141121265Y-121100463D01*
X141292591Y-121436711D01*
X141292594Y-121436716D01*
X141292597Y-121436721D01*
X141380185Y-121571595D01*
X141498131Y-121753217D01*
X141498143Y-121753234D01*
X141735631Y-122046506D01*
X141735645Y-122046522D01*
X142002484Y-122313361D01*
X142023748Y-122330580D01*
X142064100Y-122388995D01*
X142066464Y-122459952D01*
X142030091Y-122520923D01*
X141966529Y-122552551D01*
X141944453Y-122554500D01*
X84167783Y-122554500D01*
X84099662Y-122534498D01*
X84053169Y-122480842D01*
X84043065Y-122410568D01*
X84060542Y-122362353D01*
X84156657Y-122206525D01*
X84212393Y-122038321D01*
X84212394Y-122038318D01*
X84222999Y-121934516D01*
X84223000Y-121934516D01*
X84223000Y-119888000D01*
X75207000Y-119888000D01*
X75207000Y-121934516D01*
X75217605Y-122038318D01*
X75217606Y-122038321D01*
X75273342Y-122206525D01*
X75369458Y-122362353D01*
X75388195Y-122430833D01*
X75366936Y-122498571D01*
X75312428Y-122544063D01*
X75262217Y-122554500D01*
X73185547Y-122554500D01*
X73117426Y-122534498D01*
X73070933Y-122480842D01*
X73060829Y-122410568D01*
X73090323Y-122345988D01*
X73106252Y-122330580D01*
X73124963Y-122315428D01*
X73127511Y-122313365D01*
X73394365Y-122046511D01*
X73631863Y-121753225D01*
X73837403Y-121436721D01*
X74008734Y-121100465D01*
X74143978Y-120748143D01*
X74241653Y-120383613D01*
X74300690Y-120010871D01*
X74300690Y-120010866D01*
X74300691Y-120010862D01*
X74315500Y-119728287D01*
X74315500Y-119539713D01*
X74307130Y-119380000D01*
X75207000Y-119380000D01*
X79461000Y-119380000D01*
X79461000Y-116626000D01*
X79969000Y-116626000D01*
X79969000Y-119380000D01*
X84223000Y-119380000D01*
X84223000Y-117333483D01*
X84212394Y-117229681D01*
X84212393Y-117229678D01*
X84156657Y-117061474D01*
X84063634Y-116910660D01*
X84063629Y-116910654D01*
X83938345Y-116785370D01*
X83938339Y-116785365D01*
X83787525Y-116692342D01*
X83619321Y-116636606D01*
X83619318Y-116636605D01*
X83515516Y-116626000D01*
X79969000Y-116626000D01*
X79461000Y-116626000D01*
X75914483Y-116626000D01*
X75810681Y-116636605D01*
X75810678Y-116636606D01*
X75642474Y-116692342D01*
X75491660Y-116785365D01*
X75491654Y-116785370D01*
X75366370Y-116910654D01*
X75366365Y-116910660D01*
X75273342Y-117061474D01*
X75217606Y-117229678D01*
X75217605Y-117229681D01*
X75207000Y-117333483D01*
X75207000Y-119380000D01*
X74307130Y-119380000D01*
X74300691Y-119257137D01*
X74263077Y-119019655D01*
X74241653Y-118884387D01*
X74143978Y-118519857D01*
X74143977Y-118519855D01*
X74143976Y-118519850D01*
X74008738Y-118167544D01*
X74008734Y-118167535D01*
X73837408Y-117831288D01*
X73837406Y-117831285D01*
X73837403Y-117831279D01*
X73698429Y-117617278D01*
X73631868Y-117514782D01*
X73631856Y-117514765D01*
X73394368Y-117221493D01*
X73394365Y-117221489D01*
X73394361Y-117221485D01*
X73394354Y-117221477D01*
X73127522Y-116954645D01*
X73127506Y-116954631D01*
X72834234Y-116717143D01*
X72834217Y-116717131D01*
X72652595Y-116599185D01*
X72517721Y-116511597D01*
X72517716Y-116511594D01*
X72517711Y-116511591D01*
X72255322Y-116377898D01*
X72203707Y-116329150D01*
X72186641Y-116260235D01*
X72209542Y-116193033D01*
X72265139Y-116148881D01*
X72320765Y-116139901D01*
X72397678Y-116144942D01*
X72475497Y-116150043D01*
X72475500Y-116150043D01*
X72475503Y-116150043D01*
X72590797Y-116142486D01*
X72782960Y-116129891D01*
X73085159Y-116069780D01*
X73376927Y-115970738D01*
X73653272Y-115834460D01*
X73909464Y-115663278D01*
X74141120Y-115460120D01*
X74344278Y-115228464D01*
X74345949Y-115225964D01*
X74436374Y-115090632D01*
X74515460Y-114972272D01*
X74651738Y-114695927D01*
X74750780Y-114404159D01*
X74810891Y-114101960D01*
X74831043Y-113794500D01*
X85712069Y-113794500D01*
X85731765Y-114057326D01*
X85731766Y-114057330D01*
X85790411Y-114314275D01*
X85886702Y-114559620D01*
X85886705Y-114559628D01*
X86018482Y-114787872D01*
X86018484Y-114787875D01*
X86018485Y-114787876D01*
X86182814Y-114993938D01*
X86376019Y-115173206D01*
X86376025Y-115173210D01*
X86593775Y-115321670D01*
X86593779Y-115321672D01*
X86593785Y-115321676D01*
X86831246Y-115436032D01*
X86831249Y-115436032D01*
X86831254Y-115436035D01*
X87083089Y-115513715D01*
X87083091Y-115513715D01*
X87083100Y-115513718D01*
X87343719Y-115553000D01*
X87343723Y-115553000D01*
X87607277Y-115553000D01*
X87607281Y-115553000D01*
X87867900Y-115513718D01*
X87935433Y-115492887D01*
X88119745Y-115436035D01*
X88119747Y-115436034D01*
X88119754Y-115436032D01*
X88357216Y-115321676D01*
X88574981Y-115173206D01*
X88663956Y-115090649D01*
X114065500Y-115090649D01*
X114072009Y-115151196D01*
X114072011Y-115151204D01*
X114123110Y-115288202D01*
X114123112Y-115288207D01*
X114210738Y-115405261D01*
X114327792Y-115492887D01*
X114327794Y-115492888D01*
X114327796Y-115492889D01*
X114383640Y-115513718D01*
X114464795Y-115543988D01*
X114464803Y-115543990D01*
X114525350Y-115550499D01*
X114525355Y-115550499D01*
X114525362Y-115550500D01*
X114525368Y-115550500D01*
X117122632Y-115550500D01*
X117122638Y-115550500D01*
X117122645Y-115550499D01*
X117122649Y-115550499D01*
X117183196Y-115543990D01*
X117183199Y-115543989D01*
X117183201Y-115543989D01*
X117320204Y-115492889D01*
X117363980Y-115460119D01*
X117437261Y-115405261D01*
X117524887Y-115288207D01*
X117524887Y-115288206D01*
X117524889Y-115288204D01*
X117575989Y-115151201D01*
X117576911Y-115142632D01*
X117582499Y-115090649D01*
X117582500Y-115090632D01*
X117582500Y-113792003D01*
X128468457Y-113792003D01*
X128488608Y-114099455D01*
X128488610Y-114099470D01*
X128548720Y-114401657D01*
X128548722Y-114401667D01*
X128647759Y-114693419D01*
X128647765Y-114693433D01*
X128784038Y-114969769D01*
X128955216Y-115225957D01*
X128955221Y-115225963D01*
X128955222Y-115225964D01*
X129158380Y-115457620D01*
X129357495Y-115632240D01*
X129390042Y-115660783D01*
X129581307Y-115788581D01*
X129646228Y-115831960D01*
X129922573Y-115968238D01*
X130214341Y-116067280D01*
X130475560Y-116119239D01*
X130516529Y-116127389D01*
X130516531Y-116127389D01*
X130516540Y-116127391D01*
X130679562Y-116138076D01*
X130823997Y-116147543D01*
X130824000Y-116147543D01*
X130824003Y-116147543D01*
X130968438Y-116138076D01*
X131131460Y-116127391D01*
X131433659Y-116067280D01*
X131725427Y-115968238D01*
X132001772Y-115831960D01*
X132254215Y-115663283D01*
X132257957Y-115660783D01*
X132257958Y-115660781D01*
X132257964Y-115660778D01*
X132489620Y-115457620D01*
X132692778Y-115225964D01*
X132863960Y-114969772D01*
X133000238Y-114693427D01*
X133099280Y-114401659D01*
X133159391Y-114099460D01*
X133179379Y-113794500D01*
X133179543Y-113792003D01*
X133179543Y-113791996D01*
X133159391Y-113484544D01*
X133159391Y-113484540D01*
X133099280Y-113182341D01*
X133096109Y-113173001D01*
X133063838Y-113077932D01*
X133000238Y-112890573D01*
X132863960Y-112614229D01*
X132738116Y-112425889D01*
X132692781Y-112358040D01*
X132692779Y-112358038D01*
X132692778Y-112358036D01*
X132489620Y-112126380D01*
X132257964Y-111923222D01*
X132257963Y-111923221D01*
X132257957Y-111923216D01*
X132001769Y-111752038D01*
X131730503Y-111618265D01*
X131725427Y-111615762D01*
X131725422Y-111615760D01*
X131725419Y-111615759D01*
X131433667Y-111516722D01*
X131433661Y-111516720D01*
X131433659Y-111516720D01*
X131346979Y-111499478D01*
X131131470Y-111456610D01*
X131131455Y-111456608D01*
X130824003Y-111436457D01*
X130823997Y-111436457D01*
X130516544Y-111456608D01*
X130516529Y-111456610D01*
X130257680Y-111508099D01*
X130214341Y-111516720D01*
X130214339Y-111516720D01*
X130214332Y-111516722D01*
X129922580Y-111615759D01*
X129922566Y-111615765D01*
X129646231Y-111752038D01*
X129390040Y-111923218D01*
X129390038Y-111923220D01*
X129158380Y-112126380D01*
X128955220Y-112358038D01*
X128955218Y-112358040D01*
X128784038Y-112614231D01*
X128647765Y-112890566D01*
X128647759Y-112890580D01*
X128548722Y-113182332D01*
X128548720Y-113182342D01*
X128488610Y-113484529D01*
X128488608Y-113484544D01*
X128468457Y-113791996D01*
X128468457Y-113792003D01*
X117582500Y-113792003D01*
X117582500Y-112493367D01*
X117582499Y-112493350D01*
X117575990Y-112432803D01*
X117575988Y-112432795D01*
X117524889Y-112295797D01*
X117524887Y-112295792D01*
X117437261Y-112178738D01*
X117320207Y-112091112D01*
X117320202Y-112091110D01*
X117183204Y-112040011D01*
X117183196Y-112040009D01*
X117122649Y-112033500D01*
X117122638Y-112033500D01*
X114525362Y-112033500D01*
X114525350Y-112033500D01*
X114464803Y-112040009D01*
X114464795Y-112040011D01*
X114327797Y-112091110D01*
X114327792Y-112091112D01*
X114210738Y-112178738D01*
X114123112Y-112295792D01*
X114123110Y-112295797D01*
X114072011Y-112432795D01*
X114072009Y-112432803D01*
X114065500Y-112493350D01*
X114065500Y-115090649D01*
X88663956Y-115090649D01*
X88768186Y-114993938D01*
X88932515Y-114787876D01*
X89064296Y-114559624D01*
X89160587Y-114314280D01*
X89219235Y-114057326D01*
X89238931Y-113794500D01*
X89219235Y-113531674D01*
X89160587Y-113274720D01*
X89064296Y-113029376D01*
X89064295Y-113029375D01*
X89064294Y-113029371D01*
X88932517Y-112801127D01*
X88932515Y-112801124D01*
X88768186Y-112595062D01*
X88574981Y-112415794D01*
X88574974Y-112415789D01*
X88357225Y-112267329D01*
X88357218Y-112267325D01*
X88119757Y-112152969D01*
X88119745Y-112152964D01*
X87867910Y-112075284D01*
X87867902Y-112075282D01*
X87867900Y-112075282D01*
X87607281Y-112036000D01*
X87343719Y-112036000D01*
X87083100Y-112075282D01*
X87083098Y-112075282D01*
X87083089Y-112075284D01*
X86831254Y-112152964D01*
X86831242Y-112152969D01*
X86593783Y-112267325D01*
X86593775Y-112267329D01*
X86376025Y-112415789D01*
X86376020Y-112415793D01*
X86182815Y-112595061D01*
X86018482Y-112801127D01*
X85886705Y-113029371D01*
X85886702Y-113029379D01*
X85790411Y-113274724D01*
X85742523Y-113484540D01*
X85731765Y-113531674D01*
X85712069Y-113794500D01*
X74831043Y-113794500D01*
X74830879Y-113792003D01*
X74810891Y-113487044D01*
X74810891Y-113487040D01*
X74750780Y-113184841D01*
X74746758Y-113172994D01*
X74728298Y-113118611D01*
X74651738Y-112893073D01*
X74515460Y-112616729D01*
X74392565Y-112432803D01*
X74344281Y-112360540D01*
X74344279Y-112360538D01*
X74344278Y-112360536D01*
X74141120Y-112128880D01*
X73909464Y-111925722D01*
X73909463Y-111925721D01*
X73909457Y-111925716D01*
X73653269Y-111754538D01*
X73376933Y-111618265D01*
X73376927Y-111618262D01*
X73376922Y-111618260D01*
X73376919Y-111618259D01*
X73085167Y-111519222D01*
X73085161Y-111519220D01*
X73085159Y-111519220D01*
X72998479Y-111501978D01*
X72782970Y-111459110D01*
X72782955Y-111459108D01*
X72475503Y-111438957D01*
X72475497Y-111438957D01*
X72168044Y-111459108D01*
X72168029Y-111459110D01*
X71909180Y-111510599D01*
X71865841Y-111519220D01*
X71865839Y-111519220D01*
X71865832Y-111519222D01*
X71574080Y-111618259D01*
X71574066Y-111618265D01*
X71297731Y-111754538D01*
X71041540Y-111925718D01*
X71041538Y-111925720D01*
X70809875Y-112128884D01*
X70747131Y-112200430D01*
X70687178Y-112238457D01*
X70616182Y-112238035D01*
X70556686Y-112199296D01*
X70527578Y-112134541D01*
X70526400Y-112117352D01*
X70526400Y-111095204D01*
X97551820Y-111095204D01*
X97571289Y-111292892D01*
X97571291Y-111292904D01*
X97628958Y-111483003D01*
X97628959Y-111483005D01*
X97722605Y-111658203D01*
X97817042Y-111773276D01*
X97817060Y-111773295D01*
X98311090Y-112267324D01*
X99694959Y-113651193D01*
X99699101Y-113655763D01*
X99728732Y-113691868D01*
X99882296Y-113817895D01*
X100057496Y-113911541D01*
X100101742Y-113924962D01*
X100247599Y-113969209D01*
X100247605Y-113969209D01*
X100247607Y-113969210D01*
X100445296Y-113988680D01*
X100445300Y-113988680D01*
X100445303Y-113988680D01*
X100491765Y-113984104D01*
X100497944Y-113983800D01*
X105357359Y-113983800D01*
X105363539Y-113984104D01*
X105409998Y-113988680D01*
X105410000Y-113988680D01*
X105410003Y-113988680D01*
X105607694Y-113969209D01*
X105607695Y-113969208D01*
X105607701Y-113969208D01*
X105797804Y-113911541D01*
X105973004Y-113817895D01*
X106126568Y-113691868D01*
X106252595Y-113538304D01*
X106346241Y-113363104D01*
X106403908Y-113173001D01*
X106418500Y-113024847D01*
X106423380Y-112975300D01*
X106418804Y-112928836D01*
X106418500Y-112922657D01*
X106418500Y-112546084D01*
X106438502Y-112477963D01*
X106492158Y-112431470D01*
X106500467Y-112428029D01*
X106501694Y-112427570D01*
X106506204Y-112425889D01*
X106519690Y-112415794D01*
X106623261Y-112338261D01*
X106710887Y-112221207D01*
X106710887Y-112221206D01*
X106710889Y-112221204D01*
X106713029Y-112215467D01*
X106755576Y-112158631D01*
X106822096Y-112133821D01*
X106831084Y-112133500D01*
X108688056Y-112133500D01*
X108694235Y-112133804D01*
X108740697Y-112138380D01*
X108740700Y-112138380D01*
X108740704Y-112138380D01*
X108938392Y-112118910D01*
X108938393Y-112118909D01*
X108938401Y-112118909D01*
X109128504Y-112061241D01*
X109132734Y-112058980D01*
X109303704Y-111967595D01*
X109457268Y-111841568D01*
X109486911Y-111805445D01*
X109491025Y-111800907D01*
X113954529Y-107337405D01*
X114016841Y-107303379D01*
X114043624Y-107300500D01*
X114318367Y-107300500D01*
X114386488Y-107320502D01*
X114416878Y-107347940D01*
X114493332Y-107443810D01*
X114531314Y-107491438D01*
X114724519Y-107670706D01*
X114724525Y-107670710D01*
X114942275Y-107819170D01*
X114942279Y-107819172D01*
X114942285Y-107819176D01*
X115179746Y-107933532D01*
X115179749Y-107933532D01*
X115179754Y-107933535D01*
X115431589Y-108011215D01*
X115431591Y-108011215D01*
X115431600Y-108011218D01*
X115692219Y-108050500D01*
X115692223Y-108050500D01*
X115955777Y-108050500D01*
X115955781Y-108050500D01*
X116216400Y-108011218D01*
X116267717Y-107995389D01*
X116468245Y-107933535D01*
X116468247Y-107933534D01*
X116468254Y-107933532D01*
X116705716Y-107819176D01*
X116923481Y-107670706D01*
X117116686Y-107491438D01*
X117231122Y-107347940D01*
X117289233Y-107307152D01*
X117329633Y-107300500D01*
X119237056Y-107300500D01*
X119243235Y-107300804D01*
X119289697Y-107305380D01*
X119289700Y-107305380D01*
X119289704Y-107305380D01*
X119487392Y-107285910D01*
X119487393Y-107285909D01*
X119487401Y-107285909D01*
X119677504Y-107228241D01*
X119680761Y-107226500D01*
X119852704Y-107134595D01*
X120006268Y-107008568D01*
X120035911Y-106972445D01*
X120040025Y-106967907D01*
X120715929Y-106292003D01*
X128468457Y-106292003D01*
X128488608Y-106599455D01*
X128488610Y-106599470D01*
X128512628Y-106720212D01*
X128544863Y-106882270D01*
X128548720Y-106901657D01*
X128548722Y-106901667D01*
X128647759Y-107193419D01*
X128647765Y-107193433D01*
X128784038Y-107469769D01*
X128955216Y-107725957D01*
X128955221Y-107725963D01*
X128955222Y-107725964D01*
X129158380Y-107957620D01*
X129390036Y-108160778D01*
X129390042Y-108160783D01*
X129581307Y-108288581D01*
X129646228Y-108331960D01*
X129922573Y-108468238D01*
X130214341Y-108567280D01*
X130475560Y-108619239D01*
X130516529Y-108627389D01*
X130516531Y-108627389D01*
X130516540Y-108627391D01*
X130692231Y-108638906D01*
X130823997Y-108647543D01*
X130824000Y-108647543D01*
X130824003Y-108647543D01*
X130939297Y-108639986D01*
X131131460Y-108627391D01*
X131433659Y-108567280D01*
X131725427Y-108468238D01*
X132001772Y-108331960D01*
X132254215Y-108163283D01*
X132257957Y-108160783D01*
X132257958Y-108160781D01*
X132257964Y-108160778D01*
X132489620Y-107957620D01*
X132692778Y-107725964D01*
X132863960Y-107469772D01*
X133000238Y-107193427D01*
X133099280Y-106901659D01*
X133159391Y-106599460D01*
X133179379Y-106294500D01*
X133179543Y-106292003D01*
X133179543Y-106291996D01*
X133159391Y-105984544D01*
X133159391Y-105984540D01*
X133099280Y-105682341D01*
X133000238Y-105390573D01*
X132863960Y-105114229D01*
X132729700Y-104913294D01*
X132692781Y-104858040D01*
X132692779Y-104858038D01*
X132692778Y-104858036D01*
X132489620Y-104626380D01*
X132257964Y-104423222D01*
X132257963Y-104423221D01*
X132257957Y-104423216D01*
X132001769Y-104252038D01*
X131730503Y-104118265D01*
X131725427Y-104115762D01*
X131725422Y-104115760D01*
X131725419Y-104115759D01*
X131433667Y-104016722D01*
X131433661Y-104016720D01*
X131433659Y-104016720D01*
X131346979Y-103999478D01*
X131131470Y-103956610D01*
X131131455Y-103956608D01*
X130824003Y-103936457D01*
X130823997Y-103936457D01*
X130516544Y-103956608D01*
X130516529Y-103956610D01*
X130257680Y-104008099D01*
X130214341Y-104016720D01*
X130214339Y-104016720D01*
X130214332Y-104016722D01*
X129922580Y-104115759D01*
X129922566Y-104115765D01*
X129646231Y-104252038D01*
X129390040Y-104423218D01*
X129390038Y-104423220D01*
X129158380Y-104626380D01*
X128955220Y-104858038D01*
X128955218Y-104858040D01*
X128784038Y-105114231D01*
X128647765Y-105390566D01*
X128647759Y-105390580D01*
X128548722Y-105682332D01*
X128548720Y-105682339D01*
X128548720Y-105682341D01*
X128540099Y-105725680D01*
X128488610Y-105984529D01*
X128488608Y-105984544D01*
X128468457Y-106291996D01*
X128468457Y-106292003D01*
X120715929Y-106292003D01*
X128789330Y-98218604D01*
X133700564Y-98218604D01*
X133720694Y-98589883D01*
X133780849Y-98956812D01*
X133880324Y-99315090D01*
X134017948Y-99660502D01*
X134017952Y-99660511D01*
X134192120Y-99989028D01*
X134400789Y-100296791D01*
X134536925Y-100457063D01*
X135798086Y-99195901D01*
X135963557Y-99389643D01*
X136157296Y-99555112D01*
X134893512Y-100818897D01*
X134911454Y-100835894D01*
X135207458Y-101060910D01*
X135207464Y-101060913D01*
X135526067Y-101252610D01*
X135526074Y-101252614D01*
X135863520Y-101408734D01*
X135863532Y-101408739D01*
X136215888Y-101527461D01*
X136215902Y-101527465D01*
X136579022Y-101607395D01*
X136579046Y-101607399D01*
X136948677Y-101647599D01*
X136948693Y-101647600D01*
X137320507Y-101647600D01*
X137320522Y-101647599D01*
X137690153Y-101607399D01*
X137690177Y-101607395D01*
X138053297Y-101527465D01*
X138053311Y-101527461D01*
X138405667Y-101408739D01*
X138405679Y-101408734D01*
X138743125Y-101252614D01*
X138743132Y-101252610D01*
X139061735Y-101060913D01*
X139061741Y-101060910D01*
X139357751Y-100835888D01*
X139357758Y-100835882D01*
X139375687Y-100818898D01*
X139375687Y-100818897D01*
X138111903Y-99555112D01*
X138305643Y-99389643D01*
X138471112Y-99195902D01*
X139732274Y-100457063D01*
X139868409Y-100296792D01*
X140077079Y-99989028D01*
X140251247Y-99660511D01*
X140251251Y-99660502D01*
X140388875Y-99315090D01*
X140488350Y-98956812D01*
X140548505Y-98589883D01*
X140568636Y-98218604D01*
X140568636Y-98218595D01*
X140548505Y-97847316D01*
X140488350Y-97480387D01*
X140388875Y-97122109D01*
X140251251Y-96776697D01*
X140251247Y-96776688D01*
X140077079Y-96448171D01*
X139868410Y-96140408D01*
X139732274Y-95980135D01*
X138471112Y-97241296D01*
X138305643Y-97047557D01*
X138111902Y-96882086D01*
X139375687Y-95618301D01*
X139357749Y-95601309D01*
X139061741Y-95376289D01*
X139061735Y-95376286D01*
X138743132Y-95184589D01*
X138743125Y-95184585D01*
X138405679Y-95028465D01*
X138405667Y-95028460D01*
X138053311Y-94909738D01*
X138053297Y-94909734D01*
X137690177Y-94829804D01*
X137690153Y-94829800D01*
X137320522Y-94789600D01*
X136948677Y-94789600D01*
X136579046Y-94829800D01*
X136579022Y-94829804D01*
X136215902Y-94909734D01*
X136215888Y-94909738D01*
X135863532Y-95028460D01*
X135863520Y-95028465D01*
X135526074Y-95184585D01*
X135526067Y-95184589D01*
X135207464Y-95376286D01*
X135207458Y-95376289D01*
X134911449Y-95601310D01*
X134893511Y-95618301D01*
X136157297Y-96882087D01*
X135963557Y-97047557D01*
X135798087Y-97241297D01*
X134536925Y-95980135D01*
X134400789Y-96140408D01*
X134192120Y-96448171D01*
X134017952Y-96776688D01*
X134017948Y-96776697D01*
X133880324Y-97122109D01*
X133780849Y-97480387D01*
X133720694Y-97847316D01*
X133700564Y-98218595D01*
X133700564Y-98218604D01*
X128789330Y-98218604D01*
X131475852Y-95532082D01*
X131570295Y-95417003D01*
X131663941Y-95241803D01*
X131721609Y-95051700D01*
X131721610Y-95051691D01*
X131741080Y-94854004D01*
X131741080Y-94853995D01*
X131721610Y-94656307D01*
X131721608Y-94656295D01*
X131663941Y-94466196D01*
X131663940Y-94466194D01*
X131602296Y-94350866D01*
X131570295Y-94290996D01*
X131444268Y-94137432D01*
X131290704Y-94011405D01*
X131115505Y-93917759D01*
X131115503Y-93917758D01*
X130925404Y-93860091D01*
X130925392Y-93860089D01*
X130727704Y-93840620D01*
X130727696Y-93840620D01*
X130530008Y-93860089D01*
X130529996Y-93860091D01*
X130339897Y-93917758D01*
X130339895Y-93917759D01*
X130164696Y-94011405D01*
X130049623Y-94105842D01*
X130049604Y-94105860D01*
X118908871Y-105246595D01*
X118846559Y-105280621D01*
X118819776Y-105283500D01*
X117329633Y-105283500D01*
X117261512Y-105263498D01*
X117231122Y-105236060D01*
X117183558Y-105176417D01*
X117116686Y-105092562D01*
X116923481Y-104913294D01*
X116909572Y-104903811D01*
X116705725Y-104764829D01*
X116705718Y-104764825D01*
X116468257Y-104650469D01*
X116468245Y-104650464D01*
X116216410Y-104572784D01*
X116216402Y-104572782D01*
X116216400Y-104572782D01*
X115955781Y-104533500D01*
X115692219Y-104533500D01*
X115431600Y-104572782D01*
X115431598Y-104572782D01*
X115431589Y-104572784D01*
X115179754Y-104650464D01*
X115179742Y-104650469D01*
X114942283Y-104764825D01*
X114942275Y-104764829D01*
X114724525Y-104913289D01*
X114724520Y-104913293D01*
X114531314Y-105092561D01*
X114416878Y-105236060D01*
X114358767Y-105276848D01*
X114318367Y-105283500D01*
X113626341Y-105283500D01*
X113620161Y-105283196D01*
X113573702Y-105278620D01*
X113573698Y-105278620D01*
X113524153Y-105283500D01*
X113376005Y-105298090D01*
X113185895Y-105355759D01*
X113010695Y-105449405D01*
X112857130Y-105575432D01*
X112827504Y-105611532D01*
X112823349Y-105616115D01*
X110582889Y-107856577D01*
X108359871Y-110079595D01*
X108297559Y-110113620D01*
X108270776Y-110116500D01*
X106831084Y-110116500D01*
X106762963Y-110096498D01*
X106716470Y-110042842D01*
X106713029Y-110034533D01*
X106710889Y-110028797D01*
X106710887Y-110028792D01*
X106623261Y-109911738D01*
X106506207Y-109824112D01*
X106506203Y-109824110D01*
X106391192Y-109781213D01*
X106334356Y-109738667D01*
X106309546Y-109672146D01*
X106324638Y-109602772D01*
X106342525Y-109577820D01*
X106485714Y-109422277D01*
X106485724Y-109422265D01*
X106564579Y-109301568D01*
X106608860Y-109233791D01*
X106699296Y-109027616D01*
X106754564Y-108809368D01*
X106773156Y-108585000D01*
X106754564Y-108360632D01*
X106747303Y-108331960D01*
X106699297Y-108142387D01*
X106699296Y-108142386D01*
X106699296Y-108142384D01*
X106608860Y-107936209D01*
X106602140Y-107925924D01*
X106485724Y-107747734D01*
X106485720Y-107747729D01*
X106333237Y-107582091D01*
X106188926Y-107469769D01*
X106155576Y-107443811D01*
X106121792Y-107425528D01*
X106071402Y-107375516D01*
X106056050Y-107306199D01*
X106080610Y-107239586D01*
X106121793Y-107203901D01*
X106155300Y-107185767D01*
X106155301Y-107185767D01*
X106332902Y-107047534D01*
X106485325Y-106881958D01*
X106608419Y-106693548D01*
X106698820Y-106487456D01*
X106698823Y-106487449D01*
X106746544Y-106299000D01*
X105841116Y-106299000D01*
X105869493Y-106254844D01*
X105910000Y-106116889D01*
X105910000Y-105973111D01*
X105869493Y-105835156D01*
X105841116Y-105791000D01*
X106746544Y-105791000D01*
X106746544Y-105790999D01*
X106698823Y-105602550D01*
X106698820Y-105602543D01*
X106608419Y-105396451D01*
X106485325Y-105208041D01*
X106332902Y-105042465D01*
X106155301Y-104904232D01*
X106155300Y-104904231D01*
X106121267Y-104885814D01*
X106070876Y-104835801D01*
X106055524Y-104766484D01*
X106080085Y-104699871D01*
X106121267Y-104664186D01*
X106155300Y-104645768D01*
X106155301Y-104645767D01*
X106332902Y-104507534D01*
X106485325Y-104341958D01*
X106608419Y-104153548D01*
X106698820Y-103947456D01*
X106698823Y-103947449D01*
X106746544Y-103759000D01*
X105841116Y-103759000D01*
X105869493Y-103714844D01*
X105910000Y-103576889D01*
X105910000Y-103433111D01*
X105869493Y-103295156D01*
X105841116Y-103251000D01*
X106746544Y-103251000D01*
X106746544Y-103250999D01*
X106698823Y-103062550D01*
X106698820Y-103062543D01*
X106608419Y-102856451D01*
X106485325Y-102668041D01*
X106332902Y-102502465D01*
X106155301Y-102364232D01*
X106155300Y-102364231D01*
X105957371Y-102257117D01*
X105957369Y-102257116D01*
X105744512Y-102184043D01*
X105744501Y-102184040D01*
X105664000Y-102170606D01*
X105664000Y-103071325D01*
X105552315Y-103020320D01*
X105445763Y-103005000D01*
X105374237Y-103005000D01*
X105267685Y-103020320D01*
X105156000Y-103071325D01*
X105156000Y-102170607D01*
X105155999Y-102170606D01*
X105075498Y-102184040D01*
X105075487Y-102184043D01*
X104862630Y-102257116D01*
X104862628Y-102257117D01*
X104664699Y-102364231D01*
X104664698Y-102364232D01*
X104487097Y-102502465D01*
X104334670Y-102668045D01*
X104245780Y-102804101D01*
X104191776Y-102850189D01*
X104121428Y-102859764D01*
X104057071Y-102829786D01*
X104034816Y-102804101D01*
X103983008Y-102724802D01*
X103945724Y-102667734D01*
X103945720Y-102667729D01*
X103816255Y-102527095D01*
X103793240Y-102502094D01*
X103793239Y-102502093D01*
X103793237Y-102502091D01*
X103686244Y-102418815D01*
X103615576Y-102363811D01*
X103417574Y-102256658D01*
X103417572Y-102256657D01*
X103417571Y-102256656D01*
X103233662Y-102193521D01*
X103175727Y-102152484D01*
X103149175Y-102086639D01*
X103162436Y-102016892D01*
X103185476Y-101985256D01*
X106952128Y-98218604D01*
X115463364Y-98218604D01*
X115483494Y-98589883D01*
X115543649Y-98956812D01*
X115643124Y-99315090D01*
X115780748Y-99660502D01*
X115780752Y-99660511D01*
X115954920Y-99989028D01*
X116163589Y-100296791D01*
X116299725Y-100457063D01*
X117560886Y-99195901D01*
X117726357Y-99389643D01*
X117920096Y-99555112D01*
X116656311Y-100818897D01*
X116674254Y-100835894D01*
X116970258Y-101060910D01*
X116970264Y-101060913D01*
X117288867Y-101252610D01*
X117288874Y-101252614D01*
X117626320Y-101408734D01*
X117626332Y-101408739D01*
X117978688Y-101527461D01*
X117978702Y-101527465D01*
X118341822Y-101607395D01*
X118341846Y-101607399D01*
X118711477Y-101647599D01*
X118711493Y-101647600D01*
X119083307Y-101647600D01*
X119083322Y-101647599D01*
X119452953Y-101607399D01*
X119452977Y-101607395D01*
X119816097Y-101527465D01*
X119816111Y-101527461D01*
X120168467Y-101408739D01*
X120168479Y-101408734D01*
X120505925Y-101252614D01*
X120505932Y-101252610D01*
X120824535Y-101060913D01*
X120824541Y-101060910D01*
X121120551Y-100835888D01*
X121120558Y-100835882D01*
X121138487Y-100818898D01*
X121138487Y-100818897D01*
X119874703Y-99555112D01*
X120068443Y-99389643D01*
X120233912Y-99195902D01*
X121495074Y-100457063D01*
X121631209Y-100296792D01*
X121839879Y-99989028D01*
X122014047Y-99660511D01*
X122014051Y-99660502D01*
X122151675Y-99315090D01*
X122251150Y-98956812D01*
X122311305Y-98589883D01*
X122331436Y-98218604D01*
X122331436Y-98218595D01*
X122311305Y-97847316D01*
X122251150Y-97480387D01*
X122151675Y-97122109D01*
X122014051Y-96776697D01*
X122014047Y-96776688D01*
X121839879Y-96448171D01*
X121631210Y-96140408D01*
X121495074Y-95980135D01*
X120233912Y-97241296D01*
X120068443Y-97047557D01*
X119874702Y-96882086D01*
X121138487Y-95618301D01*
X121120549Y-95601309D01*
X120824541Y-95376289D01*
X120824535Y-95376286D01*
X120505932Y-95184589D01*
X120505925Y-95184585D01*
X120168479Y-95028465D01*
X120168467Y-95028460D01*
X119816111Y-94909738D01*
X119816097Y-94909734D01*
X119452977Y-94829804D01*
X119452953Y-94829800D01*
X119083322Y-94789600D01*
X118711477Y-94789600D01*
X118341846Y-94829800D01*
X118341822Y-94829804D01*
X117978702Y-94909734D01*
X117978688Y-94909738D01*
X117626332Y-95028460D01*
X117626320Y-95028465D01*
X117288874Y-95184585D01*
X117288867Y-95184589D01*
X116970264Y-95376286D01*
X116970258Y-95376289D01*
X116674249Y-95601310D01*
X116656311Y-95618301D01*
X117920097Y-96882087D01*
X117726357Y-97047557D01*
X117560887Y-97241297D01*
X116299725Y-95980135D01*
X116163589Y-96140408D01*
X115954920Y-96448171D01*
X115780752Y-96776688D01*
X115780748Y-96776697D01*
X115643124Y-97122109D01*
X115543649Y-97480387D01*
X115483494Y-97847316D01*
X115463364Y-98218595D01*
X115463364Y-98218604D01*
X106952128Y-98218604D01*
X116070730Y-89100003D01*
X123989650Y-89100003D01*
X124009038Y-89494647D01*
X124009039Y-89494661D01*
X124067015Y-89885505D01*
X124163026Y-90268799D01*
X124296136Y-90640813D01*
X124296138Y-90640817D01*
X124465076Y-90998008D01*
X124465078Y-90998011D01*
X124668214Y-91336924D01*
X124903581Y-91654280D01*
X124903588Y-91654288D01*
X124903589Y-91654289D01*
X125168941Y-91947059D01*
X125393403Y-92150500D01*
X125461712Y-92212412D01*
X125461716Y-92212415D01*
X125779075Y-92447785D01*
X125779079Y-92447787D01*
X125779080Y-92447788D01*
X126117992Y-92650924D01*
X126475183Y-92819862D01*
X126475186Y-92819863D01*
X126847200Y-92952973D01*
X126847202Y-92952973D01*
X126847212Y-92952977D01*
X127230498Y-93048985D01*
X127621349Y-93106962D01*
X127958289Y-93123514D01*
X128015996Y-93126350D01*
X128016000Y-93126350D01*
X128016004Y-93126350D01*
X128071674Y-93123614D01*
X128410651Y-93106962D01*
X128801502Y-93048985D01*
X129184788Y-92952977D01*
X129556817Y-92819862D01*
X129914008Y-92650924D01*
X130252920Y-92447788D01*
X130570289Y-92212411D01*
X130602584Y-92183139D01*
X130666491Y-92152214D01*
X130687201Y-92150500D01*
X144299250Y-92150500D01*
X144367371Y-92170502D01*
X144388345Y-92187404D01*
X144867595Y-92666653D01*
X144901620Y-92728966D01*
X144904500Y-92755749D01*
X144904500Y-100538715D01*
X144902319Y-100691344D01*
X144902319Y-100691353D01*
X144913205Y-100799892D01*
X144919433Y-100908799D01*
X144930216Y-100971113D01*
X144930825Y-100975569D01*
X144937134Y-101038481D01*
X144960321Y-101145070D01*
X144978922Y-101252553D01*
X144996737Y-101313229D01*
X144997849Y-101317586D01*
X145011292Y-101379378D01*
X145046482Y-101482641D01*
X145077210Y-101587292D01*
X145077212Y-101587296D01*
X145101824Y-101645536D01*
X145103426Y-101649740D01*
X145123821Y-101709587D01*
X145123828Y-101709605D01*
X145170551Y-101808163D01*
X145213010Y-101908636D01*
X145213014Y-101908644D01*
X145244061Y-101963622D01*
X145244113Y-101963713D01*
X145246180Y-101967700D01*
X145251349Y-101978603D01*
X145273262Y-102024827D01*
X145273269Y-102024841D01*
X145330919Y-102117426D01*
X145384564Y-102212419D01*
X145417038Y-102257116D01*
X145421733Y-102263577D01*
X145424246Y-102267309D01*
X145457664Y-102320980D01*
X145457676Y-102320996D01*
X145525503Y-102406406D01*
X145589619Y-102494655D01*
X145632372Y-102541237D01*
X145635293Y-102544657D01*
X145643948Y-102555555D01*
X145674627Y-102594186D01*
X145674630Y-102594189D01*
X145674634Y-102594194D01*
X145722695Y-102642254D01*
X145751765Y-102671324D01*
X145825519Y-102751684D01*
X145873319Y-102793103D01*
X145876581Y-102796140D01*
X148287835Y-105207393D01*
X150601595Y-107521153D01*
X150635621Y-107583465D01*
X150638500Y-107610248D01*
X150638500Y-113881645D01*
X150653433Y-114142799D01*
X150698665Y-114404167D01*
X150712923Y-114486557D01*
X150712924Y-114486560D01*
X150806778Y-114806198D01*
X150811211Y-114821293D01*
X150947014Y-115142644D01*
X150947016Y-115142647D01*
X150947021Y-115142657D01*
X151118560Y-115446413D01*
X151118566Y-115446422D01*
X151128518Y-115460120D01*
X151323623Y-115728659D01*
X151559519Y-115985684D01*
X151749200Y-116150043D01*
X151823175Y-116214143D01*
X151823180Y-116214147D01*
X152111153Y-116411058D01*
X152111152Y-116411058D01*
X152111156Y-116411060D01*
X152286568Y-116503615D01*
X152337481Y-116553094D01*
X152353562Y-116622246D01*
X152329703Y-116689114D01*
X152293915Y-116722293D01*
X152191662Y-116785363D01*
X152191654Y-116785370D01*
X152066370Y-116910654D01*
X152066365Y-116910660D01*
X151973342Y-117061474D01*
X151917606Y-117229678D01*
X151917605Y-117229681D01*
X151907000Y-117333483D01*
X151907000Y-119380000D01*
X156161000Y-119380000D01*
X156161000Y-116626000D01*
X156669000Y-116626000D01*
X156669000Y-119380000D01*
X160923000Y-119380000D01*
X160923000Y-117333483D01*
X160912394Y-117229681D01*
X160912393Y-117229678D01*
X160856657Y-117061474D01*
X160763634Y-116910660D01*
X160763629Y-116910654D01*
X160638345Y-116785370D01*
X160638339Y-116785365D01*
X160487525Y-116692342D01*
X160319321Y-116636606D01*
X160319318Y-116636605D01*
X160215516Y-116626000D01*
X156669000Y-116626000D01*
X156161000Y-116626000D01*
X155353702Y-116626000D01*
X155285581Y-116605998D01*
X155239088Y-116552342D01*
X155228984Y-116482068D01*
X155258478Y-116417488D01*
X155288636Y-116392100D01*
X155376197Y-116339298D01*
X155413647Y-116316715D01*
X155689916Y-116103680D01*
X155940100Y-115860541D01*
X156160938Y-115590468D01*
X156349550Y-115296982D01*
X156472055Y-115047818D01*
X156520059Y-114995513D01*
X156588724Y-114977464D01*
X156656245Y-114999403D01*
X156689891Y-115033411D01*
X156820216Y-115228457D01*
X156820221Y-115228463D01*
X156820222Y-115228464D01*
X157023380Y-115460120D01*
X157252191Y-115660783D01*
X157255042Y-115663283D01*
X157445681Y-115790663D01*
X157511228Y-115834460D01*
X157787573Y-115970738D01*
X158079341Y-116069780D01*
X158340560Y-116121739D01*
X158381529Y-116129889D01*
X158381531Y-116129889D01*
X158381540Y-116129891D01*
X158557231Y-116141406D01*
X158688997Y-116150043D01*
X158689000Y-116150043D01*
X158689003Y-116150043D01*
X158804297Y-116142486D01*
X158996460Y-116129891D01*
X159298659Y-116069780D01*
X159590427Y-115970738D01*
X159866772Y-115834460D01*
X160122964Y-115663278D01*
X160354620Y-115460120D01*
X160557778Y-115228464D01*
X160559449Y-115225964D01*
X160649874Y-115090632D01*
X160728960Y-114972272D01*
X160865238Y-114695927D01*
X160964280Y-114404159D01*
X161024391Y-114101960D01*
X161044543Y-113794503D01*
X161333457Y-113794503D01*
X161353608Y-114101955D01*
X161353610Y-114101970D01*
X161361732Y-114142799D01*
X161413224Y-114401667D01*
X161413720Y-114404157D01*
X161413722Y-114404167D01*
X161512759Y-114695919D01*
X161512765Y-114695933D01*
X161649038Y-114972269D01*
X161820216Y-115228457D01*
X161820221Y-115228463D01*
X161820222Y-115228464D01*
X162023380Y-115460120D01*
X162252191Y-115660783D01*
X162255042Y-115663283D01*
X162445681Y-115790663D01*
X162511228Y-115834460D01*
X162787573Y-115970738D01*
X163079341Y-116069780D01*
X163340560Y-116121739D01*
X163381529Y-116129889D01*
X163381531Y-116129889D01*
X163381540Y-116129891D01*
X163557231Y-116141406D01*
X163688997Y-116150043D01*
X163689000Y-116150043D01*
X163689003Y-116150043D01*
X163804297Y-116142486D01*
X163996460Y-116129891D01*
X164298659Y-116069780D01*
X164590427Y-115970738D01*
X164866772Y-115834460D01*
X165122964Y-115663278D01*
X165354620Y-115460120D01*
X165557778Y-115228464D01*
X165559449Y-115225964D01*
X165649874Y-115090632D01*
X165728960Y-114972272D01*
X165865238Y-114695927D01*
X165964280Y-114404159D01*
X166024391Y-114101960D01*
X166044543Y-113794500D01*
X166044379Y-113792003D01*
X166024391Y-113487044D01*
X166024391Y-113487040D01*
X165964280Y-113184841D01*
X165960258Y-113172994D01*
X165941798Y-113118611D01*
X165865238Y-112893073D01*
X165728960Y-112616729D01*
X165606065Y-112432803D01*
X165557781Y-112360540D01*
X165557779Y-112360538D01*
X165557778Y-112360536D01*
X165354620Y-112128880D01*
X165122964Y-111925722D01*
X165122963Y-111925721D01*
X165122957Y-111925716D01*
X164866769Y-111754538D01*
X164590433Y-111618265D01*
X164590427Y-111618262D01*
X164590422Y-111618260D01*
X164590419Y-111618259D01*
X164298667Y-111519222D01*
X164298661Y-111519220D01*
X164298659Y-111519220D01*
X164211979Y-111501978D01*
X163996470Y-111459110D01*
X163996455Y-111459108D01*
X163689003Y-111438957D01*
X163688997Y-111438957D01*
X163381544Y-111459108D01*
X163381529Y-111459110D01*
X163122680Y-111510599D01*
X163079341Y-111519220D01*
X163079339Y-111519220D01*
X163079332Y-111519222D01*
X162787580Y-111618259D01*
X162787566Y-111618265D01*
X162511231Y-111754538D01*
X162255040Y-111925718D01*
X162255038Y-111925720D01*
X162023380Y-112128880D01*
X161820220Y-112360538D01*
X161820218Y-112360540D01*
X161649038Y-112616731D01*
X161512765Y-112893066D01*
X161512759Y-112893080D01*
X161413722Y-113184832D01*
X161413720Y-113184842D01*
X161353610Y-113487029D01*
X161353608Y-113487044D01*
X161333457Y-113794496D01*
X161333457Y-113794503D01*
X161044543Y-113794503D01*
X161044543Y-113794500D01*
X161044379Y-113792003D01*
X161024391Y-113487044D01*
X161024391Y-113487040D01*
X160964280Y-113184841D01*
X160960258Y-113172994D01*
X160941798Y-113118611D01*
X160865238Y-112893073D01*
X160728960Y-112616729D01*
X160606065Y-112432803D01*
X160557781Y-112360540D01*
X160557779Y-112360538D01*
X160557778Y-112360536D01*
X160354620Y-112128880D01*
X160122964Y-111925722D01*
X160122963Y-111925721D01*
X160122957Y-111925716D01*
X159866769Y-111754538D01*
X159590433Y-111618265D01*
X159590427Y-111618262D01*
X159590422Y-111618260D01*
X159590419Y-111618259D01*
X159298667Y-111519222D01*
X159298661Y-111519220D01*
X159298659Y-111519220D01*
X159211979Y-111501978D01*
X158996470Y-111459110D01*
X158996455Y-111459108D01*
X158689003Y-111438957D01*
X158688997Y-111438957D01*
X158381544Y-111459108D01*
X158381529Y-111459110D01*
X158122680Y-111510599D01*
X158079341Y-111519220D01*
X158079339Y-111519220D01*
X158079332Y-111519222D01*
X157787580Y-111618259D01*
X157787566Y-111618265D01*
X157511231Y-111754538D01*
X157255040Y-111925718D01*
X157255038Y-111925720D01*
X157023375Y-112128884D01*
X156960231Y-112200886D01*
X156900278Y-112238913D01*
X156829282Y-112238491D01*
X156769786Y-112199752D01*
X156740678Y-112134996D01*
X156739500Y-112117808D01*
X156739500Y-107971191D01*
X156759502Y-107903070D01*
X156813158Y-107856577D01*
X156883432Y-107846473D01*
X156948012Y-107875967D01*
X156960225Y-107888106D01*
X157023380Y-107960120D01*
X157252191Y-108160783D01*
X157255042Y-108163283D01*
X157446307Y-108291081D01*
X157511228Y-108334460D01*
X157787573Y-108470738D01*
X158079341Y-108569780D01*
X158340560Y-108621739D01*
X158381529Y-108629889D01*
X158381531Y-108629889D01*
X158381540Y-108629891D01*
X158557231Y-108641406D01*
X158688997Y-108650043D01*
X158689000Y-108650043D01*
X158689003Y-108650043D01*
X158804297Y-108642486D01*
X158996460Y-108629891D01*
X159298659Y-108569780D01*
X159590427Y-108470738D01*
X159866772Y-108334460D01*
X160122964Y-108163278D01*
X160354620Y-107960120D01*
X160557778Y-107728464D01*
X160559449Y-107725964D01*
X160636767Y-107610248D01*
X160728960Y-107472272D01*
X160865238Y-107195927D01*
X160964280Y-106904159D01*
X161024391Y-106601960D01*
X161036986Y-106409797D01*
X161044543Y-106294503D01*
X161333457Y-106294503D01*
X161353608Y-106601955D01*
X161353610Y-106601970D01*
X161382240Y-106745898D01*
X161413224Y-106901667D01*
X161413720Y-106904157D01*
X161413722Y-106904167D01*
X161512759Y-107195919D01*
X161512765Y-107195933D01*
X161649038Y-107472269D01*
X161820216Y-107728457D01*
X161820221Y-107728463D01*
X161820222Y-107728464D01*
X162023380Y-107960120D01*
X162252191Y-108160783D01*
X162255042Y-108163283D01*
X162446307Y-108291081D01*
X162511228Y-108334460D01*
X162787573Y-108470738D01*
X163079341Y-108569780D01*
X163340560Y-108621739D01*
X163381529Y-108629889D01*
X163381531Y-108629889D01*
X163381540Y-108629891D01*
X163557231Y-108641406D01*
X163688997Y-108650043D01*
X163689000Y-108650043D01*
X163689003Y-108650043D01*
X163804297Y-108642486D01*
X163996460Y-108629891D01*
X164298659Y-108569780D01*
X164590427Y-108470738D01*
X164866772Y-108334460D01*
X165122964Y-108163278D01*
X165354620Y-107960120D01*
X165557778Y-107728464D01*
X165559449Y-107725964D01*
X165636767Y-107610248D01*
X165648192Y-107593149D01*
X176930500Y-107593149D01*
X176937009Y-107653696D01*
X176937011Y-107653704D01*
X176988110Y-107790702D01*
X176988112Y-107790707D01*
X177075738Y-107907761D01*
X177192792Y-107995387D01*
X177192794Y-107995388D01*
X177192796Y-107995389D01*
X177235227Y-108011215D01*
X177329795Y-108046488D01*
X177329803Y-108046490D01*
X177390350Y-108052999D01*
X177390355Y-108052999D01*
X177390362Y-108053000D01*
X177390368Y-108053000D01*
X179987632Y-108053000D01*
X179987638Y-108053000D01*
X179987645Y-108052999D01*
X179987649Y-108052999D01*
X180048196Y-108046490D01*
X180048199Y-108046489D01*
X180048201Y-108046489D01*
X180185204Y-107995389D01*
X180235658Y-107957620D01*
X180302261Y-107907761D01*
X180389887Y-107790707D01*
X180389887Y-107790706D01*
X180389889Y-107790704D01*
X180440989Y-107653701D01*
X180445940Y-107607654D01*
X180447499Y-107593149D01*
X180447500Y-107593132D01*
X180447500Y-104995867D01*
X180447499Y-104995850D01*
X180440990Y-104935303D01*
X180440988Y-104935295D01*
X180403878Y-104835801D01*
X180389889Y-104798296D01*
X180389888Y-104798294D01*
X180389887Y-104798292D01*
X180302261Y-104681238D01*
X180185207Y-104593612D01*
X180185202Y-104593610D01*
X180048204Y-104542511D01*
X180048196Y-104542509D01*
X179987649Y-104536000D01*
X179987638Y-104536000D01*
X177390362Y-104536000D01*
X177390350Y-104536000D01*
X177329803Y-104542509D01*
X177329795Y-104542511D01*
X177192797Y-104593610D01*
X177192792Y-104593612D01*
X177075738Y-104681238D01*
X176988112Y-104798292D01*
X176988110Y-104798297D01*
X176937011Y-104935295D01*
X176937009Y-104935303D01*
X176930500Y-104995850D01*
X176930500Y-107593149D01*
X165648192Y-107593149D01*
X165728960Y-107472272D01*
X165865238Y-107195927D01*
X165964280Y-106904159D01*
X166024391Y-106601960D01*
X166036986Y-106409797D01*
X166044543Y-106294503D01*
X166044543Y-106294496D01*
X166024391Y-105987044D01*
X166024391Y-105987040D01*
X165964280Y-105684841D01*
X165865238Y-105393073D01*
X165728960Y-105116729D01*
X165615117Y-104946350D01*
X165557781Y-104860540D01*
X165557779Y-104860538D01*
X165557778Y-104860536D01*
X165354620Y-104628880D01*
X165122964Y-104425722D01*
X165122963Y-104425721D01*
X165122957Y-104425716D01*
X164866769Y-104254538D01*
X164590433Y-104118265D01*
X164590427Y-104118262D01*
X164590422Y-104118260D01*
X164590419Y-104118259D01*
X164298667Y-104019222D01*
X164298661Y-104019220D01*
X164298659Y-104019220D01*
X164211979Y-104001978D01*
X163996470Y-103959110D01*
X163996455Y-103959108D01*
X163689003Y-103938957D01*
X163688997Y-103938957D01*
X163381544Y-103959108D01*
X163381529Y-103959110D01*
X163122680Y-104010599D01*
X163079341Y-104019220D01*
X163079339Y-104019220D01*
X163079332Y-104019222D01*
X162787580Y-104118259D01*
X162787566Y-104118265D01*
X162511231Y-104254538D01*
X162255040Y-104425718D01*
X162255038Y-104425720D01*
X162023380Y-104628880D01*
X161820220Y-104860538D01*
X161820218Y-104860540D01*
X161649038Y-105116731D01*
X161512765Y-105393066D01*
X161512759Y-105393080D01*
X161413722Y-105684832D01*
X161413720Y-105684842D01*
X161353610Y-105987029D01*
X161353608Y-105987044D01*
X161333457Y-106294496D01*
X161333457Y-106294503D01*
X161044543Y-106294503D01*
X161044543Y-106294496D01*
X161024391Y-105987044D01*
X161024391Y-105987040D01*
X160964280Y-105684841D01*
X160865238Y-105393073D01*
X160728960Y-105116729D01*
X160615117Y-104946350D01*
X160557781Y-104860540D01*
X160557779Y-104860538D01*
X160557778Y-104860536D01*
X160354620Y-104628880D01*
X160122964Y-104425722D01*
X160122963Y-104425721D01*
X160122957Y-104425716D01*
X159866769Y-104254538D01*
X159590433Y-104118265D01*
X159590427Y-104118262D01*
X159590422Y-104118260D01*
X159590419Y-104118259D01*
X159298667Y-104019222D01*
X159298661Y-104019220D01*
X159298659Y-104019220D01*
X159211979Y-104001978D01*
X158996470Y-103959110D01*
X158996455Y-103959108D01*
X158689003Y-103938957D01*
X158688997Y-103938957D01*
X158381544Y-103959108D01*
X158381529Y-103959110D01*
X158122680Y-104010599D01*
X158079341Y-104019220D01*
X158079339Y-104019220D01*
X158079332Y-104019222D01*
X157787580Y-104118259D01*
X157787566Y-104118265D01*
X157511231Y-104254538D01*
X157255040Y-104425718D01*
X157255038Y-104425720D01*
X157023380Y-104628880D01*
X156820220Y-104860538D01*
X156820218Y-104860540D01*
X156689418Y-105056298D01*
X156634941Y-105101826D01*
X156564498Y-105110674D01*
X156500454Y-105080033D01*
X156468591Y-105035342D01*
X156430992Y-104946369D01*
X156430983Y-104946350D01*
X156399886Y-104891284D01*
X156397815Y-104887291D01*
X156370734Y-104830165D01*
X156349870Y-104796658D01*
X156313079Y-104737571D01*
X156281267Y-104681239D01*
X156259439Y-104642586D01*
X156259433Y-104642577D01*
X156222259Y-104591411D01*
X156219752Y-104587688D01*
X156186332Y-104534014D01*
X156165600Y-104507908D01*
X156118498Y-104448595D01*
X156077428Y-104392068D01*
X156054377Y-104360341D01*
X156054373Y-104360337D01*
X156054372Y-104360335D01*
X156011610Y-104313743D01*
X156008687Y-104310321D01*
X155969371Y-104260812D01*
X155892245Y-104183687D01*
X155818481Y-104103316D01*
X155770681Y-104061897D01*
X155767403Y-104058845D01*
X151042405Y-99333847D01*
X151008379Y-99271535D01*
X151005500Y-99244752D01*
X151005500Y-98218604D01*
X154147364Y-98218604D01*
X154167494Y-98589883D01*
X154227649Y-98956812D01*
X154327124Y-99315090D01*
X154464748Y-99660502D01*
X154464752Y-99660511D01*
X154638920Y-99989028D01*
X154847589Y-100296791D01*
X154983725Y-100457063D01*
X156244886Y-99195901D01*
X156410357Y-99389643D01*
X156604096Y-99555112D01*
X155340312Y-100818897D01*
X155358254Y-100835894D01*
X155654258Y-101060910D01*
X155654264Y-101060913D01*
X155972867Y-101252610D01*
X155972874Y-101252614D01*
X156310320Y-101408734D01*
X156310332Y-101408739D01*
X156662688Y-101527461D01*
X156662702Y-101527465D01*
X157025822Y-101607395D01*
X157025846Y-101607399D01*
X157395477Y-101647599D01*
X157395493Y-101647600D01*
X157767307Y-101647600D01*
X157767322Y-101647599D01*
X158136953Y-101607399D01*
X158136977Y-101607395D01*
X158500097Y-101527465D01*
X158500111Y-101527461D01*
X158852467Y-101408739D01*
X158852479Y-101408734D01*
X159189925Y-101252614D01*
X159189932Y-101252610D01*
X159508535Y-101060913D01*
X159508541Y-101060910D01*
X159804551Y-100835888D01*
X159804558Y-100835882D01*
X159822487Y-100818898D01*
X159822487Y-100818897D01*
X158558703Y-99555112D01*
X158752443Y-99389643D01*
X158917912Y-99195902D01*
X160179074Y-100457063D01*
X160315209Y-100296792D01*
X160523879Y-99989028D01*
X160698047Y-99660511D01*
X160698051Y-99660502D01*
X160835675Y-99315090D01*
X160935150Y-98956812D01*
X160995305Y-98589883D01*
X161015436Y-98218604D01*
X172384564Y-98218604D01*
X172404694Y-98589883D01*
X172464849Y-98956812D01*
X172564324Y-99315090D01*
X172701948Y-99660502D01*
X172701952Y-99660511D01*
X172876120Y-99989028D01*
X173084789Y-100296791D01*
X173220925Y-100457063D01*
X174482086Y-99195901D01*
X174647557Y-99389643D01*
X174841296Y-99555112D01*
X173577512Y-100818897D01*
X173595454Y-100835894D01*
X173891458Y-101060910D01*
X173891464Y-101060913D01*
X174210067Y-101252610D01*
X174210074Y-101252614D01*
X174547520Y-101408734D01*
X174547532Y-101408739D01*
X174899888Y-101527461D01*
X174899902Y-101527465D01*
X175263022Y-101607395D01*
X175263046Y-101607399D01*
X175632677Y-101647599D01*
X175632693Y-101647600D01*
X176004507Y-101647600D01*
X176004522Y-101647599D01*
X176374153Y-101607399D01*
X176374177Y-101607395D01*
X176737297Y-101527465D01*
X176737311Y-101527461D01*
X177089667Y-101408739D01*
X177089679Y-101408734D01*
X177427125Y-101252614D01*
X177427132Y-101252610D01*
X177745735Y-101060913D01*
X177745741Y-101060910D01*
X178041751Y-100835888D01*
X178041758Y-100835882D01*
X178059687Y-100818898D01*
X178059687Y-100818897D01*
X176795903Y-99555112D01*
X176989643Y-99389643D01*
X177155112Y-99195902D01*
X178416274Y-100457063D01*
X178552409Y-100296792D01*
X178761079Y-99989028D01*
X178935247Y-99660511D01*
X178935251Y-99660502D01*
X179072875Y-99315090D01*
X179172350Y-98956812D01*
X179232505Y-98589883D01*
X179252636Y-98218604D01*
X179252636Y-98218595D01*
X179232505Y-97847316D01*
X179172350Y-97480387D01*
X179072875Y-97122109D01*
X178935251Y-96776697D01*
X178935247Y-96776688D01*
X178761079Y-96448171D01*
X178552410Y-96140408D01*
X178416274Y-95980135D01*
X177155112Y-97241296D01*
X176989643Y-97047557D01*
X176795902Y-96882086D01*
X178059687Y-95618301D01*
X178041749Y-95601309D01*
X177745741Y-95376289D01*
X177745735Y-95376286D01*
X177427132Y-95184589D01*
X177427125Y-95184585D01*
X177089679Y-95028465D01*
X177089667Y-95028460D01*
X176737311Y-94909738D01*
X176737297Y-94909734D01*
X176374177Y-94829804D01*
X176374153Y-94829800D01*
X176004522Y-94789600D01*
X175632677Y-94789600D01*
X175263046Y-94829800D01*
X175263022Y-94829804D01*
X174899902Y-94909734D01*
X174899888Y-94909738D01*
X174547532Y-95028460D01*
X174547520Y-95028465D01*
X174210074Y-95184585D01*
X174210067Y-95184589D01*
X173891464Y-95376286D01*
X173891458Y-95376289D01*
X173595449Y-95601310D01*
X173577511Y-95618301D01*
X174841297Y-96882087D01*
X174647557Y-97047557D01*
X174482087Y-97241297D01*
X173220925Y-95980135D01*
X173084789Y-96140408D01*
X172876120Y-96448171D01*
X172701952Y-96776688D01*
X172701948Y-96776697D01*
X172564324Y-97122109D01*
X172464849Y-97480387D01*
X172404694Y-97847316D01*
X172384564Y-98218595D01*
X172384564Y-98218604D01*
X161015436Y-98218604D01*
X161015436Y-98218595D01*
X160995305Y-97847316D01*
X160935150Y-97480387D01*
X160835675Y-97122109D01*
X160698051Y-96776697D01*
X160698047Y-96776688D01*
X160523879Y-96448171D01*
X160315210Y-96140408D01*
X160179074Y-95980135D01*
X158917912Y-97241296D01*
X158752443Y-97047557D01*
X158558702Y-96882086D01*
X159822487Y-95618301D01*
X159804549Y-95601309D01*
X159508541Y-95376289D01*
X159508535Y-95376286D01*
X159189932Y-95184589D01*
X159189925Y-95184585D01*
X158852479Y-95028465D01*
X158852467Y-95028460D01*
X158500111Y-94909738D01*
X158500097Y-94909734D01*
X158136977Y-94829804D01*
X158136953Y-94829800D01*
X157767322Y-94789600D01*
X157395477Y-94789600D01*
X157025846Y-94829800D01*
X157025822Y-94829804D01*
X156662702Y-94909734D01*
X156662688Y-94909738D01*
X156310332Y-95028460D01*
X156310320Y-95028465D01*
X155972874Y-95184585D01*
X155972867Y-95184589D01*
X155654264Y-95376286D01*
X155654258Y-95376289D01*
X155358249Y-95601310D01*
X155340311Y-95618301D01*
X156604097Y-96882087D01*
X156410357Y-97047557D01*
X156244887Y-97241297D01*
X154983725Y-95980135D01*
X154847589Y-96140408D01*
X154638920Y-96448171D01*
X154464752Y-96776688D01*
X154464748Y-96776697D01*
X154327124Y-97122109D01*
X154227649Y-97480387D01*
X154167494Y-97847316D01*
X154147364Y-98218595D01*
X154147364Y-98218604D01*
X151005500Y-98218604D01*
X151005500Y-91461784D01*
X151007680Y-91309153D01*
X151007680Y-91309148D01*
X150996794Y-91200607D01*
X150990567Y-91091701D01*
X150979781Y-91029381D01*
X150979176Y-91024948D01*
X150972865Y-90962017D01*
X150949678Y-90855429D01*
X150931077Y-90747943D01*
X150913260Y-90687266D01*
X150912151Y-90682918D01*
X150902991Y-90640813D01*
X150898708Y-90621122D01*
X150863517Y-90517858D01*
X150832789Y-90413207D01*
X150808172Y-90354959D01*
X150806572Y-90350759D01*
X150786175Y-90290902D01*
X150739448Y-90192336D01*
X150696986Y-90091856D01*
X150696983Y-90091850D01*
X150665886Y-90036784D01*
X150663815Y-90032791D01*
X150636734Y-89975665D01*
X150579079Y-89883071D01*
X150525439Y-89788086D01*
X150525433Y-89788077D01*
X150488259Y-89736911D01*
X150485758Y-89733198D01*
X150452332Y-89679514D01*
X150452325Y-89679505D01*
X150384496Y-89594092D01*
X150356291Y-89555273D01*
X150320377Y-89505841D01*
X150277611Y-89459245D01*
X150274708Y-89455846D01*
X150235373Y-89406314D01*
X150235371Y-89406312D01*
X150235368Y-89406308D01*
X150235366Y-89406306D01*
X150158234Y-89329175D01*
X150084481Y-89248816D01*
X150036688Y-89207403D01*
X150033410Y-89204351D01*
X149929062Y-89100003D01*
X162673650Y-89100003D01*
X162693038Y-89494647D01*
X162693039Y-89494661D01*
X162751015Y-89885505D01*
X162847026Y-90268799D01*
X162980136Y-90640813D01*
X162980138Y-90640817D01*
X163149076Y-90998008D01*
X163149078Y-90998011D01*
X163352214Y-91336924D01*
X163587581Y-91654280D01*
X163587588Y-91654288D01*
X163587589Y-91654289D01*
X163852941Y-91947059D01*
X164077403Y-92150500D01*
X164145712Y-92212412D01*
X164145716Y-92212415D01*
X164463075Y-92447785D01*
X164463079Y-92447787D01*
X164463080Y-92447788D01*
X164801992Y-92650924D01*
X165159183Y-92819862D01*
X165159186Y-92819863D01*
X165531200Y-92952973D01*
X165531202Y-92952973D01*
X165531212Y-92952977D01*
X165914498Y-93048985D01*
X166305349Y-93106962D01*
X166642289Y-93123514D01*
X166699996Y-93126350D01*
X166700000Y-93126350D01*
X166700004Y-93126350D01*
X166755674Y-93123614D01*
X167094651Y-93106962D01*
X167485502Y-93048985D01*
X167868788Y-92952977D01*
X168240817Y-92819862D01*
X168598008Y-92650924D01*
X168936920Y-92447788D01*
X169254289Y-92212411D01*
X169286584Y-92183139D01*
X169350491Y-92152214D01*
X169371201Y-92150500D01*
X181764250Y-92150500D01*
X181832371Y-92170502D01*
X181853345Y-92187404D01*
X182332595Y-92666653D01*
X182366620Y-92728966D01*
X182369500Y-92755749D01*
X182369500Y-101046715D01*
X182367319Y-101199344D01*
X182367319Y-101199353D01*
X182378205Y-101307892D01*
X182384433Y-101416799D01*
X182395216Y-101479113D01*
X182395825Y-101483569D01*
X182402134Y-101546481D01*
X182425321Y-101653070D01*
X182443922Y-101760553D01*
X182461737Y-101821229D01*
X182462849Y-101825586D01*
X182476292Y-101887378D01*
X182511482Y-101990641D01*
X182542210Y-102095292D01*
X182542212Y-102095296D01*
X182566824Y-102153536D01*
X182568426Y-102157740D01*
X182588821Y-102217587D01*
X182588828Y-102217605D01*
X182635551Y-102316163D01*
X182678010Y-102416636D01*
X182678014Y-102416644D01*
X182708900Y-102471337D01*
X182709113Y-102471713D01*
X182711184Y-102475707D01*
X182738262Y-102532827D01*
X182738269Y-102532841D01*
X182776467Y-102594186D01*
X182795919Y-102625426D01*
X182849564Y-102720419D01*
X182886505Y-102771264D01*
X182886733Y-102771577D01*
X182889241Y-102775302D01*
X182895337Y-102785092D01*
X182922664Y-102828980D01*
X182922676Y-102828996D01*
X182990503Y-102914406D01*
X183054619Y-103002655D01*
X183097372Y-103049237D01*
X183100293Y-103052657D01*
X183108150Y-103062550D01*
X183139627Y-103102186D01*
X183139630Y-103102189D01*
X183139634Y-103102194D01*
X183208645Y-103171204D01*
X183216765Y-103179324D01*
X183290519Y-103259684D01*
X183338319Y-103301103D01*
X183341581Y-103304140D01*
X185471111Y-105433669D01*
X187558595Y-107521153D01*
X187592621Y-107583465D01*
X187595500Y-107610248D01*
X187595500Y-113881645D01*
X187610433Y-114142799D01*
X187655665Y-114404167D01*
X187669923Y-114486557D01*
X187669924Y-114486560D01*
X187763778Y-114806198D01*
X187768211Y-114821293D01*
X187904014Y-115142644D01*
X187904016Y-115142647D01*
X187904021Y-115142657D01*
X188075560Y-115446413D01*
X188075566Y-115446422D01*
X188085518Y-115460120D01*
X188280623Y-115728659D01*
X188502803Y-115970740D01*
X188516522Y-115985687D01*
X188692388Y-116138076D01*
X188730772Y-116197802D01*
X188730772Y-116268798D01*
X188692388Y-116328524D01*
X188627808Y-116358017D01*
X188609876Y-116359300D01*
X184982524Y-116359300D01*
X184914403Y-116339298D01*
X184893429Y-116322395D01*
X183358906Y-114787872D01*
X181689634Y-113118600D01*
X181685489Y-113114026D01*
X181655867Y-113077931D01*
X181502304Y-112951905D01*
X181327105Y-112858259D01*
X181327103Y-112858258D01*
X181137004Y-112800591D01*
X181136992Y-112800589D01*
X180939304Y-112781120D01*
X180939297Y-112781120D01*
X180892835Y-112785696D01*
X180886656Y-112786000D01*
X180194633Y-112786000D01*
X180126512Y-112765998D01*
X180096122Y-112738560D01*
X179981685Y-112595061D01*
X179928900Y-112546084D01*
X179788481Y-112415794D01*
X179788474Y-112415789D01*
X179570725Y-112267329D01*
X179570718Y-112267325D01*
X179333257Y-112152969D01*
X179333245Y-112152964D01*
X179081410Y-112075284D01*
X179081402Y-112075282D01*
X179081400Y-112075282D01*
X178820781Y-112036000D01*
X178557219Y-112036000D01*
X178296600Y-112075282D01*
X178296598Y-112075282D01*
X178296589Y-112075284D01*
X178044754Y-112152964D01*
X178044742Y-112152969D01*
X177807283Y-112267325D01*
X177807275Y-112267329D01*
X177589525Y-112415789D01*
X177589520Y-112415793D01*
X177396315Y-112595061D01*
X177231982Y-112801127D01*
X177100205Y-113029371D01*
X177100202Y-113029379D01*
X177003911Y-113274724D01*
X176956023Y-113484540D01*
X176945265Y-113531674D01*
X176925569Y-113794500D01*
X176945265Y-114057326D01*
X176945266Y-114057330D01*
X177003911Y-114314275D01*
X177100202Y-114559620D01*
X177100205Y-114559628D01*
X177231982Y-114787872D01*
X177231984Y-114787875D01*
X177231985Y-114787876D01*
X177396314Y-114993938D01*
X177589519Y-115173206D01*
X177589525Y-115173210D01*
X177807275Y-115321670D01*
X177807279Y-115321672D01*
X177807285Y-115321676D01*
X178044746Y-115436032D01*
X178044749Y-115436032D01*
X178044754Y-115436035D01*
X178296589Y-115513715D01*
X178296591Y-115513715D01*
X178296600Y-115513718D01*
X178557219Y-115553000D01*
X178557223Y-115553000D01*
X178820777Y-115553000D01*
X178820781Y-115553000D01*
X179081400Y-115513718D01*
X179148933Y-115492887D01*
X179333245Y-115436035D01*
X179333247Y-115436034D01*
X179333254Y-115436032D01*
X179570716Y-115321676D01*
X179788481Y-115173206D01*
X179981686Y-114993938D01*
X180096122Y-114850440D01*
X180154233Y-114809652D01*
X180194633Y-114803000D01*
X180469376Y-114803000D01*
X180537497Y-114823002D01*
X180558471Y-114839905D01*
X183762259Y-118043693D01*
X183766401Y-118048263D01*
X183796032Y-118084368D01*
X183897371Y-118167535D01*
X183949596Y-118210395D01*
X184124796Y-118304041D01*
X184314899Y-118361708D01*
X184314903Y-118361708D01*
X184314905Y-118361709D01*
X184512597Y-118381180D01*
X184512600Y-118381180D01*
X184512602Y-118381180D01*
X184559061Y-118376604D01*
X184565241Y-118376300D01*
X209769756Y-118376300D01*
X209775935Y-118376604D01*
X209822397Y-118381180D01*
X209822400Y-118381180D01*
X209822404Y-118381180D01*
X210020092Y-118361710D01*
X210020093Y-118361709D01*
X210020101Y-118361709D01*
X210210204Y-118304041D01*
X210264708Y-118274908D01*
X210385404Y-118210395D01*
X210538968Y-118084368D01*
X210568611Y-118048245D01*
X210572725Y-118043707D01*
X213776529Y-114839905D01*
X213838841Y-114805879D01*
X213865624Y-114803000D01*
X214140367Y-114803000D01*
X214208488Y-114823002D01*
X214238878Y-114850440D01*
X214353314Y-114993938D01*
X214546519Y-115173206D01*
X214546525Y-115173210D01*
X214764275Y-115321670D01*
X214764279Y-115321672D01*
X214764285Y-115321676D01*
X215001746Y-115436032D01*
X215001749Y-115436032D01*
X215001754Y-115436035D01*
X215253589Y-115513715D01*
X215253591Y-115513715D01*
X215253600Y-115513718D01*
X215514219Y-115553000D01*
X215514223Y-115553000D01*
X215777777Y-115553000D01*
X215777781Y-115553000D01*
X216038400Y-115513718D01*
X216105933Y-115492887D01*
X216290245Y-115436035D01*
X216290247Y-115436034D01*
X216290254Y-115436032D01*
X216527716Y-115321676D01*
X216745481Y-115173206D01*
X216938686Y-114993938D01*
X217103015Y-114787876D01*
X217234796Y-114559624D01*
X217331087Y-114314280D01*
X217389735Y-114057326D01*
X217409431Y-113794500D01*
X217389735Y-113531674D01*
X217331087Y-113274720D01*
X217234796Y-113029376D01*
X217234795Y-113029375D01*
X217234794Y-113029371D01*
X217103017Y-112801127D01*
X217103015Y-112801124D01*
X216938686Y-112595062D01*
X216745481Y-112415794D01*
X216745474Y-112415789D01*
X216527725Y-112267329D01*
X216527718Y-112267325D01*
X216290257Y-112152969D01*
X216290245Y-112152964D01*
X216038410Y-112075284D01*
X216038402Y-112075282D01*
X216038400Y-112075282D01*
X215777781Y-112036000D01*
X215514219Y-112036000D01*
X215253600Y-112075282D01*
X215253598Y-112075282D01*
X215253589Y-112075284D01*
X215001754Y-112152964D01*
X215001742Y-112152969D01*
X214764283Y-112267325D01*
X214764275Y-112267329D01*
X214546525Y-112415789D01*
X214546520Y-112415793D01*
X214353314Y-112595061D01*
X214238878Y-112738560D01*
X214180767Y-112779348D01*
X214140367Y-112786000D01*
X213448341Y-112786000D01*
X213442161Y-112785696D01*
X213395702Y-112781120D01*
X213395698Y-112781120D01*
X213346153Y-112786000D01*
X213198005Y-112800590D01*
X213007895Y-112858259D01*
X212832695Y-112951905D01*
X212679130Y-113077932D01*
X212649504Y-113114032D01*
X212645350Y-113118615D01*
X209441571Y-116322395D01*
X209379259Y-116356420D01*
X209352476Y-116359300D01*
X202685160Y-116359300D01*
X202617039Y-116339298D01*
X202570546Y-116285642D01*
X202560442Y-116215368D01*
X202589936Y-116150788D01*
X202608219Y-116133520D01*
X202634857Y-116112978D01*
X202646916Y-116103680D01*
X202897100Y-115860541D01*
X203117938Y-115590468D01*
X203306550Y-115296982D01*
X203460478Y-114983908D01*
X203577714Y-114655329D01*
X203656732Y-114315528D01*
X203696500Y-113968934D01*
X203696500Y-106207355D01*
X203696500Y-104199749D01*
X203716502Y-104131628D01*
X203733405Y-104110654D01*
X206141651Y-101702407D01*
X206251100Y-101596041D01*
X206320146Y-101511601D01*
X206392754Y-101430186D01*
X206429192Y-101378495D01*
X206431908Y-101374921D01*
X206471938Y-101325968D01*
X206530917Y-101234193D01*
X206593762Y-101145046D01*
X206624064Y-101089548D01*
X206626355Y-101085688D01*
X206660550Y-101032482D01*
X206708688Y-100934572D01*
X206760956Y-100838852D01*
X206784738Y-100780255D01*
X206786573Y-100776162D01*
X206814478Y-100719408D01*
X206851137Y-100616660D01*
X206892158Y-100515595D01*
X206909112Y-100454646D01*
X206910453Y-100450414D01*
X206931714Y-100390829D01*
X206956418Y-100284593D01*
X206985656Y-100179490D01*
X206995550Y-100117012D01*
X206996402Y-100112644D01*
X207010732Y-100051028D01*
X207023165Y-99942662D01*
X207040231Y-99834917D01*
X207042939Y-99771720D01*
X207043290Y-99767264D01*
X207044956Y-99752751D01*
X207050500Y-99704434D01*
X207050500Y-99595343D01*
X207052083Y-99558417D01*
X207055171Y-99486376D01*
X207055171Y-99486374D01*
X207050661Y-99423304D01*
X207050500Y-99418808D01*
X207050500Y-91771201D01*
X207070502Y-91703080D01*
X207083140Y-91686584D01*
X207112411Y-91654289D01*
X207347788Y-91336920D01*
X207550924Y-90998008D01*
X207719862Y-90640817D01*
X207852977Y-90268788D01*
X207948985Y-89885502D01*
X208006962Y-89494651D01*
X208026350Y-89100000D01*
X208006962Y-88705349D01*
X207948985Y-88314498D01*
X207852977Y-87931212D01*
X207719862Y-87559183D01*
X207550924Y-87201992D01*
X207347788Y-86863080D01*
X207347787Y-86863079D01*
X207347785Y-86863075D01*
X207112418Y-86545719D01*
X207112411Y-86545711D01*
X206847059Y-86252941D01*
X206554289Y-85987589D01*
X206554288Y-85987588D01*
X206554280Y-85987581D01*
X206236924Y-85752214D01*
X205898011Y-85549078D01*
X205898012Y-85549078D01*
X205898008Y-85549076D01*
X205540817Y-85380138D01*
X205540813Y-85380136D01*
X205168799Y-85247026D01*
X205168790Y-85247023D01*
X205168788Y-85247023D01*
X205074660Y-85223445D01*
X204785505Y-85151015D01*
X204394661Y-85093039D01*
X204394654Y-85093038D01*
X204394651Y-85093038D01*
X204197325Y-85083344D01*
X204000004Y-85073650D01*
X203999996Y-85073650D01*
X203774485Y-85084728D01*
X203605349Y-85093038D01*
X203605346Y-85093038D01*
X203605338Y-85093039D01*
X203214494Y-85151015D01*
X202831200Y-85247026D01*
X202459186Y-85380136D01*
X202101988Y-85549078D01*
X201763075Y-85752214D01*
X201445719Y-85987581D01*
X201152941Y-86252941D01*
X200887581Y-86545719D01*
X200652214Y-86863075D01*
X200449078Y-87201988D01*
X200280136Y-87559186D01*
X200147026Y-87931200D01*
X200051015Y-88314494D01*
X199993039Y-88705338D01*
X199993038Y-88705352D01*
X199973650Y-89099996D01*
X199973650Y-89100003D01*
X199993038Y-89494647D01*
X199993039Y-89494661D01*
X200051015Y-89885505D01*
X200147026Y-90268799D01*
X200280136Y-90640813D01*
X200280138Y-90640817D01*
X200449076Y-90998008D01*
X200449078Y-90998011D01*
X200652214Y-91336924D01*
X200887581Y-91654280D01*
X200916860Y-91686584D01*
X200947786Y-91750491D01*
X200949500Y-91771201D01*
X200949500Y-98214251D01*
X200929498Y-98282372D01*
X200912595Y-98303346D01*
X198504383Y-100711557D01*
X198394913Y-100817944D01*
X198394906Y-100817952D01*
X198394901Y-100817957D01*
X198394900Y-100817959D01*
X198325850Y-100902403D01*
X198301648Y-100929540D01*
X198253245Y-100983813D01*
X198216811Y-101035496D01*
X198214091Y-101039075D01*
X198174061Y-101088032D01*
X198115083Y-101179804D01*
X198052240Y-101268949D01*
X198052236Y-101268957D01*
X198021936Y-101324447D01*
X198019641Y-101328315D01*
X197985452Y-101381514D01*
X197985447Y-101381522D01*
X197937311Y-101479427D01*
X197885048Y-101575139D01*
X197885046Y-101575143D01*
X197861262Y-101633737D01*
X197859424Y-101637840D01*
X197831521Y-101694592D01*
X197794867Y-101797325D01*
X197753840Y-101898406D01*
X197736891Y-101959336D01*
X197735532Y-101963622D01*
X197714285Y-102023171D01*
X197689583Y-102129399D01*
X197660343Y-102234512D01*
X197650449Y-102296980D01*
X197649587Y-102301395D01*
X197635271Y-102362953D01*
X197635269Y-102362966D01*
X197635268Y-102362972D01*
X197622834Y-102471337D01*
X197605770Y-102579075D01*
X197605768Y-102579094D01*
X197603061Y-102642254D01*
X197602708Y-102646738D01*
X197595500Y-102709568D01*
X197595500Y-102818642D01*
X197590827Y-102927625D01*
X197590827Y-102927626D01*
X197595339Y-102990706D01*
X197595500Y-102995202D01*
X197595500Y-104617808D01*
X197575498Y-104685929D01*
X197521842Y-104732422D01*
X197451568Y-104742526D01*
X197386988Y-104713032D01*
X197374769Y-104700886D01*
X197311624Y-104628884D01*
X197311621Y-104628882D01*
X197311620Y-104628880D01*
X197079964Y-104425722D01*
X197079963Y-104425721D01*
X197079957Y-104425716D01*
X196823769Y-104254538D01*
X196547433Y-104118265D01*
X196547427Y-104118262D01*
X196547422Y-104118260D01*
X196547419Y-104118259D01*
X196255667Y-104019222D01*
X196255661Y-104019220D01*
X196255659Y-104019220D01*
X196168979Y-104001978D01*
X195953470Y-103959110D01*
X195953455Y-103959108D01*
X195646003Y-103938957D01*
X195645997Y-103938957D01*
X195338544Y-103959108D01*
X195338529Y-103959110D01*
X195079680Y-104010599D01*
X195036341Y-104019220D01*
X195036339Y-104019220D01*
X195036332Y-104019222D01*
X194744580Y-104118259D01*
X194744566Y-104118265D01*
X194468231Y-104254538D01*
X194212040Y-104425718D01*
X194212038Y-104425720D01*
X193980380Y-104628880D01*
X193777220Y-104860538D01*
X193777218Y-104860540D01*
X193646418Y-105056298D01*
X193591941Y-105101826D01*
X193521498Y-105110674D01*
X193457454Y-105080033D01*
X193425591Y-105035342D01*
X193387992Y-104946369D01*
X193387983Y-104946350D01*
X193356886Y-104891284D01*
X193354815Y-104887291D01*
X193327734Y-104830165D01*
X193303980Y-104792017D01*
X193270080Y-104737573D01*
X193216436Y-104642581D01*
X193216431Y-104642574D01*
X193216430Y-104642572D01*
X193198437Y-104617808D01*
X193179255Y-104591406D01*
X193176765Y-104587709D01*
X193143331Y-104534013D01*
X193086090Y-104461934D01*
X193075496Y-104448593D01*
X193011383Y-104360349D01*
X193011382Y-104360348D01*
X193011377Y-104360341D01*
X192968610Y-104313743D01*
X192965708Y-104310346D01*
X192926373Y-104260814D01*
X192926371Y-104260812D01*
X192926368Y-104260808D01*
X192926366Y-104260806D01*
X192849234Y-104183675D01*
X192775481Y-104103316D01*
X192727688Y-104061903D01*
X192724410Y-104058851D01*
X188507405Y-99841846D01*
X188473379Y-99779534D01*
X188470500Y-99752751D01*
X188470500Y-98218604D01*
X191447364Y-98218604D01*
X191467494Y-98589883D01*
X191527649Y-98956812D01*
X191627124Y-99315090D01*
X191764748Y-99660502D01*
X191764752Y-99660511D01*
X191938920Y-99989028D01*
X192147589Y-100296791D01*
X192283725Y-100457063D01*
X193544886Y-99195901D01*
X193710357Y-99389643D01*
X193904096Y-99555112D01*
X192640311Y-100818897D01*
X192658254Y-100835894D01*
X192954258Y-101060910D01*
X192954264Y-101060913D01*
X193272867Y-101252610D01*
X193272874Y-101252614D01*
X193610320Y-101408734D01*
X193610332Y-101408739D01*
X193962688Y-101527461D01*
X193962702Y-101527465D01*
X194325822Y-101607395D01*
X194325846Y-101607399D01*
X194695477Y-101647599D01*
X194695493Y-101647600D01*
X195067307Y-101647600D01*
X195067322Y-101647599D01*
X195436953Y-101607399D01*
X195436977Y-101607395D01*
X195800097Y-101527465D01*
X195800111Y-101527461D01*
X196152467Y-101408739D01*
X196152479Y-101408734D01*
X196489925Y-101252614D01*
X196489932Y-101252610D01*
X196808535Y-101060913D01*
X196808541Y-101060910D01*
X197104551Y-100835888D01*
X197104558Y-100835882D01*
X197122487Y-100818898D01*
X197122487Y-100818897D01*
X195858703Y-99555112D01*
X196052443Y-99389643D01*
X196217912Y-99195902D01*
X197479074Y-100457063D01*
X197615209Y-100296792D01*
X197823879Y-99989028D01*
X197998047Y-99660511D01*
X197998051Y-99660502D01*
X198135675Y-99315090D01*
X198235150Y-98956812D01*
X198295305Y-98589883D01*
X198315436Y-98218604D01*
X198315436Y-98218595D01*
X198295305Y-97847316D01*
X198235150Y-97480387D01*
X198135675Y-97122109D01*
X197998051Y-96776697D01*
X197998047Y-96776688D01*
X197823879Y-96448171D01*
X197615210Y-96140408D01*
X197479074Y-95980135D01*
X196217912Y-97241296D01*
X196052443Y-97047557D01*
X195858702Y-96882086D01*
X197122487Y-95618301D01*
X197104549Y-95601309D01*
X196808541Y-95376289D01*
X196808535Y-95376286D01*
X196489932Y-95184589D01*
X196489925Y-95184585D01*
X196152479Y-95028465D01*
X196152467Y-95028460D01*
X195800111Y-94909738D01*
X195800097Y-94909734D01*
X195436977Y-94829804D01*
X195436953Y-94829800D01*
X195067322Y-94789600D01*
X194695477Y-94789600D01*
X194325846Y-94829800D01*
X194325822Y-94829804D01*
X193962702Y-94909734D01*
X193962688Y-94909738D01*
X193610332Y-95028460D01*
X193610320Y-95028465D01*
X193272874Y-95184585D01*
X193272867Y-95184589D01*
X192954264Y-95376286D01*
X192954258Y-95376289D01*
X192658249Y-95601310D01*
X192640311Y-95618301D01*
X193904097Y-96882087D01*
X193710357Y-97047557D01*
X193544887Y-97241297D01*
X192283725Y-95980135D01*
X192147589Y-96140408D01*
X191938920Y-96448171D01*
X191764752Y-96776688D01*
X191764748Y-96776697D01*
X191627124Y-97122109D01*
X191527649Y-97480387D01*
X191467494Y-97847316D01*
X191447364Y-98218595D01*
X191447364Y-98218604D01*
X188470500Y-98218604D01*
X188470500Y-91461784D01*
X188472680Y-91309153D01*
X188472680Y-91309148D01*
X188461794Y-91200607D01*
X188455567Y-91091701D01*
X188444781Y-91029381D01*
X188444176Y-91024948D01*
X188437865Y-90962017D01*
X188414678Y-90855429D01*
X188396077Y-90747943D01*
X188378260Y-90687266D01*
X188377151Y-90682918D01*
X188367991Y-90640813D01*
X188363708Y-90621122D01*
X188328517Y-90517858D01*
X188297789Y-90413207D01*
X188273172Y-90354959D01*
X188271572Y-90350759D01*
X188251175Y-90290902D01*
X188204448Y-90192336D01*
X188161986Y-90091856D01*
X188161983Y-90091850D01*
X188130886Y-90036784D01*
X188128815Y-90032791D01*
X188101734Y-89975665D01*
X188044079Y-89883071D01*
X187990439Y-89788086D01*
X187990433Y-89788077D01*
X187953259Y-89736911D01*
X187950758Y-89733198D01*
X187917332Y-89679514D01*
X187917325Y-89679505D01*
X187849496Y-89594092D01*
X187821291Y-89555273D01*
X187785377Y-89505841D01*
X187742611Y-89459245D01*
X187739708Y-89455846D01*
X187700373Y-89406314D01*
X187700371Y-89406312D01*
X187700368Y-89406308D01*
X187700366Y-89406306D01*
X187623234Y-89329175D01*
X187549481Y-89248816D01*
X187501688Y-89207403D01*
X187498410Y-89204351D01*
X185252441Y-86958383D01*
X185146041Y-86848900D01*
X185061596Y-86779850D01*
X184980185Y-86707245D01*
X184928493Y-86670804D01*
X184924917Y-86668087D01*
X184875968Y-86628062D01*
X184784195Y-86569083D01*
X184695046Y-86506238D01*
X184639550Y-86475935D01*
X184635684Y-86473641D01*
X184582482Y-86439450D01*
X184582480Y-86439449D01*
X184484572Y-86391311D01*
X184388866Y-86339051D01*
X184388857Y-86339046D01*
X184388852Y-86339044D01*
X184385154Y-86337543D01*
X184330266Y-86315265D01*
X184326162Y-86313426D01*
X184303300Y-86302185D01*
X184269408Y-86285522D01*
X184166674Y-86248867D01*
X184065595Y-86207841D01*
X184065596Y-86207841D01*
X184065593Y-86207840D01*
X184004650Y-86190887D01*
X184000362Y-86189527D01*
X183974858Y-86180427D01*
X183940829Y-86168286D01*
X183940824Y-86168285D01*
X183940822Y-86168284D01*
X183834600Y-86143583D01*
X183729490Y-86114344D01*
X183729486Y-86114343D01*
X183729485Y-86114343D01*
X183667018Y-86104449D01*
X183662609Y-86103588D01*
X183650862Y-86100856D01*
X183601042Y-86089270D01*
X183601034Y-86089269D01*
X183601030Y-86089268D01*
X183601028Y-86089268D01*
X183492662Y-86076834D01*
X183384920Y-86059769D01*
X183384909Y-86059768D01*
X183340771Y-86057876D01*
X183321736Y-86057060D01*
X183317259Y-86056708D01*
X183284209Y-86052916D01*
X183254434Y-86049500D01*
X183254432Y-86049500D01*
X183145359Y-86049500D01*
X183141603Y-86049339D01*
X183036374Y-86044827D01*
X183036373Y-86044827D01*
X182973294Y-86049339D01*
X182968798Y-86049500D01*
X169371201Y-86049500D01*
X169303080Y-86029498D01*
X169286584Y-86016860D01*
X169254280Y-85987581D01*
X168936924Y-85752214D01*
X168598011Y-85549078D01*
X168598012Y-85549078D01*
X168598008Y-85549076D01*
X168240817Y-85380138D01*
X168240813Y-85380136D01*
X167868799Y-85247026D01*
X167868790Y-85247023D01*
X167868788Y-85247023D01*
X167774660Y-85223445D01*
X167485505Y-85151015D01*
X167094661Y-85093039D01*
X167094654Y-85093038D01*
X167094651Y-85093038D01*
X166897325Y-85083344D01*
X166700004Y-85073650D01*
X166699996Y-85073650D01*
X166474485Y-85084728D01*
X166305349Y-85093038D01*
X166305346Y-85093038D01*
X166305338Y-85093039D01*
X165914494Y-85151015D01*
X165531200Y-85247026D01*
X165159186Y-85380136D01*
X164801988Y-85549078D01*
X164463075Y-85752214D01*
X164145719Y-85987581D01*
X163852941Y-86252941D01*
X163587581Y-86545719D01*
X163352214Y-86863075D01*
X163149078Y-87201988D01*
X162980136Y-87559186D01*
X162847026Y-87931200D01*
X162751015Y-88314494D01*
X162693039Y-88705338D01*
X162693038Y-88705352D01*
X162673650Y-89099996D01*
X162673650Y-89100003D01*
X149929062Y-89100003D01*
X147787441Y-86958383D01*
X147681041Y-86848900D01*
X147596596Y-86779850D01*
X147515185Y-86707245D01*
X147463493Y-86670804D01*
X147459917Y-86668087D01*
X147410968Y-86628062D01*
X147319195Y-86569083D01*
X147230046Y-86506238D01*
X147174550Y-86475935D01*
X147170684Y-86473641D01*
X147117482Y-86439450D01*
X147117480Y-86439449D01*
X147019572Y-86391311D01*
X146923866Y-86339051D01*
X146923857Y-86339046D01*
X146923852Y-86339044D01*
X146920154Y-86337543D01*
X146865266Y-86315265D01*
X146861162Y-86313426D01*
X146838300Y-86302185D01*
X146804408Y-86285522D01*
X146701674Y-86248867D01*
X146600595Y-86207841D01*
X146600596Y-86207841D01*
X146600593Y-86207840D01*
X146539650Y-86190887D01*
X146535362Y-86189527D01*
X146509858Y-86180427D01*
X146475829Y-86168286D01*
X146475824Y-86168285D01*
X146475822Y-86168284D01*
X146369600Y-86143583D01*
X146264490Y-86114344D01*
X146264486Y-86114343D01*
X146264485Y-86114343D01*
X146202018Y-86104449D01*
X146197609Y-86103588D01*
X146185862Y-86100856D01*
X146136042Y-86089270D01*
X146136034Y-86089269D01*
X146136030Y-86089268D01*
X146136028Y-86089268D01*
X146027662Y-86076834D01*
X145919920Y-86059769D01*
X145919909Y-86059768D01*
X145875771Y-86057876D01*
X145856736Y-86057060D01*
X145852259Y-86056708D01*
X145819209Y-86052916D01*
X145789434Y-86049500D01*
X145789432Y-86049500D01*
X145680359Y-86049500D01*
X145676603Y-86049339D01*
X145571374Y-86044827D01*
X145571373Y-86044827D01*
X145508294Y-86049339D01*
X145503798Y-86049500D01*
X130687201Y-86049500D01*
X130619080Y-86029498D01*
X130602584Y-86016860D01*
X130570280Y-85987581D01*
X130252924Y-85752214D01*
X129914011Y-85549078D01*
X129914012Y-85549078D01*
X129914008Y-85549076D01*
X129556817Y-85380138D01*
X129556813Y-85380136D01*
X129184799Y-85247026D01*
X129184790Y-85247023D01*
X129184788Y-85247023D01*
X129090660Y-85223445D01*
X128801505Y-85151015D01*
X128410661Y-85093039D01*
X128410654Y-85093038D01*
X128410651Y-85093038D01*
X128213325Y-85083344D01*
X128016004Y-85073650D01*
X128015996Y-85073650D01*
X127790485Y-85084728D01*
X127621349Y-85093038D01*
X127621346Y-85093038D01*
X127621338Y-85093039D01*
X127230494Y-85151015D01*
X126847200Y-85247026D01*
X126475186Y-85380136D01*
X126117988Y-85549078D01*
X125779075Y-85752214D01*
X125461719Y-85987581D01*
X125168941Y-86252941D01*
X124903581Y-86545719D01*
X124668214Y-86863075D01*
X124465078Y-87201988D01*
X124296136Y-87559186D01*
X124163026Y-87931200D01*
X124067015Y-88314494D01*
X124009039Y-88705338D01*
X124009038Y-88705352D01*
X123989650Y-89099996D01*
X123989650Y-89100003D01*
X116070730Y-89100003D01*
X120222929Y-84947805D01*
X120285241Y-84913779D01*
X120312024Y-84910900D01*
X120468888Y-84910900D01*
X120475067Y-84911204D01*
X120521529Y-84915780D01*
X120521532Y-84915780D01*
X120521536Y-84915780D01*
X120719224Y-84896310D01*
X120719225Y-84896309D01*
X120719233Y-84896309D01*
X120909336Y-84838641D01*
X121021231Y-84778832D01*
X121084536Y-84744995D01*
X121238100Y-84618968D01*
X121267743Y-84582845D01*
X121271857Y-84578307D01*
X122254763Y-83595402D01*
X122317073Y-83561379D01*
X122343856Y-83558500D01*
X133688144Y-83558500D01*
X133756265Y-83578502D01*
X133777238Y-83595404D01*
X134760127Y-84578293D01*
X134764269Y-84582863D01*
X134793900Y-84618968D01*
X134947464Y-84744995D01*
X135122664Y-84838641D01*
X135312767Y-84896308D01*
X135312771Y-84896308D01*
X135312773Y-84896309D01*
X135510465Y-84915780D01*
X135510468Y-84915780D01*
X135510470Y-84915780D01*
X135556929Y-84911204D01*
X135563109Y-84910900D01*
X138706088Y-84910900D01*
X138712267Y-84911204D01*
X138758729Y-84915780D01*
X138758732Y-84915780D01*
X138758736Y-84915780D01*
X138956424Y-84896310D01*
X138956425Y-84896309D01*
X138956433Y-84896309D01*
X139146536Y-84838641D01*
X139258431Y-84778832D01*
X139321736Y-84744995D01*
X139475300Y-84618968D01*
X139504943Y-84582845D01*
X139509057Y-84578307D01*
X140491963Y-83595402D01*
X140554273Y-83561379D01*
X140581056Y-83558500D01*
X154134944Y-83558500D01*
X154203065Y-83578502D01*
X154224038Y-83595404D01*
X155206927Y-84578293D01*
X155211069Y-84582863D01*
X155240700Y-84618968D01*
X155394264Y-84744995D01*
X155569464Y-84838641D01*
X155759567Y-84896308D01*
X155759571Y-84896308D01*
X155759573Y-84896309D01*
X155957265Y-84915780D01*
X155957268Y-84915780D01*
X155957270Y-84915780D01*
X156003729Y-84911204D01*
X156009909Y-84910900D01*
X159152888Y-84910900D01*
X159159067Y-84911204D01*
X159205529Y-84915780D01*
X159205532Y-84915780D01*
X159205536Y-84915780D01*
X159403224Y-84896310D01*
X159403225Y-84896309D01*
X159403233Y-84896309D01*
X159593336Y-84838641D01*
X159705231Y-84778832D01*
X159768536Y-84744995D01*
X159922100Y-84618968D01*
X159951743Y-84582845D01*
X159955857Y-84578307D01*
X160938763Y-83595402D01*
X161001073Y-83561379D01*
X161027856Y-83558500D01*
X172372144Y-83558500D01*
X172440265Y-83578502D01*
X172461238Y-83595404D01*
X173444127Y-84578293D01*
X173448269Y-84582863D01*
X173477900Y-84618968D01*
X173631464Y-84744995D01*
X173806664Y-84838641D01*
X173996767Y-84896308D01*
X173996771Y-84896308D01*
X173996773Y-84896309D01*
X174194465Y-84915780D01*
X174194468Y-84915780D01*
X174194470Y-84915780D01*
X174240929Y-84911204D01*
X174247109Y-84910900D01*
X196452888Y-84910900D01*
X196459067Y-84911204D01*
X196505529Y-84915780D01*
X196505532Y-84915780D01*
X196505536Y-84915780D01*
X196703224Y-84896310D01*
X196703225Y-84896309D01*
X196703233Y-84896309D01*
X196893336Y-84838641D01*
X197005231Y-84778832D01*
X197068536Y-84744995D01*
X197222100Y-84618968D01*
X197251743Y-84582845D01*
X197255857Y-84578307D01*
X198238763Y-83595402D01*
X198301073Y-83561379D01*
X198327856Y-83558500D01*
X206540076Y-83558500D01*
X206608197Y-83578502D01*
X206629171Y-83595405D01*
X216036595Y-93002829D01*
X216070621Y-93065141D01*
X216073500Y-93091924D01*
X216073500Y-96057727D01*
X216053498Y-96125848D01*
X215999842Y-96172341D01*
X215929568Y-96182445D01*
X215864988Y-96152951D01*
X215851468Y-96139298D01*
X215716274Y-95980135D01*
X214455112Y-97241296D01*
X214289643Y-97047557D01*
X214095902Y-96882086D01*
X215359687Y-95618301D01*
X215341749Y-95601309D01*
X215045741Y-95376289D01*
X215045735Y-95376286D01*
X214727132Y-95184589D01*
X214727125Y-95184585D01*
X214389679Y-95028465D01*
X214389667Y-95028460D01*
X214037311Y-94909738D01*
X214037297Y-94909734D01*
X213674177Y-94829804D01*
X213674153Y-94829800D01*
X213304522Y-94789600D01*
X212932677Y-94789600D01*
X212563046Y-94829800D01*
X212563022Y-94829804D01*
X212199902Y-94909734D01*
X212199888Y-94909738D01*
X211847532Y-95028460D01*
X211847520Y-95028465D01*
X211510074Y-95184585D01*
X211510067Y-95184589D01*
X211191464Y-95376286D01*
X211191458Y-95376289D01*
X210895449Y-95601310D01*
X210877511Y-95618301D01*
X212141297Y-96882087D01*
X211947557Y-97047557D01*
X211782087Y-97241297D01*
X210520925Y-95980135D01*
X210384789Y-96140408D01*
X210176120Y-96448171D01*
X210001952Y-96776688D01*
X210001948Y-96776697D01*
X209864324Y-97122109D01*
X209764849Y-97480387D01*
X209704694Y-97847316D01*
X209684564Y-98218595D01*
X209684564Y-98218604D01*
X209704694Y-98589883D01*
X209764849Y-98956812D01*
X209864324Y-99315090D01*
X210001948Y-99660502D01*
X210001952Y-99660511D01*
X210176120Y-99989028D01*
X210384789Y-100296791D01*
X210520925Y-100457063D01*
X211782086Y-99195901D01*
X211947557Y-99389643D01*
X212141296Y-99555112D01*
X210877511Y-100818897D01*
X210895454Y-100835894D01*
X211191458Y-101060910D01*
X211191464Y-101060913D01*
X211510067Y-101252610D01*
X211510074Y-101252614D01*
X211847520Y-101408734D01*
X211847532Y-101408739D01*
X212199888Y-101527461D01*
X212199902Y-101527465D01*
X212563022Y-101607395D01*
X212563046Y-101607399D01*
X212932677Y-101647599D01*
X212932693Y-101647600D01*
X213304507Y-101647600D01*
X213304522Y-101647599D01*
X213674153Y-101607399D01*
X213674177Y-101607395D01*
X214037297Y-101527465D01*
X214037311Y-101527461D01*
X214389667Y-101408739D01*
X214389679Y-101408734D01*
X214727125Y-101252614D01*
X214727132Y-101252610D01*
X215045735Y-101060913D01*
X215045741Y-101060910D01*
X215341751Y-100835888D01*
X215341758Y-100835882D01*
X215359687Y-100818898D01*
X215359687Y-100818897D01*
X214095903Y-99555112D01*
X214289643Y-99389643D01*
X214455112Y-99195902D01*
X215716274Y-100457063D01*
X215851468Y-100297901D01*
X215910813Y-100258931D01*
X215981806Y-100258232D01*
X216041907Y-100296026D01*
X216072035Y-100360313D01*
X216073500Y-100379472D01*
X216073500Y-102138275D01*
X216053498Y-102206396D01*
X216036595Y-102227370D01*
X214970115Y-103293850D01*
X214965532Y-103298004D01*
X214929432Y-103327630D01*
X214803405Y-103481195D01*
X214725898Y-103626202D01*
X214709759Y-103656394D01*
X214709758Y-103656398D01*
X214652091Y-103846495D01*
X214652089Y-103846507D01*
X214632620Y-104044195D01*
X214632620Y-104044202D01*
X214637196Y-104090664D01*
X214637500Y-104096843D01*
X214637500Y-104410000D01*
X214617498Y-104478121D01*
X214563842Y-104524614D01*
X214511500Y-104536000D01*
X214347350Y-104536000D01*
X214286803Y-104542509D01*
X214286795Y-104542511D01*
X214149797Y-104593610D01*
X214149792Y-104593612D01*
X214032738Y-104681238D01*
X213945112Y-104798292D01*
X213945110Y-104798297D01*
X213894011Y-104935295D01*
X213894009Y-104935303D01*
X213887500Y-104995850D01*
X213887500Y-107593149D01*
X213894009Y-107653696D01*
X213894011Y-107653704D01*
X213945110Y-107790702D01*
X213945112Y-107790707D01*
X214032738Y-107907761D01*
X214149792Y-107995387D01*
X214149794Y-107995388D01*
X214149796Y-107995389D01*
X214192227Y-108011215D01*
X214286795Y-108046488D01*
X214286803Y-108046490D01*
X214347350Y-108052999D01*
X214347355Y-108052999D01*
X214347362Y-108053000D01*
X214347368Y-108053000D01*
X216944632Y-108053000D01*
X216944638Y-108053000D01*
X216944645Y-108052999D01*
X216944649Y-108052999D01*
X217005196Y-108046490D01*
X217005199Y-108046489D01*
X217005201Y-108046489D01*
X217142204Y-107995389D01*
X217192658Y-107957620D01*
X217259261Y-107907761D01*
X217346887Y-107790707D01*
X217346887Y-107790706D01*
X217346889Y-107790704D01*
X217397989Y-107653701D01*
X217402940Y-107607654D01*
X217404499Y-107593149D01*
X217404500Y-107593132D01*
X217404500Y-104995867D01*
X217404499Y-104995850D01*
X217397990Y-104935303D01*
X217397988Y-104935295D01*
X217360878Y-104835801D01*
X217346889Y-104798296D01*
X217346888Y-104798294D01*
X217346887Y-104798292D01*
X217259261Y-104681238D01*
X217142207Y-104593612D01*
X217142202Y-104593610D01*
X217005204Y-104542511D01*
X217005196Y-104542509D01*
X216944649Y-104536000D01*
X216944638Y-104536000D01*
X216884624Y-104536000D01*
X216816503Y-104515998D01*
X216770010Y-104462342D01*
X216759906Y-104392068D01*
X216789400Y-104327488D01*
X216795516Y-104320917D01*
X217757907Y-103358525D01*
X217762445Y-103354411D01*
X217798568Y-103324768D01*
X217924595Y-103171204D01*
X218018241Y-102996004D01*
X218058142Y-102864468D01*
X218075909Y-102805900D01*
X218078922Y-102775309D01*
X218095380Y-102608204D01*
X218095380Y-102608196D01*
X218090804Y-102561734D01*
X218090500Y-102555555D01*
X218090500Y-92674643D01*
X218090804Y-92668464D01*
X218095380Y-92622002D01*
X218095380Y-92621995D01*
X218075910Y-92424307D01*
X218075908Y-92424295D01*
X218018245Y-92234208D01*
X218018243Y-92234204D01*
X218018241Y-92234196D01*
X218006597Y-92212411D01*
X217924595Y-92058996D01*
X217798568Y-91905432D01*
X217762463Y-91875801D01*
X217757893Y-91871659D01*
X207760334Y-81874100D01*
X207756189Y-81869526D01*
X207726567Y-81833431D01*
X207573004Y-81707405D01*
X207397805Y-81613759D01*
X207397803Y-81613758D01*
X207207704Y-81556091D01*
X207207692Y-81556089D01*
X207010004Y-81536620D01*
X207009997Y-81536620D01*
X206963535Y-81541196D01*
X206957356Y-81541500D01*
X198136794Y-81541500D01*
X198068673Y-81521498D01*
X198022180Y-81467842D01*
X198012076Y-81397568D01*
X198019743Y-81368863D01*
X198135675Y-81077890D01*
X198235150Y-80719612D01*
X198295305Y-80352683D01*
X198315436Y-79981404D01*
X209684564Y-79981404D01*
X209704694Y-80352683D01*
X209764849Y-80719612D01*
X209864324Y-81077890D01*
X210001948Y-81423302D01*
X210001952Y-81423311D01*
X210176120Y-81751828D01*
X210384789Y-82059591D01*
X210520925Y-82219863D01*
X211782086Y-80958701D01*
X211947557Y-81152443D01*
X212141296Y-81317912D01*
X210877512Y-82581697D01*
X210895454Y-82598694D01*
X211191458Y-82823710D01*
X211191464Y-82823713D01*
X211510067Y-83015410D01*
X211510074Y-83015414D01*
X211847520Y-83171534D01*
X211847532Y-83171539D01*
X212199888Y-83290261D01*
X212199902Y-83290265D01*
X212563022Y-83370195D01*
X212563046Y-83370199D01*
X212932677Y-83410399D01*
X212932693Y-83410400D01*
X213304507Y-83410400D01*
X213304522Y-83410399D01*
X213674153Y-83370199D01*
X213674177Y-83370195D01*
X214037297Y-83290265D01*
X214037311Y-83290261D01*
X214389667Y-83171539D01*
X214389679Y-83171534D01*
X214727125Y-83015414D01*
X214727132Y-83015410D01*
X215045735Y-82823713D01*
X215045741Y-82823710D01*
X215341751Y-82598688D01*
X215341758Y-82598682D01*
X215359687Y-82581698D01*
X215359687Y-82581697D01*
X214095903Y-81317912D01*
X214289643Y-81152443D01*
X214455112Y-80958702D01*
X215716274Y-82219863D01*
X215852409Y-82059592D01*
X216061079Y-81751828D01*
X216235247Y-81423311D01*
X216235251Y-81423302D01*
X216372875Y-81077890D01*
X216472350Y-80719612D01*
X216532505Y-80352683D01*
X216552636Y-79981404D01*
X216552636Y-79981395D01*
X216532505Y-79610116D01*
X216472350Y-79243187D01*
X216372875Y-78884909D01*
X216235251Y-78539497D01*
X216235247Y-78539488D01*
X216061079Y-78210971D01*
X215852410Y-77903208D01*
X215716274Y-77742935D01*
X214455112Y-79004096D01*
X214289643Y-78810357D01*
X214095902Y-78644886D01*
X215359687Y-77381101D01*
X215341749Y-77364109D01*
X215045741Y-77139089D01*
X215045735Y-77139086D01*
X214727132Y-76947389D01*
X214727125Y-76947385D01*
X214389679Y-76791265D01*
X214389667Y-76791260D01*
X214037311Y-76672538D01*
X214037297Y-76672534D01*
X213674177Y-76592604D01*
X213674153Y-76592600D01*
X213304522Y-76552400D01*
X212932677Y-76552400D01*
X212563046Y-76592600D01*
X212563022Y-76592604D01*
X212199902Y-76672534D01*
X212199888Y-76672538D01*
X211847532Y-76791260D01*
X211847520Y-76791265D01*
X211510074Y-76947385D01*
X211510067Y-76947389D01*
X211191464Y-77139086D01*
X211191458Y-77139089D01*
X210895449Y-77364110D01*
X210877511Y-77381101D01*
X212141297Y-78644887D01*
X211947557Y-78810357D01*
X211782087Y-79004097D01*
X210520925Y-77742935D01*
X210384789Y-77903208D01*
X210176120Y-78210971D01*
X210001952Y-78539488D01*
X210001948Y-78539497D01*
X209864324Y-78884909D01*
X209764849Y-79243187D01*
X209704694Y-79610116D01*
X209684564Y-79981395D01*
X209684564Y-79981404D01*
X198315436Y-79981404D01*
X198315436Y-79981395D01*
X198295305Y-79610116D01*
X198235150Y-79243187D01*
X198135675Y-78884909D01*
X197998051Y-78539497D01*
X197998047Y-78539488D01*
X197823879Y-78210971D01*
X197615210Y-77903208D01*
X197479074Y-77742935D01*
X196217912Y-79004096D01*
X196052443Y-78810357D01*
X195858702Y-78644886D01*
X197122487Y-77381101D01*
X197104549Y-77364109D01*
X196808541Y-77139089D01*
X196808535Y-77139086D01*
X196489932Y-76947389D01*
X196489925Y-76947385D01*
X196152479Y-76791265D01*
X196152467Y-76791260D01*
X195800111Y-76672538D01*
X195800097Y-76672534D01*
X195436977Y-76592604D01*
X195436953Y-76592600D01*
X195067322Y-76552400D01*
X194695477Y-76552400D01*
X194325846Y-76592600D01*
X194325822Y-76592604D01*
X193962702Y-76672534D01*
X193962688Y-76672538D01*
X193610332Y-76791260D01*
X193610320Y-76791265D01*
X193272874Y-76947385D01*
X193272867Y-76947389D01*
X192954264Y-77139086D01*
X192954258Y-77139089D01*
X192658249Y-77364110D01*
X192640311Y-77381101D01*
X193904097Y-78644887D01*
X193710357Y-78810357D01*
X193544887Y-79004097D01*
X192283725Y-77742935D01*
X192147589Y-77903208D01*
X191938920Y-78210971D01*
X191764752Y-78539488D01*
X191764748Y-78539497D01*
X191627124Y-78884909D01*
X191527649Y-79243187D01*
X191467494Y-79610116D01*
X191447364Y-79981395D01*
X191447364Y-79981404D01*
X191467494Y-80352683D01*
X191527649Y-80719612D01*
X191627124Y-81077890D01*
X191764748Y-81423302D01*
X191764752Y-81423311D01*
X191938920Y-81751828D01*
X192147589Y-82059591D01*
X192283725Y-82219863D01*
X193544886Y-80958701D01*
X193710357Y-81152443D01*
X193904096Y-81317912D01*
X192640312Y-82581697D01*
X192658254Y-82598694D01*
X192748888Y-82667592D01*
X192791014Y-82724741D01*
X192795555Y-82795592D01*
X192761071Y-82857651D01*
X192698509Y-82891215D01*
X192672636Y-82893900D01*
X178027363Y-82893900D01*
X177959242Y-82873898D01*
X177912749Y-82820242D01*
X177902645Y-82749968D01*
X177932139Y-82685388D01*
X177951111Y-82667592D01*
X178041751Y-82598688D01*
X178041758Y-82598682D01*
X178059687Y-82581698D01*
X178059687Y-82581697D01*
X176795902Y-81317912D01*
X176989643Y-81152443D01*
X177155112Y-80958702D01*
X178416274Y-82219863D01*
X178552409Y-82059592D01*
X178761079Y-81751828D01*
X178935247Y-81423311D01*
X178935251Y-81423302D01*
X179072875Y-81077890D01*
X179172350Y-80719612D01*
X179232505Y-80352683D01*
X179252636Y-79981404D01*
X179252636Y-79981395D01*
X179232505Y-79610116D01*
X179172350Y-79243187D01*
X179072875Y-78884909D01*
X178935251Y-78539497D01*
X178935247Y-78539488D01*
X178761079Y-78210971D01*
X178552410Y-77903208D01*
X178416274Y-77742935D01*
X177155112Y-79004096D01*
X176989643Y-78810357D01*
X176795902Y-78644886D01*
X178059687Y-77381101D01*
X178041749Y-77364109D01*
X177745741Y-77139089D01*
X177745735Y-77139086D01*
X177427132Y-76947389D01*
X177427125Y-76947385D01*
X177089679Y-76791265D01*
X177089667Y-76791260D01*
X176737311Y-76672538D01*
X176737297Y-76672534D01*
X176374177Y-76592604D01*
X176374153Y-76592600D01*
X176004522Y-76552400D01*
X175632677Y-76552400D01*
X175263046Y-76592600D01*
X175263022Y-76592604D01*
X174899902Y-76672534D01*
X174899888Y-76672538D01*
X174547532Y-76791260D01*
X174547520Y-76791265D01*
X174210074Y-76947385D01*
X174210067Y-76947389D01*
X173891464Y-77139086D01*
X173891458Y-77139089D01*
X173595449Y-77364110D01*
X173577511Y-77381101D01*
X174841297Y-78644887D01*
X174647557Y-78810357D01*
X174482087Y-79004097D01*
X173220925Y-77742935D01*
X173084789Y-77903208D01*
X172876120Y-78210971D01*
X172701952Y-78539488D01*
X172701948Y-78539497D01*
X172564324Y-78884909D01*
X172464849Y-79243187D01*
X172404694Y-79610116D01*
X172384564Y-79981395D01*
X172384564Y-79981404D01*
X172404694Y-80352683D01*
X172464849Y-80719612D01*
X172564324Y-81077890D01*
X172680257Y-81368863D01*
X172686890Y-81439549D01*
X172654253Y-81502600D01*
X172592710Y-81537997D01*
X172563206Y-81541500D01*
X160836794Y-81541500D01*
X160768673Y-81521498D01*
X160722180Y-81467842D01*
X160712076Y-81397568D01*
X160719743Y-81368863D01*
X160835675Y-81077890D01*
X160935150Y-80719612D01*
X160995305Y-80352683D01*
X161015436Y-79981404D01*
X161015436Y-79981395D01*
X160995305Y-79610116D01*
X160935150Y-79243187D01*
X160835675Y-78884909D01*
X160698051Y-78539497D01*
X160698047Y-78539488D01*
X160523879Y-78210971D01*
X160315210Y-77903208D01*
X160179074Y-77742935D01*
X158917912Y-79004096D01*
X158752443Y-78810357D01*
X158558702Y-78644886D01*
X159822487Y-77381101D01*
X159804549Y-77364109D01*
X159508541Y-77139089D01*
X159508535Y-77139086D01*
X159189932Y-76947389D01*
X159189925Y-76947385D01*
X158852479Y-76791265D01*
X158852467Y-76791260D01*
X158500111Y-76672538D01*
X158500097Y-76672534D01*
X158136977Y-76592604D01*
X158136953Y-76592600D01*
X157767322Y-76552400D01*
X157395477Y-76552400D01*
X157025846Y-76592600D01*
X157025822Y-76592604D01*
X156662702Y-76672534D01*
X156662688Y-76672538D01*
X156310332Y-76791260D01*
X156310320Y-76791265D01*
X155972874Y-76947385D01*
X155972867Y-76947389D01*
X155654264Y-77139086D01*
X155654258Y-77139089D01*
X155358249Y-77364110D01*
X155340311Y-77381101D01*
X156604097Y-78644887D01*
X156410357Y-78810357D01*
X156244887Y-79004097D01*
X154983725Y-77742935D01*
X154847589Y-77903208D01*
X154638920Y-78210971D01*
X154464752Y-78539488D01*
X154464748Y-78539497D01*
X154327124Y-78884909D01*
X154227649Y-79243187D01*
X154167494Y-79610116D01*
X154147364Y-79981395D01*
X154147364Y-79981404D01*
X154167494Y-80352683D01*
X154227649Y-80719612D01*
X154327124Y-81077890D01*
X154443057Y-81368863D01*
X154449690Y-81439549D01*
X154417053Y-81502600D01*
X154355510Y-81537997D01*
X154326006Y-81541500D01*
X140389994Y-81541500D01*
X140321873Y-81521498D01*
X140275380Y-81467842D01*
X140265276Y-81397568D01*
X140272943Y-81368863D01*
X140388875Y-81077890D01*
X140488350Y-80719612D01*
X140548505Y-80352683D01*
X140568636Y-79981404D01*
X140568636Y-79981395D01*
X140548505Y-79610116D01*
X140488350Y-79243187D01*
X140388875Y-78884909D01*
X140251251Y-78539497D01*
X140251247Y-78539488D01*
X140077079Y-78210971D01*
X139868410Y-77903208D01*
X139732274Y-77742935D01*
X138471112Y-79004096D01*
X138305643Y-78810357D01*
X138111902Y-78644886D01*
X139375687Y-77381101D01*
X139357749Y-77364109D01*
X139061741Y-77139089D01*
X139061735Y-77139086D01*
X138743132Y-76947389D01*
X138743125Y-76947385D01*
X138405679Y-76791265D01*
X138405667Y-76791260D01*
X138053311Y-76672538D01*
X138053297Y-76672534D01*
X137690177Y-76592604D01*
X137690153Y-76592600D01*
X137320522Y-76552400D01*
X136948677Y-76552400D01*
X136579046Y-76592600D01*
X136579022Y-76592604D01*
X136215902Y-76672534D01*
X136215888Y-76672538D01*
X135863532Y-76791260D01*
X135863520Y-76791265D01*
X135526074Y-76947385D01*
X135526067Y-76947389D01*
X135207464Y-77139086D01*
X135207458Y-77139089D01*
X134911449Y-77364110D01*
X134893511Y-77381101D01*
X136157297Y-78644887D01*
X135963557Y-78810357D01*
X135798087Y-79004097D01*
X134536925Y-77742935D01*
X134400789Y-77903208D01*
X134192120Y-78210971D01*
X134017952Y-78539488D01*
X134017948Y-78539497D01*
X133880324Y-78884909D01*
X133780849Y-79243187D01*
X133720694Y-79610116D01*
X133700564Y-79981395D01*
X133700564Y-79981404D01*
X133720694Y-80352683D01*
X133780849Y-80719612D01*
X133880324Y-81077890D01*
X133996257Y-81368863D01*
X134002890Y-81439549D01*
X133970253Y-81502600D01*
X133908710Y-81537997D01*
X133879206Y-81541500D01*
X122152794Y-81541500D01*
X122084673Y-81521498D01*
X122038180Y-81467842D01*
X122028076Y-81397568D01*
X122035743Y-81368863D01*
X122151675Y-81077890D01*
X122251150Y-80719612D01*
X122311305Y-80352683D01*
X122331436Y-79981404D01*
X122331436Y-79981395D01*
X122311305Y-79610116D01*
X122251150Y-79243187D01*
X122151675Y-78884909D01*
X122014051Y-78539497D01*
X122014047Y-78539488D01*
X121839879Y-78210971D01*
X121631210Y-77903208D01*
X121495074Y-77742935D01*
X120233912Y-79004096D01*
X120068443Y-78810357D01*
X119874702Y-78644886D01*
X121138487Y-77381101D01*
X121120549Y-77364109D01*
X120824541Y-77139089D01*
X120824535Y-77139086D01*
X120505932Y-76947389D01*
X120505925Y-76947385D01*
X120168479Y-76791265D01*
X120168467Y-76791260D01*
X119816111Y-76672538D01*
X119816097Y-76672534D01*
X119452977Y-76592604D01*
X119452953Y-76592600D01*
X119083322Y-76552400D01*
X118711477Y-76552400D01*
X118341846Y-76592600D01*
X118341822Y-76592604D01*
X117978702Y-76672534D01*
X117978688Y-76672538D01*
X117626332Y-76791260D01*
X117626320Y-76791265D01*
X117288874Y-76947385D01*
X117288867Y-76947389D01*
X116970264Y-77139086D01*
X116970258Y-77139089D01*
X116674249Y-77364110D01*
X116656311Y-77381101D01*
X117920097Y-78644887D01*
X117726357Y-78810357D01*
X117560887Y-79004097D01*
X116299725Y-77742935D01*
X116163589Y-77903208D01*
X115954920Y-78210971D01*
X115780752Y-78539488D01*
X115780748Y-78539497D01*
X115643124Y-78884909D01*
X115543649Y-79243187D01*
X115483494Y-79610116D01*
X115463364Y-79981395D01*
X115463364Y-79981404D01*
X115483494Y-80352683D01*
X115543649Y-80719612D01*
X115643124Y-81077890D01*
X115780748Y-81423302D01*
X115780752Y-81423311D01*
X115954920Y-81751828D01*
X116163589Y-82059591D01*
X116299725Y-82219863D01*
X117560886Y-80958701D01*
X117726357Y-81152443D01*
X117920096Y-81317912D01*
X116656312Y-82581697D01*
X116674254Y-82598694D01*
X116970258Y-82823710D01*
X116970264Y-82823713D01*
X117288867Y-83015410D01*
X117288874Y-83015414D01*
X117626320Y-83171534D01*
X117626332Y-83171539D01*
X117978688Y-83290261D01*
X117978702Y-83290265D01*
X118341822Y-83370195D01*
X118341846Y-83370199D01*
X118627203Y-83401233D01*
X118692762Y-83428482D01*
X118733181Y-83486850D01*
X118735628Y-83557805D01*
X118702675Y-83615589D01*
X100343815Y-101974450D01*
X100339232Y-101978603D01*
X100303133Y-102008230D01*
X100177105Y-102161795D01*
X100125732Y-102257908D01*
X100083460Y-102336992D01*
X100083454Y-102337007D01*
X100025791Y-102527095D01*
X100025789Y-102527107D01*
X100006320Y-102724795D01*
X100006320Y-102724802D01*
X100010896Y-102771264D01*
X100011200Y-102777443D01*
X100011200Y-108532357D01*
X100010896Y-108538536D01*
X100006320Y-108584997D01*
X100006320Y-108585001D01*
X100011200Y-108634547D01*
X100025790Y-108782694D01*
X100025791Y-108782700D01*
X100025792Y-108782701D01*
X100083459Y-108972804D01*
X100177105Y-109148004D01*
X100303132Y-109301568D01*
X100456696Y-109427595D01*
X100631896Y-109521241D01*
X100821999Y-109578908D01*
X100822003Y-109578908D01*
X100822005Y-109578909D01*
X101019697Y-109598380D01*
X101019700Y-109598380D01*
X101019702Y-109598380D01*
X101066161Y-109593804D01*
X101072341Y-109593500D01*
X101910691Y-109593500D01*
X101978812Y-109613502D01*
X101988082Y-109620069D01*
X102124424Y-109726189D01*
X102157680Y-109744186D01*
X102208071Y-109794200D01*
X102223423Y-109863516D01*
X102198862Y-109930129D01*
X102157680Y-109965813D01*
X102124426Y-109983810D01*
X102124424Y-109983811D01*
X101946762Y-110122091D01*
X101794279Y-110287729D01*
X101794275Y-110287734D01*
X101671141Y-110476206D01*
X101580703Y-110682386D01*
X101580702Y-110682387D01*
X101525437Y-110900624D01*
X101506844Y-111125000D01*
X101525437Y-111349375D01*
X101580702Y-111567612D01*
X101580703Y-111567613D01*
X101580704Y-111567616D01*
X101601823Y-111615762D01*
X101671142Y-111773796D01*
X101673620Y-111778374D01*
X101672098Y-111779197D01*
X101690408Y-111839838D01*
X101670927Y-111908110D01*
X101617628Y-111955011D01*
X101564412Y-111966800D01*
X100915224Y-111966800D01*
X100847103Y-111946798D01*
X100826129Y-111929895D01*
X99243295Y-110347060D01*
X99243276Y-110347042D01*
X99128203Y-110252605D01*
X98953005Y-110158959D01*
X98953003Y-110158958D01*
X98762904Y-110101291D01*
X98762892Y-110101289D01*
X98565204Y-110081820D01*
X98565196Y-110081820D01*
X98367507Y-110101289D01*
X98367495Y-110101291D01*
X98177396Y-110158958D01*
X98177394Y-110158959D01*
X98002199Y-110252603D01*
X97848632Y-110378632D01*
X97722603Y-110532199D01*
X97628959Y-110707394D01*
X97628958Y-110707396D01*
X97571291Y-110897495D01*
X97571289Y-110897507D01*
X97551820Y-111095195D01*
X97551820Y-111095204D01*
X70526400Y-111095204D01*
X70526400Y-109957054D01*
X70526102Y-109951845D01*
X70526000Y-109948254D01*
X70526000Y-107971191D01*
X70546002Y-107903070D01*
X70599658Y-107856577D01*
X70669932Y-107846473D01*
X70734512Y-107875967D01*
X70746725Y-107888106D01*
X70809880Y-107960120D01*
X71038691Y-108160783D01*
X71041542Y-108163283D01*
X71232807Y-108291081D01*
X71297728Y-108334460D01*
X71574073Y-108470738D01*
X71865841Y-108569780D01*
X72127060Y-108621739D01*
X72168029Y-108629889D01*
X72168031Y-108629889D01*
X72168040Y-108629891D01*
X72343731Y-108641406D01*
X72475497Y-108650043D01*
X72475500Y-108650043D01*
X72475503Y-108650043D01*
X72590797Y-108642486D01*
X72782960Y-108629891D01*
X73085159Y-108569780D01*
X73376927Y-108470738D01*
X73653272Y-108334460D01*
X73909464Y-108163278D01*
X74141120Y-107960120D01*
X74344278Y-107728464D01*
X74345949Y-107725964D01*
X74423267Y-107610248D01*
X74434692Y-107593149D01*
X85717000Y-107593149D01*
X85723509Y-107653696D01*
X85723511Y-107653704D01*
X85774610Y-107790702D01*
X85774612Y-107790707D01*
X85862238Y-107907761D01*
X85979292Y-107995387D01*
X85979294Y-107995388D01*
X85979296Y-107995389D01*
X86021727Y-108011215D01*
X86116295Y-108046488D01*
X86116303Y-108046490D01*
X86176850Y-108052999D01*
X86176855Y-108052999D01*
X86176862Y-108053000D01*
X86176868Y-108053000D01*
X88774132Y-108053000D01*
X88774138Y-108053000D01*
X88774145Y-108052999D01*
X88774149Y-108052999D01*
X88834696Y-108046490D01*
X88834699Y-108046489D01*
X88834701Y-108046489D01*
X88971704Y-107995389D01*
X89022158Y-107957620D01*
X89088761Y-107907761D01*
X89176387Y-107790707D01*
X89176387Y-107790706D01*
X89176389Y-107790704D01*
X89227489Y-107653701D01*
X89232440Y-107607654D01*
X89233999Y-107593149D01*
X89234000Y-107593132D01*
X89234000Y-104995867D01*
X89233999Y-104995850D01*
X89227490Y-104935303D01*
X89227488Y-104935295D01*
X89190378Y-104835801D01*
X89176389Y-104798296D01*
X89176388Y-104798294D01*
X89176387Y-104798292D01*
X89088761Y-104681238D01*
X88971707Y-104593612D01*
X88971702Y-104593610D01*
X88834704Y-104542511D01*
X88834696Y-104542509D01*
X88774149Y-104536000D01*
X88774138Y-104536000D01*
X86176862Y-104536000D01*
X86176850Y-104536000D01*
X86116303Y-104542509D01*
X86116295Y-104542511D01*
X85979297Y-104593610D01*
X85979292Y-104593612D01*
X85862238Y-104681238D01*
X85774612Y-104798292D01*
X85774610Y-104798297D01*
X85723511Y-104935295D01*
X85723509Y-104935303D01*
X85717000Y-104995850D01*
X85717000Y-107593149D01*
X74434692Y-107593149D01*
X74515460Y-107472272D01*
X74651738Y-107195927D01*
X74750780Y-106904159D01*
X74810891Y-106601960D01*
X74823486Y-106409797D01*
X74831043Y-106294503D01*
X74831043Y-106294496D01*
X74810891Y-105987044D01*
X74810891Y-105987040D01*
X74750780Y-105684841D01*
X74651738Y-105393073D01*
X74515460Y-105116729D01*
X74401617Y-104946350D01*
X74344281Y-104860540D01*
X74344279Y-104860538D01*
X74344278Y-104860536D01*
X74141120Y-104628880D01*
X73909464Y-104425722D01*
X73909463Y-104425721D01*
X73909457Y-104425716D01*
X73653269Y-104254538D01*
X73376933Y-104118265D01*
X73376927Y-104118262D01*
X73376922Y-104118260D01*
X73376919Y-104118259D01*
X73085167Y-104019222D01*
X73085161Y-104019220D01*
X73085159Y-104019220D01*
X72998479Y-104001978D01*
X72782970Y-103959110D01*
X72782955Y-103959108D01*
X72475503Y-103938957D01*
X72475497Y-103938957D01*
X72168044Y-103959108D01*
X72168023Y-103959111D01*
X72122175Y-103968231D01*
X72051461Y-103961902D01*
X71995394Y-103918348D01*
X71971776Y-103851395D01*
X71988104Y-103782301D01*
X72008496Y-103755561D01*
X75166651Y-100597407D01*
X75276100Y-100491041D01*
X75345146Y-100406601D01*
X75417754Y-100325186D01*
X75454192Y-100273495D01*
X75456908Y-100269921D01*
X75465895Y-100258931D01*
X75496938Y-100220968D01*
X75555917Y-100129193D01*
X75618762Y-100040046D01*
X75649064Y-99984548D01*
X75651355Y-99980688D01*
X75675794Y-99942662D01*
X75685550Y-99927482D01*
X75733688Y-99829572D01*
X75785956Y-99733852D01*
X75809739Y-99675251D01*
X75811567Y-99671173D01*
X75839478Y-99614408D01*
X75876132Y-99511674D01*
X75917159Y-99410595D01*
X75934109Y-99349656D01*
X75935466Y-99345377D01*
X75956711Y-99285838D01*
X75956711Y-99285837D01*
X75956714Y-99285829D01*
X75981416Y-99179600D01*
X76010656Y-99074490D01*
X76020550Y-99012012D01*
X76021402Y-99007644D01*
X76035732Y-98946028D01*
X76048165Y-98837662D01*
X76065231Y-98729917D01*
X76067939Y-98666720D01*
X76068290Y-98662264D01*
X76075498Y-98599450D01*
X76075500Y-98599434D01*
X76075500Y-98490343D01*
X76080171Y-98381370D01*
X76078546Y-98358655D01*
X76075661Y-98318304D01*
X76075500Y-98313808D01*
X76075500Y-98218604D01*
X78709564Y-98218604D01*
X78729694Y-98589883D01*
X78789849Y-98956812D01*
X78889324Y-99315090D01*
X79026948Y-99660502D01*
X79026952Y-99660511D01*
X79201120Y-99989028D01*
X79409789Y-100296791D01*
X79545925Y-100457063D01*
X80807086Y-99195901D01*
X80972557Y-99389643D01*
X81166296Y-99555112D01*
X79902511Y-100818897D01*
X79920454Y-100835894D01*
X80216458Y-101060910D01*
X80216464Y-101060913D01*
X80535067Y-101252610D01*
X80535074Y-101252614D01*
X80872520Y-101408734D01*
X80872532Y-101408739D01*
X81224888Y-101527461D01*
X81224902Y-101527465D01*
X81588022Y-101607395D01*
X81588046Y-101607399D01*
X81957677Y-101647599D01*
X81957693Y-101647600D01*
X82329507Y-101647600D01*
X82329522Y-101647599D01*
X82699153Y-101607399D01*
X82699177Y-101607395D01*
X83062297Y-101527465D01*
X83062311Y-101527461D01*
X83414667Y-101408739D01*
X83414679Y-101408734D01*
X83752125Y-101252614D01*
X83752132Y-101252610D01*
X84070735Y-101060913D01*
X84070741Y-101060910D01*
X84366751Y-100835888D01*
X84366758Y-100835882D01*
X84384687Y-100818898D01*
X84384687Y-100818897D01*
X83120903Y-99555112D01*
X83314643Y-99389643D01*
X83480112Y-99195902D01*
X84741274Y-100457063D01*
X84877409Y-100296792D01*
X85086079Y-99989028D01*
X85260247Y-99660511D01*
X85260251Y-99660502D01*
X85397875Y-99315090D01*
X85497350Y-98956812D01*
X85557505Y-98589883D01*
X85577636Y-98218604D01*
X85577636Y-98218595D01*
X85557505Y-97847316D01*
X85497350Y-97480387D01*
X85397875Y-97122109D01*
X85260251Y-96776697D01*
X85260247Y-96776688D01*
X85086079Y-96448171D01*
X84877410Y-96140408D01*
X84741274Y-95980135D01*
X83480112Y-97241296D01*
X83314643Y-97047557D01*
X83120902Y-96882086D01*
X84384687Y-95618301D01*
X84366749Y-95601309D01*
X84070741Y-95376289D01*
X84070735Y-95376286D01*
X83752132Y-95184589D01*
X83752125Y-95184585D01*
X83414679Y-95028465D01*
X83414667Y-95028460D01*
X83062311Y-94909738D01*
X83062297Y-94909734D01*
X82699177Y-94829804D01*
X82699153Y-94829800D01*
X82329522Y-94789600D01*
X81957677Y-94789600D01*
X81588046Y-94829800D01*
X81588022Y-94829804D01*
X81224902Y-94909734D01*
X81224888Y-94909738D01*
X80872532Y-95028460D01*
X80872520Y-95028465D01*
X80535074Y-95184585D01*
X80535067Y-95184589D01*
X80216464Y-95376286D01*
X80216458Y-95376289D01*
X79920449Y-95601310D01*
X79902511Y-95618301D01*
X81166297Y-96882087D01*
X80972557Y-97047557D01*
X80807087Y-97241297D01*
X79545925Y-95980135D01*
X79409789Y-96140408D01*
X79201120Y-96448171D01*
X79026952Y-96776688D01*
X79026948Y-96776697D01*
X78889324Y-97122109D01*
X78789849Y-97480387D01*
X78729694Y-97847316D01*
X78709564Y-98218595D01*
X78709564Y-98218604D01*
X76075500Y-98218604D01*
X76075500Y-91771201D01*
X76095502Y-91703080D01*
X76108140Y-91686584D01*
X76137411Y-91654289D01*
X76372788Y-91336920D01*
X76575924Y-90998008D01*
X76744862Y-90640817D01*
X76877977Y-90268788D01*
X76973985Y-89885502D01*
X77031962Y-89494651D01*
X77051350Y-89100000D01*
X77031962Y-88705349D01*
X76973985Y-88314498D01*
X76877977Y-87931212D01*
X76744862Y-87559183D01*
X76744609Y-87558649D01*
X94456500Y-87558649D01*
X94463009Y-87619196D01*
X94463011Y-87619204D01*
X94514110Y-87756202D01*
X94514112Y-87756207D01*
X94601738Y-87873261D01*
X94718792Y-87960887D01*
X94718794Y-87960888D01*
X94718796Y-87960889D01*
X94777875Y-87982924D01*
X94855795Y-88011988D01*
X94855803Y-88011990D01*
X94916350Y-88018499D01*
X94916355Y-88018499D01*
X94916362Y-88018500D01*
X95330500Y-88018500D01*
X95398621Y-88038502D01*
X95445114Y-88092158D01*
X95456500Y-88144500D01*
X95456500Y-94715955D01*
X95456196Y-94722134D01*
X95451620Y-94768596D01*
X95451620Y-94768604D01*
X95471089Y-94966292D01*
X95471091Y-94966301D01*
X95496997Y-95051700D01*
X95528756Y-95156398D01*
X95528760Y-95156407D01*
X95574406Y-95241804D01*
X95622405Y-95331604D01*
X95748432Y-95485168D01*
X95784531Y-95514794D01*
X95789100Y-95518934D01*
X97013166Y-96743000D01*
X98231495Y-97961329D01*
X98265521Y-98023641D01*
X98268400Y-98050424D01*
X98268400Y-101218453D01*
X98282990Y-101366594D01*
X98282991Y-101366600D01*
X98282992Y-101366601D01*
X98340659Y-101556704D01*
X98434305Y-101731904D01*
X98560332Y-101885468D01*
X98713896Y-102011495D01*
X98889096Y-102105141D01*
X99079199Y-102162808D01*
X99079203Y-102162808D01*
X99079205Y-102162809D01*
X99276897Y-102182280D01*
X99276900Y-102182280D01*
X99276903Y-102182280D01*
X99474594Y-102162809D01*
X99474595Y-102162808D01*
X99474601Y-102162808D01*
X99664704Y-102105141D01*
X99839904Y-102011495D01*
X99993468Y-101885468D01*
X100119495Y-101731904D01*
X100213141Y-101556704D01*
X100270808Y-101366601D01*
X100285400Y-101218447D01*
X100285400Y-97633143D01*
X100285704Y-97626964D01*
X100290280Y-97580502D01*
X100290280Y-97580495D01*
X100270810Y-97382807D01*
X100270808Y-97382795D01*
X100213141Y-97192696D01*
X100213140Y-97192694D01*
X100127605Y-97032669D01*
X100119494Y-97017495D01*
X99993468Y-96863932D01*
X99957366Y-96834304D01*
X99952793Y-96830159D01*
X97510405Y-94387771D01*
X97476379Y-94325459D01*
X97473500Y-94298676D01*
X97473500Y-88144500D01*
X97493502Y-88076379D01*
X97547158Y-88029886D01*
X97599500Y-88018500D01*
X98013632Y-88018500D01*
X98013638Y-88018500D01*
X98013645Y-88018499D01*
X98013649Y-88018499D01*
X98074196Y-88011990D01*
X98074199Y-88011989D01*
X98074201Y-88011989D01*
X98211204Y-87960889D01*
X98328261Y-87873261D01*
X98415889Y-87756204D01*
X98466989Y-87619201D01*
X98473442Y-87559183D01*
X98473499Y-87558649D01*
X98473500Y-87558632D01*
X98473500Y-86919439D01*
X98493502Y-86851318D01*
X98547158Y-86804825D01*
X98617432Y-86794721D01*
X98682012Y-86824215D01*
X98687346Y-86829112D01*
X98826981Y-86964951D01*
X99110022Y-87185251D01*
X99415580Y-87373077D01*
X99739946Y-87526149D01*
X100079183Y-87642609D01*
X100079186Y-87642610D01*
X100429157Y-87721040D01*
X100429161Y-87721040D01*
X100429172Y-87721043D01*
X100785665Y-87760500D01*
X100785666Y-87760500D01*
X101054589Y-87760500D01*
X101054595Y-87760500D01*
X101323125Y-87745685D01*
X101676904Y-87686650D01*
X102022041Y-87589054D01*
X102354346Y-87454083D01*
X102669787Y-87283375D01*
X102964534Y-87079002D01*
X103147751Y-86919439D01*
X103235008Y-86843447D01*
X103235010Y-86843445D01*
X103477931Y-86579562D01*
X103690348Y-86290559D01*
X103869683Y-85979941D01*
X104013759Y-85651481D01*
X104120827Y-85309164D01*
X104189588Y-84957147D01*
X104219207Y-84599702D01*
X104209324Y-84241168D01*
X104160059Y-83885897D01*
X104160058Y-83885893D01*
X104072014Y-83538211D01*
X104024161Y-83410400D01*
X103946248Y-83202303D01*
X103784296Y-82882279D01*
X103588122Y-82582012D01*
X103587863Y-82581698D01*
X103360105Y-82305146D01*
X103287809Y-82234815D01*
X103252928Y-82172977D01*
X103257017Y-82102098D01*
X103298776Y-82044682D01*
X103364949Y-82018957D01*
X103375668Y-82018500D01*
X104013632Y-82018500D01*
X104013638Y-82018500D01*
X104013645Y-82018499D01*
X104013649Y-82018499D01*
X104074196Y-82011990D01*
X104074199Y-82011989D01*
X104074201Y-82011989D01*
X104211204Y-81960889D01*
X104328261Y-81873261D01*
X104358077Y-81833432D01*
X104415887Y-81756207D01*
X104415887Y-81756206D01*
X104415889Y-81756204D01*
X104466989Y-81619201D01*
X104467214Y-81617116D01*
X104473499Y-81558649D01*
X104473500Y-81558632D01*
X104473500Y-81144500D01*
X104493502Y-81076379D01*
X104547158Y-81029886D01*
X104599500Y-81018500D01*
X107656127Y-81018500D01*
X107724248Y-81038502D01*
X107745222Y-81055405D01*
X107773841Y-81084024D01*
X107773847Y-81084029D01*
X107773848Y-81084030D01*
X107924762Y-81177115D01*
X108093074Y-81232887D01*
X108196955Y-81243500D01*
X108973044Y-81243499D01*
X109076926Y-81232887D01*
X109245238Y-81177115D01*
X109396152Y-81084030D01*
X109521530Y-80958652D01*
X109521537Y-80958639D01*
X109523978Y-80955554D01*
X109526209Y-80953973D01*
X109526720Y-80953463D01*
X109526807Y-80953550D01*
X109581916Y-80914521D01*
X109652840Y-80911324D01*
X109714234Y-80946980D01*
X109721661Y-80955551D01*
X109723869Y-80958344D01*
X109849154Y-81083629D01*
X109849160Y-81083634D01*
X109999974Y-81176657D01*
X110168178Y-81232393D01*
X110168181Y-81232394D01*
X110271983Y-81242999D01*
X110271983Y-81243000D01*
X110406000Y-81243000D01*
X110406000Y-80264000D01*
X110914000Y-80264000D01*
X110914000Y-81243000D01*
X111048017Y-81243000D01*
X111048016Y-81242999D01*
X111151818Y-81232394D01*
X111151821Y-81232393D01*
X111320025Y-81176657D01*
X111470839Y-81083634D01*
X111470845Y-81083629D01*
X111596129Y-80958345D01*
X111596134Y-80958339D01*
X111689157Y-80807525D01*
X111744893Y-80639321D01*
X111744894Y-80639318D01*
X111755499Y-80535516D01*
X111755500Y-80535516D01*
X111755500Y-80264000D01*
X110914000Y-80264000D01*
X110406000Y-80264000D01*
X110406000Y-78777000D01*
X110914000Y-78777000D01*
X110914000Y-79756000D01*
X111755500Y-79756000D01*
X111755500Y-79484483D01*
X111744894Y-79380681D01*
X111744893Y-79380678D01*
X111689157Y-79212474D01*
X111596134Y-79061660D01*
X111596129Y-79061654D01*
X111470845Y-78936370D01*
X111470839Y-78936365D01*
X111320025Y-78843342D01*
X111151821Y-78787606D01*
X111151818Y-78787605D01*
X111048016Y-78777000D01*
X110914000Y-78777000D01*
X110406000Y-78777000D01*
X110271983Y-78777000D01*
X110168181Y-78787605D01*
X110168178Y-78787606D01*
X109999974Y-78843342D01*
X109849160Y-78936365D01*
X109849154Y-78936370D01*
X109723870Y-79061654D01*
X109721657Y-79064454D01*
X109719649Y-79065875D01*
X109718675Y-79066850D01*
X109718508Y-79066683D01*
X109663716Y-79105482D01*
X109592791Y-79108672D01*
X109531400Y-79073011D01*
X109523983Y-79064450D01*
X109521528Y-79061345D01*
X109396158Y-78935975D01*
X109396152Y-78935970D01*
X109313369Y-78884909D01*
X109245238Y-78842885D01*
X109147073Y-78810357D01*
X109076927Y-78787113D01*
X109076920Y-78787112D01*
X108973053Y-78776500D01*
X108196955Y-78776500D01*
X108093074Y-78787112D01*
X107924761Y-78842885D01*
X107773847Y-78935970D01*
X107773841Y-78935975D01*
X107745222Y-78964595D01*
X107682910Y-78998621D01*
X107656127Y-79001500D01*
X104599500Y-79001500D01*
X104531379Y-78981498D01*
X104484886Y-78927842D01*
X104473500Y-78875500D01*
X104473500Y-78461367D01*
X104473499Y-78461350D01*
X104466990Y-78400803D01*
X104466988Y-78400795D01*
X104415889Y-78263797D01*
X104415887Y-78263792D01*
X104328261Y-78146738D01*
X104211207Y-78059112D01*
X104211202Y-78059110D01*
X104074204Y-78008011D01*
X104074196Y-78008009D01*
X104013649Y-78001500D01*
X104013638Y-78001500D01*
X98013638Y-78001500D01*
X94916362Y-78001500D01*
X94916350Y-78001500D01*
X94855803Y-78008009D01*
X94855795Y-78008011D01*
X94718797Y-78059110D01*
X94718792Y-78059112D01*
X94601738Y-78146738D01*
X94514112Y-78263792D01*
X94514110Y-78263797D01*
X94463011Y-78400795D01*
X94463009Y-78400803D01*
X94456500Y-78461350D01*
X94456500Y-87558649D01*
X76744609Y-87558649D01*
X76575924Y-87201992D01*
X76372788Y-86863080D01*
X76372787Y-86863079D01*
X76372785Y-86863075D01*
X76137418Y-86545719D01*
X76137411Y-86545711D01*
X75872059Y-86252941D01*
X75579289Y-85987589D01*
X75579288Y-85987588D01*
X75579280Y-85987581D01*
X75261924Y-85752214D01*
X74923011Y-85549078D01*
X74923012Y-85549078D01*
X74923008Y-85549076D01*
X74565817Y-85380138D01*
X74565813Y-85380136D01*
X74193799Y-85247026D01*
X74193790Y-85247023D01*
X74193788Y-85247023D01*
X74099660Y-85223445D01*
X73810505Y-85151015D01*
X73419661Y-85093039D01*
X73419654Y-85093038D01*
X73419651Y-85093038D01*
X73222325Y-85083344D01*
X73025004Y-85073650D01*
X73024996Y-85073650D01*
X72799485Y-85084728D01*
X72630349Y-85093038D01*
X72630346Y-85093038D01*
X72630338Y-85093039D01*
X72239494Y-85151015D01*
X71856200Y-85247026D01*
X71484186Y-85380136D01*
X71126988Y-85549078D01*
X70788075Y-85752214D01*
X70470719Y-85987581D01*
X70177941Y-86252941D01*
X69912581Y-86545719D01*
X69677214Y-86863075D01*
X69474078Y-87201988D01*
X69305136Y-87559186D01*
X69172026Y-87931200D01*
X69076015Y-88314494D01*
X69018039Y-88705338D01*
X69018038Y-88705352D01*
X68998650Y-89099996D01*
X68998650Y-89100003D01*
X69018038Y-89494647D01*
X69018039Y-89494661D01*
X69076015Y-89885505D01*
X69172026Y-90268799D01*
X69305136Y-90640813D01*
X69305138Y-90640817D01*
X69474076Y-90998008D01*
X69474078Y-90998011D01*
X69677214Y-91336924D01*
X69912581Y-91654280D01*
X69941860Y-91686584D01*
X69972786Y-91750491D01*
X69974500Y-91771201D01*
X69974500Y-97109250D01*
X69954498Y-97177371D01*
X69937595Y-97198345D01*
X67106281Y-100029658D01*
X67043969Y-100063684D01*
X66973153Y-100058619D01*
X66916318Y-100016072D01*
X66891507Y-99949552D01*
X66905864Y-99881543D01*
X67023044Y-99660518D01*
X67023051Y-99660502D01*
X67160675Y-99315090D01*
X67260150Y-98956812D01*
X67320305Y-98589883D01*
X67340436Y-98218604D01*
X67340436Y-98218595D01*
X67320305Y-97847316D01*
X67260150Y-97480387D01*
X67160675Y-97122109D01*
X67023051Y-96776697D01*
X67023047Y-96776688D01*
X66848879Y-96448171D01*
X66640210Y-96140408D01*
X66504074Y-95980135D01*
X65242912Y-97241296D01*
X65077443Y-97047557D01*
X64883702Y-96882086D01*
X66147487Y-95618301D01*
X66129549Y-95601309D01*
X65833541Y-95376289D01*
X65833535Y-95376286D01*
X65514932Y-95184589D01*
X65514925Y-95184585D01*
X65177479Y-95028465D01*
X65177467Y-95028460D01*
X64825111Y-94909738D01*
X64825097Y-94909734D01*
X64461977Y-94829804D01*
X64461953Y-94829800D01*
X64092322Y-94789600D01*
X63720477Y-94789600D01*
X63350846Y-94829800D01*
X63350822Y-94829804D01*
X62987702Y-94909734D01*
X62987688Y-94909738D01*
X62635332Y-95028460D01*
X62635320Y-95028465D01*
X62297874Y-95184585D01*
X62297867Y-95184589D01*
X61979264Y-95376286D01*
X61979258Y-95376289D01*
X61683249Y-95601310D01*
X61665311Y-95618301D01*
X62929097Y-96882087D01*
X62735357Y-97047557D01*
X62569887Y-97241297D01*
X61308725Y-95980135D01*
X61172589Y-96140408D01*
X60963920Y-96448171D01*
X60789752Y-96776688D01*
X60789748Y-96776697D01*
X60652124Y-97122109D01*
X60552649Y-97480387D01*
X60492494Y-97847316D01*
X60472364Y-98218595D01*
X60472364Y-98218604D01*
X60492494Y-98589883D01*
X60552649Y-98956812D01*
X60652124Y-99315090D01*
X60789748Y-99660502D01*
X60789752Y-99660511D01*
X60963920Y-99989028D01*
X61172589Y-100296791D01*
X61308725Y-100457063D01*
X62569886Y-99195901D01*
X62735357Y-99389643D01*
X62929096Y-99555112D01*
X61665312Y-100818897D01*
X61683254Y-100835894D01*
X61979258Y-101060910D01*
X61979264Y-101060913D01*
X62297867Y-101252610D01*
X62297874Y-101252614D01*
X62635320Y-101408734D01*
X62635332Y-101408739D01*
X62987688Y-101527461D01*
X62987702Y-101527465D01*
X63350822Y-101607395D01*
X63350846Y-101607399D01*
X63720477Y-101647599D01*
X63720493Y-101647600D01*
X64092307Y-101647600D01*
X64092322Y-101647599D01*
X64461953Y-101607399D01*
X64461977Y-101607395D01*
X64825097Y-101527465D01*
X64825111Y-101527461D01*
X65177467Y-101408739D01*
X65177479Y-101408734D01*
X65514925Y-101252614D01*
X65514937Y-101252608D01*
X65558319Y-101226506D01*
X65627001Y-101208524D01*
X65694501Y-101230529D01*
X65739389Y-101285534D01*
X65747414Y-101356076D01*
X65716027Y-101419757D01*
X65712376Y-101423564D01*
X65333882Y-101802058D01*
X65224413Y-101908444D01*
X65224406Y-101908452D01*
X65224401Y-101908457D01*
X65224400Y-101908459D01*
X65155350Y-101992903D01*
X65133956Y-102016892D01*
X65082745Y-102074313D01*
X65046311Y-102125996D01*
X65043591Y-102129575D01*
X65003561Y-102178532D01*
X64944583Y-102270304D01*
X64881740Y-102359449D01*
X64881736Y-102359457D01*
X64851436Y-102414947D01*
X64849141Y-102418815D01*
X64814952Y-102472014D01*
X64814947Y-102472022D01*
X64766811Y-102569927D01*
X64714548Y-102665639D01*
X64714546Y-102665643D01*
X64690762Y-102724237D01*
X64688924Y-102728340D01*
X64661021Y-102785092D01*
X64624367Y-102887825D01*
X64583340Y-102988906D01*
X64566391Y-103049836D01*
X64565032Y-103054122D01*
X64543785Y-103113671D01*
X64519083Y-103219899D01*
X64489843Y-103325012D01*
X64479949Y-103387480D01*
X64479087Y-103391895D01*
X64464771Y-103453453D01*
X64464769Y-103453466D01*
X64452334Y-103561837D01*
X64435270Y-103669575D01*
X64435268Y-103669593D01*
X64433761Y-103704744D01*
X64410859Y-103771945D01*
X64355261Y-103816096D01*
X64284618Y-103823180D01*
X64236757Y-103803354D01*
X64053346Y-103677941D01*
X64053347Y-103677941D01*
X63833304Y-103561837D01*
X63744794Y-103515135D01*
X63419696Y-103388563D01*
X63419694Y-103388562D01*
X63419695Y-103388562D01*
X63082298Y-103299875D01*
X63082288Y-103299873D01*
X62736981Y-103250225D01*
X62550985Y-103244911D01*
X62388247Y-103240263D01*
X62388245Y-103240263D01*
X62388240Y-103240263D01*
X62040656Y-103270117D01*
X61698750Y-103339395D01*
X61698746Y-103339397D01*
X61366949Y-103447203D01*
X61049600Y-103592132D01*
X60750856Y-103772282D01*
X60474583Y-103985320D01*
X60270469Y-104183687D01*
X60224400Y-104228459D01*
X60020252Y-104478121D01*
X60003558Y-104498537D01*
X59814950Y-104792017D01*
X59814949Y-104792019D01*
X59661022Y-105105090D01*
X59661017Y-105105103D01*
X59543786Y-105433669D01*
X59464771Y-105773453D01*
X59464769Y-105773467D01*
X59464768Y-105773472D01*
X59440263Y-105987044D01*
X59425000Y-106120068D01*
X59425000Y-117063715D01*
X59422819Y-117216344D01*
X59422819Y-117216353D01*
X59433705Y-117324892D01*
X59439933Y-117433799D01*
X59450716Y-117496113D01*
X59451325Y-117500569D01*
X59457634Y-117563481D01*
X59480821Y-117670070D01*
X59499422Y-117777553D01*
X59517237Y-117838229D01*
X59518349Y-117842586D01*
X59531792Y-117904378D01*
X59566982Y-118007641D01*
X59597710Y-118112292D01*
X59597712Y-118112296D01*
X59622324Y-118170536D01*
X59623926Y-118174740D01*
X59644321Y-118234587D01*
X59644328Y-118234605D01*
X59691051Y-118333163D01*
X59733510Y-118433636D01*
X59733516Y-118433648D01*
X59764613Y-118488713D01*
X59766684Y-118492707D01*
X59793762Y-118549827D01*
X59793769Y-118549841D01*
X59851419Y-118642426D01*
X59905065Y-118737420D01*
X59905066Y-118737422D01*
X59942233Y-118788577D01*
X59944746Y-118792309D01*
X59978164Y-118845980D01*
X59978176Y-118845996D01*
X60046003Y-118931406D01*
X60110119Y-119019655D01*
X60152872Y-119066237D01*
X60155793Y-119069657D01*
X60178950Y-119098816D01*
X60195127Y-119119186D01*
X60195130Y-119119189D01*
X60195134Y-119119194D01*
X60272265Y-119196324D01*
X60346019Y-119276684D01*
X60346021Y-119276686D01*
X60346026Y-119276691D01*
X60393809Y-119318095D01*
X60397087Y-119321146D01*
X61086803Y-120010862D01*
X62851591Y-121775651D01*
X62957955Y-121885097D01*
X62957960Y-121885101D01*
X63042398Y-121954146D01*
X63123813Y-122026754D01*
X63175490Y-122063183D01*
X63179072Y-122065904D01*
X63228033Y-122105939D01*
X63228039Y-122105943D01*
X63319806Y-122164917D01*
X63408954Y-122227762D01*
X63464449Y-122258064D01*
X63468313Y-122260356D01*
X63521518Y-122294550D01*
X63521522Y-122294552D01*
X63521525Y-122294554D01*
X63563981Y-122315428D01*
X63616288Y-122363433D01*
X63634337Y-122432098D01*
X63612398Y-122499619D01*
X63557436Y-122544561D01*
X63508388Y-122554500D01*
X59181500Y-122554500D01*
X59113379Y-122534498D01*
X59066886Y-122480842D01*
X59055500Y-122428500D01*
X59055500Y-79981404D01*
X60472364Y-79981404D01*
X60492494Y-80352683D01*
X60552649Y-80719612D01*
X60652124Y-81077890D01*
X60789748Y-81423302D01*
X60789752Y-81423311D01*
X60963920Y-81751828D01*
X61172589Y-82059591D01*
X61308725Y-82219863D01*
X62569886Y-80958701D01*
X62735357Y-81152443D01*
X62929096Y-81317912D01*
X61665311Y-82581697D01*
X61683254Y-82598694D01*
X61979258Y-82823710D01*
X61979264Y-82823713D01*
X62297867Y-83015410D01*
X62297874Y-83015414D01*
X62635320Y-83171534D01*
X62635332Y-83171539D01*
X62987688Y-83290261D01*
X62987702Y-83290265D01*
X63350822Y-83370195D01*
X63350846Y-83370199D01*
X63720477Y-83410399D01*
X63720493Y-83410400D01*
X64092307Y-83410400D01*
X64092322Y-83410399D01*
X64461953Y-83370199D01*
X64461977Y-83370195D01*
X64825097Y-83290265D01*
X64825111Y-83290261D01*
X65177467Y-83171539D01*
X65177479Y-83171534D01*
X65514925Y-83015414D01*
X65514932Y-83015410D01*
X65833535Y-82823713D01*
X65833541Y-82823710D01*
X66129551Y-82598688D01*
X66129558Y-82598682D01*
X66147487Y-82581698D01*
X66147487Y-82581697D01*
X64883703Y-81317912D01*
X65077443Y-81152443D01*
X65242912Y-80958702D01*
X66504074Y-82219863D01*
X66640209Y-82059592D01*
X66848879Y-81751828D01*
X67023047Y-81423311D01*
X67023051Y-81423302D01*
X67160675Y-81077890D01*
X67260150Y-80719612D01*
X67320305Y-80352683D01*
X67340436Y-79981404D01*
X78709564Y-79981404D01*
X78729694Y-80352683D01*
X78789849Y-80719612D01*
X78889324Y-81077890D01*
X79026948Y-81423302D01*
X79026952Y-81423311D01*
X79201120Y-81751828D01*
X79409789Y-82059591D01*
X79545925Y-82219863D01*
X80807086Y-80958701D01*
X80972557Y-81152443D01*
X81166296Y-81317912D01*
X79902512Y-82581697D01*
X79920454Y-82598694D01*
X80216458Y-82823710D01*
X80216464Y-82823713D01*
X80535067Y-83015410D01*
X80535074Y-83015414D01*
X80872520Y-83171534D01*
X80872532Y-83171539D01*
X81224888Y-83290261D01*
X81224902Y-83290265D01*
X81588022Y-83370195D01*
X81588046Y-83370199D01*
X81957677Y-83410399D01*
X81957693Y-83410400D01*
X82329507Y-83410400D01*
X82329522Y-83410399D01*
X82699153Y-83370199D01*
X82699177Y-83370195D01*
X83062297Y-83290265D01*
X83062311Y-83290261D01*
X83414667Y-83171539D01*
X83414679Y-83171534D01*
X83752125Y-83015414D01*
X83752132Y-83015410D01*
X84070735Y-82823713D01*
X84070741Y-82823710D01*
X84366751Y-82598688D01*
X84366758Y-82598682D01*
X84384687Y-82581698D01*
X84384687Y-82581697D01*
X83120903Y-81317912D01*
X83314643Y-81152443D01*
X83480112Y-80958702D01*
X84741274Y-82219863D01*
X84877409Y-82059592D01*
X85086079Y-81751828D01*
X85260247Y-81423311D01*
X85260251Y-81423302D01*
X85397875Y-81077890D01*
X85497350Y-80719612D01*
X85557505Y-80352683D01*
X85577636Y-79981404D01*
X85577636Y-79981395D01*
X85557505Y-79610116D01*
X85497350Y-79243187D01*
X85397875Y-78884909D01*
X85260251Y-78539497D01*
X85260247Y-78539488D01*
X85086079Y-78210971D01*
X84877410Y-77903208D01*
X84741274Y-77742935D01*
X83480112Y-79004096D01*
X83314643Y-78810357D01*
X83120902Y-78644886D01*
X84384687Y-77381101D01*
X84366749Y-77364109D01*
X84070741Y-77139089D01*
X84070735Y-77139086D01*
X83752132Y-76947389D01*
X83752125Y-76947385D01*
X83414679Y-76791265D01*
X83414667Y-76791260D01*
X83062311Y-76672538D01*
X83062297Y-76672534D01*
X82699177Y-76592604D01*
X82699153Y-76592600D01*
X82329522Y-76552400D01*
X81957677Y-76552400D01*
X81588046Y-76592600D01*
X81588022Y-76592604D01*
X81224902Y-76672534D01*
X81224888Y-76672538D01*
X80872532Y-76791260D01*
X80872520Y-76791265D01*
X80535074Y-76947385D01*
X80535067Y-76947389D01*
X80216464Y-77139086D01*
X80216458Y-77139089D01*
X79920449Y-77364110D01*
X79902511Y-77381101D01*
X81166297Y-78644887D01*
X80972557Y-78810357D01*
X80807087Y-79004097D01*
X79545925Y-77742935D01*
X79409789Y-77903208D01*
X79201120Y-78210971D01*
X79026952Y-78539488D01*
X79026948Y-78539497D01*
X78889324Y-78884909D01*
X78789849Y-79243187D01*
X78729694Y-79610116D01*
X78709564Y-79981395D01*
X78709564Y-79981404D01*
X67340436Y-79981404D01*
X67340436Y-79981395D01*
X67320305Y-79610116D01*
X67260150Y-79243187D01*
X67160675Y-78884909D01*
X67023051Y-78539497D01*
X67023047Y-78539488D01*
X66848879Y-78210971D01*
X66640210Y-77903208D01*
X66504074Y-77742935D01*
X65242912Y-79004096D01*
X65077443Y-78810357D01*
X64883702Y-78644886D01*
X66147487Y-77381101D01*
X66129549Y-77364109D01*
X65833541Y-77139089D01*
X65833535Y-77139086D01*
X65514932Y-76947389D01*
X65514925Y-76947385D01*
X65177479Y-76791265D01*
X65177467Y-76791260D01*
X64825111Y-76672538D01*
X64825097Y-76672534D01*
X64461977Y-76592604D01*
X64461953Y-76592600D01*
X64092322Y-76552400D01*
X63720477Y-76552400D01*
X63350846Y-76592600D01*
X63350822Y-76592604D01*
X62987702Y-76672534D01*
X62987688Y-76672538D01*
X62635332Y-76791260D01*
X62635320Y-76791265D01*
X62297874Y-76947385D01*
X62297867Y-76947389D01*
X61979264Y-77139086D01*
X61979258Y-77139089D01*
X61683249Y-77364110D01*
X61665311Y-77381101D01*
X62929097Y-78644887D01*
X62735357Y-78810357D01*
X62569887Y-79004097D01*
X61308725Y-77742935D01*
X61172589Y-77903208D01*
X60963920Y-78210971D01*
X60789752Y-78539488D01*
X60789748Y-78539497D01*
X60652124Y-78884909D01*
X60552649Y-79243187D01*
X60492494Y-79610116D01*
X60472364Y-79981395D01*
X60472364Y-79981404D01*
X59055500Y-79981404D01*
X59055500Y-73786500D01*
X59075502Y-73718379D01*
X59129158Y-73671886D01*
X59181500Y-73660500D01*
X218948500Y-73660500D01*
X219016621Y-73680502D01*
G37*
G04 #@! TD.AperFunction*
M02*
